<svg width="58" height="54" viewBox="0 0 58 54" fill="none" xmlns="http://www.w3.org/2000/svg">
<path d="M45.7292 0H12.2708C5.49384 0 0 5.11495 0 11.4246V42.5754C0 48.8851 5.49384 54 12.2708 54H45.7292C52.5062 54 58 48.8851 58 42.5754V11.4246C58 5.11495 52.5062 0 45.7292 0Z" fill="#333333"/>
<path d="M45.3712 54H12.6225C9.27582 53.9969 6.06719 52.7573 3.70074 50.5528C1.33429 48.3484 0.00335842 45.3595 0 42.2419V11.7587C0.00503307 8.64158 1.33652 5.65302 3.7026 3.4489C6.06869 1.24478 9.27633 0.00468854 12.6225 0H45.3712C48.7184 0.00312554 51.9277 1.24288 54.2952 3.44716C56.6626 5.65145 57.995 8.64056 58 11.7587V42.2419C57.9966 45.3605 56.6648 48.3499 54.297 50.5546C51.9292 52.7592 48.7189 53.9984 45.3712 54ZM12.6479 0.461045C9.43293 0.465733 6.35112 1.65723 4.07782 3.77492C1.80452 5.8926 0.52516 8.76381 0.520127 11.7587V42.2419C0.52516 45.2368 1.80452 48.1074 4.07782 50.2251C6.35112 52.3428 9.43293 53.5348 12.6479 53.5395H45.3712C48.5861 53.5348 51.6679 52.3428 53.9412 50.2251C56.2145 48.1074 57.4939 45.2368 57.4989 42.2419V11.7587C57.4939 8.76381 56.2145 5.8926 53.9412 3.77492C51.6679 1.65723 48.5861 0.465733 45.3712 0.461045H12.6479Z" fill="url(#paint0_linear_45_4)"/>
<path d="M14 25.8769C14.1209 25.199 14.2036 24.5211 14.369 23.8546C15.0144 21.2247 16.5405 18.8338 18.7434 17.0014C20.9463 15.169 23.7212 13.9823 26.6972 13.5998C28.8256 13.3054 31.0005 13.4385 33.0644 13.9893C35.1284 14.5401 37.0298 15.4946 38.6311 16.7844L38.9237 17.0064L40.0687 15.9699C40.4949 15.5882 41.0865 15.2631 41.2965 14.796C41.4262 14.2569 41.4499 13.7017 41.3664 13.1553C41.3664 12.9445 41.3664 12.7335 41.3664 12.5227C41.3587 12.2343 41.418 11.9477 41.5407 11.681C41.6633 11.4142 41.8466 11.1732 42.0789 10.9733L47.3779 6.23311C47.4751 6.1506 47.577 6.0731 47.6832 6H48.0586C48.1896 6.07192 48.2943 6.1765 48.3599 6.30099C48.4254 6.42548 48.4489 6.56416 48.4275 6.70045C48.4275 7.27016 48.4275 7.84005 48.4275 8.44964C48.5248 8.38378 48.6183 8.31335 48.7074 8.23878L50.3868 6.73495C50.4363 6.67946 50.4985 6.63377 50.5691 6.60142C50.6397 6.56907 50.7172 6.55041 50.7964 6.5469C50.8756 6.54339 50.9548 6.55544 51.0286 6.58139C51.1024 6.60735 51.1692 6.64684 51.2246 6.69767C51.28 6.74851 51.3228 6.80953 51.3499 6.87626C51.3771 6.94299 51.3882 7.01405 51.3823 7.08489C51.3765 7.15574 51.3539 7.22442 51.3161 7.28685C51.2782 7.34929 51.226 7.40408 51.1629 7.44708C50.6285 7.93133 50.0814 8.41547 49.5407 8.89973L49.2418 9.19014C49.9542 9.19014 50.5904 9.19014 51.2265 9.19014C51.5382 9.19014 51.8245 9.22424 51.958 9.52618C52.0916 9.82813 51.8817 10.0048 51.6718 10.1871C49.9479 11.731 48.2239 13.2692 46.5064 14.8188C46.263 15.0509 45.9664 15.2335 45.637 15.3535C45.3077 15.4734 44.9532 15.5278 44.598 15.5137C43.8664 15.5137 43.1349 15.5137 42.4097 15.5137C42.2889 15.4998 42.1667 15.5266 42.0662 15.5882C41.271 16.2776 40.4886 16.9835 39.7443 17.6501C40.3804 18.442 41.0166 19.1712 41.5573 19.9289C42.6441 21.5619 43.3267 23.3853 43.5587 25.275C43.7907 27.1646 43.5668 29.0765 42.9022 30.8819C42.2375 32.6874 41.1476 34.3439 39.7062 35.7395C38.2648 37.135 36.5055 38.2369 34.5473 38.9708C32.5892 39.7046 30.4779 40.0536 28.3562 39.9933C26.2346 39.9331 24.1521 39.4653 22.2498 38.6219C20.3474 37.7785 18.6695 36.5791 17.3297 35.1046C15.9898 33.6302 15.0192 31.9153 14.4835 30.0757C14.2735 29.375 14.2036 28.6399 14.0636 27.9221C14.0492 27.8373 14.0279 27.7538 14 27.6717V25.8769ZM37.2125 20.0035L37.4479 20.2594C38.5664 21.4165 39.3665 22.7922 39.7841 24.2763C40.2017 25.7604 40.2251 27.3114 39.8524 28.805C39.5531 30.1244 38.9614 31.3766 38.1122 32.4875C37.263 33.5985 36.1736 34.5455 34.9084 35.2727C33.6433 35.9999 32.2282 36.4927 30.7467 36.7214C29.2653 36.9502 27.7477 36.9104 26.2837 36.6046C24.915 36.3286 23.6188 35.8181 22.4669 35.1008C22.3934 35.0703 22.3282 35.0258 22.2757 34.9706C22.2233 34.9153 22.1848 34.8502 22.1631 34.7803C22.1413 34.7104 22.1367 34.6372 22.1496 34.5655C22.1626 34.4939 22.1927 34.426 22.2379 34.3658C22.4351 34.1151 22.7341 34.0807 23.084 34.2801L23.2748 34.3886C25.2936 35.5885 27.7322 36.0868 30.1323 35.7901C31.6097 35.6129 33.0255 35.1471 34.2798 34.4259C35.5341 33.7047 36.5962 32.7455 37.3911 31.6163C38.1859 30.4871 38.6942 29.2154 38.8799 27.8909C39.0656 26.5665 38.9242 25.2215 38.4657 23.9514C38.0441 22.7683 37.3434 21.6799 36.411 20.7607L34.687 22.3051L34.8843 22.5382C35.5194 23.2532 35.9852 24.0768 36.2532 24.9584C36.5212 25.84 36.5857 26.761 36.4428 27.6656C36.2421 29.0126 35.601 30.2766 34.6001 31.2981C33.5992 32.3195 32.2833 33.053 30.818 33.4061C29.3527 33.7592 27.8035 33.7162 26.3654 33.2826C24.9273 32.849 23.6646 32.0442 22.7362 30.9693C21.8078 29.8943 21.2551 28.5972 21.1479 27.2417C21.0406 25.8861 21.3835 24.5325 22.1334 23.3511C22.8832 22.1696 24.0066 21.213 25.362 20.6021C26.7175 19.9912 28.2444 19.7533 29.7507 19.9178C30.5271 20.039 31.2879 20.2298 32.0217 20.4875C32.0922 20.5095 32.1567 20.5448 32.2107 20.591C32.2648 20.6372 32.3071 20.693 32.3348 20.7551C32.3626 20.8172 32.3751 20.8841 32.3716 20.951C32.368 21.0178 32.3485 21.0834 32.3143 21.1429C32.2497 21.2577 32.1393 21.3462 32.005 21.3916C31.8707 21.437 31.7222 21.4357 31.5891 21.3877L31.2774 21.2736C30.186 20.8669 28.9881 20.7461 27.8232 20.9259C26.5466 21.1049 25.3572 21.6169 24.4034 22.3975C23.4495 23.1781 22.7735 24.193 22.4597 25.3156C22.1459 26.4381 22.2081 27.6183 22.6388 28.7093C23.0694 29.8003 23.8492 30.7534 24.881 31.4499C25.9128 32.1465 27.1508 32.5557 28.4405 32.6261C29.7302 32.6964 31.0145 32.4248 32.133 31.8455C33.2515 31.2663 34.1548 30.4048 34.7301 29.3686C35.3053 28.3325 35.5271 27.1677 35.3677 26.0194C35.2279 24.9056 34.7207 23.8545 33.911 23L32.1807 24.5611C32.7858 25.3119 33.0521 26.2397 32.9264 27.1588C32.8006 28.0779 32.2921 28.9205 31.5024 29.5183C30.7128 30.116 29.7002 30.4244 28.6674 30.3823C27.6345 30.3402 26.6575 29.9507 25.9317 29.2913C25.2059 28.6318 24.7848 27.751 24.7527 26.8255C24.7206 25.9 25.0798 24.9976 25.7586 24.2991C26.4373 23.6006 27.3854 23.1578 28.4134 23.0584C29.4413 22.959 30.4733 23.2106 31.3028 23.7633L35.5522 19.9579C35.5394 19.9394 35.5245 19.9218 35.5076 19.9061C35.4449 19.8518 35.3791 19.8008 35.3104 19.7526C34.0667 18.8318 32.5955 18.1903 31.0191 17.8815C29.4427 17.5728 27.8068 17.6055 26.2474 17.9772C24.6881 18.3489 23.2504 19.0488 22.054 20.0185C20.8576 20.9882 19.937 22.1998 19.369 23.5525C17.9822 26.8283 18.6501 29.882 21.0929 32.6166C21.21 32.7152 21.3012 32.8359 21.3601 32.9699C21.3968 33.1352 21.3603 33.3067 21.2583 33.4484C21.191 33.5075 21.1098 33.5526 21.0207 33.5802C20.9316 33.6078 20.8367 33.6173 20.743 33.608C20.5584 33.5506 20.3983 33.443 20.285 33.3004C19.1762 32.1597 18.3742 30.8064 17.9408 29.3447C17.5074 27.883 17.4541 26.3519 17.785 24.8688C18.1469 23.1749 18.9876 21.5918 20.2269 20.2716C21.4662 18.9515 23.0626 17.9382 24.8638 17.328C26.6649 16.7177 28.6107 16.5312 30.5153 16.7861C32.4199 17.041 34.2198 17.7287 35.743 18.7839L36.3792 19.2396L38.0776 17.713C35.4351 15.5118 31.935 14.3253 28.3273 14.4071C24.7196 14.4888 21.2911 15.8322 18.7762 18.1503C16.2613 20.4683 14.86 23.5763 14.8725 26.8083C14.885 30.0403 16.3102 33.1394 18.843 35.4418C21.3757 37.7442 24.8145 39.0666 28.4228 39.126C32.031 39.1854 35.5218 37.9769 38.1473 35.7595C40.7728 33.542 42.3243 30.4922 42.4694 27.2628C42.6145 24.0334 41.3418 20.8811 38.9237 18.4818L37.2125 20.0035ZM30.5077 24.5611C29.9183 24.1888 29.1974 24.0218 28.4804 24.0921C27.7635 24.1624 27.0999 24.4651 26.6145 24.9428C26.2279 25.3137 25.966 25.7748 25.8591 26.2731C25.7521 26.7713 25.8044 27.2862 26.01 27.7591C26.2155 28.2319 26.5659 28.6434 27.0209 28.9458C27.4759 29.2481 28.017 29.4291 28.5819 29.4682C29.1467 29.5073 29.7125 29.4028 30.214 29.1667C30.7154 28.9306 31.1323 28.5724 31.4166 28.1335C31.7009 27.6946 31.841 27.193 31.8209 26.6859C31.8008 26.1788 31.6212 25.6869 31.3028 25.2672L31.0166 25.5125C30.4249 26.0366 29.8461 26.5663 29.2545 27.0848C29.207 27.1366 29.148 27.179 29.0812 27.2094C29.0145 27.2398 28.9414 27.2574 28.8667 27.2611C28.7919 27.2649 28.7171 27.2546 28.647 27.2311C28.5769 27.2076 28.513 27.1716 28.4593 27.1248C28.4052 27.079 28.3621 27.0236 28.3327 26.9624C28.3032 26.9012 28.288 26.8354 28.288 26.7688C28.288 26.7021 28.3032 26.6358 28.3327 26.5746C28.3621 26.5134 28.4052 26.4585 28.4593 26.4127C28.5738 26.2988 28.701 26.1905 28.8283 26.0822L30.5077 24.5611ZM44.8652 11.6971L47.1871 9.61186C47.2501 9.56417 47.2909 9.49708 47.3016 9.42381C47.3016 8.85411 47.3016 8.34707 47.3016 7.71469L45.3041 9.50894C45.2103 9.5815 45.1289 9.6662 45.0624 9.75985C44.9639 9.89816 44.8989 10.0533 44.8715 10.2155C44.8524 10.6656 44.8652 11.1272 44.8652 11.6798V11.6971ZM45.6858 12.3636C47.1043 12.5858 47.5942 12.4544 48.5229 11.617C48.7138 11.4461 48.9046 11.2698 49.1018 11.1046C49.4199 10.8368 49.7379 10.5688 50.0624 10.3068L49.9924 10.2099C49.7998 10.2242 49.6062 10.2242 49.4135 10.2099C48.9875 10.1357 48.5466 10.1751 48.1452 10.3229C47.7439 10.4707 47.3997 10.7206 47.1552 11.0417C46.6923 11.5002 46.2018 11.9358 45.6858 12.3464V12.3636ZM43.7456 10.9733C42.5815 11.7481 42.1425 12.7962 42.5687 13.7818C42.9186 13.457 43.2685 13.144 43.5993 12.8193C43.6796 12.7407 43.7288 12.6406 43.7392 12.5344C43.7456 12.016 43.7456 11.5086 43.7456 10.956V10.9733ZM46.4173 13.4062H44.6807C44.5971 13.4065 44.5162 13.4326 44.4517 13.4802C44.0636 13.7992 43.6883 14.124 43.2812 14.4772C44.6234 14.6823 45.7176 14.5113 46.4173 13.389V13.4062Z" fill="url(#paint1_linear_45_4)"/>
<defs>
<linearGradient id="paint0_linear_45_4" x1="5.05534" y1="0.0236363" x2="46.0661" y2="53.3014" gradientUnits="userSpaceOnUse">
<stop stop-color="#E6E6E6"/>
<stop offset="0.04" stop-color="#CECECE"/>
<stop offset="0.12" stop-color="#ACACAC"/>
<stop offset="0.2" stop-color="#8E8E8E"/>
<stop offset="0.29" stop-color="#767676"/>
<stop offset="0.39" stop-color="#646464"/>
<stop offset="0.51" stop-color="#575757"/>
<stop offset="0.67" stop-color="#4F4F4F"/>
<stop offset="0.99" stop-color="#4D4D4D"/>
</linearGradient>
<linearGradient id="paint1_linear_45_4" x1="14" y1="23.0114" x2="51.9899" y2="23.0114" gradientUnits="userSpaceOnUse">
<stop offset="0.05" stop-color="#6079FF"/>
<stop offset="0.23" stop-color="#5498E8"/>
<stop offset="0.62" stop-color="#37E7AE"/>
<stop offset="0.64" stop-color="#35EBAB"/>
<stop offset="0.71" stop-color="#44C5BC"/>
<stop offset="0.87" stop-color="#6A64E8"/>
<stop offset="0.94" stop-color="#7C38FC"/>
</linearGradient>
</defs>
</svg>
