<svg width="57" height="55" viewBox="0 0 57 55" fill="none" xmlns="http://www.w3.org/2000/svg">
<path d="M45.0099 0H11.9901C5.36814 0 0 5.0856 0 11.359V42.641C0 48.9144 5.36814 54 11.9901 54H45.0099C51.6319 54 57 48.9144 57 42.641V11.359C57 5.0856 51.6319 0 45.0099 0Z" fill="#333333"/>
<path d="M44.5835 55H12.4103C9.1204 54.9952 5.96662 53.7322 3.64032 51.4872C1.31401 49.2423 0.00494845 46.1984 0 43.0236V11.9758C0.00330196 8.80053 1.3119 5.75628 3.63857 3.511C5.96523 1.26572 9.1199 0.00318646 12.4103 0H44.5835C47.8749 0.00159295 51.0312 1.26378 53.3592 3.50924C55.6872 5.75469 56.9967 8.79949 57 11.9758V43.0236C56.995 46.1994 55.6851 49.2439 53.3574 51.489C51.0297 53.7341 47.8744 54.9968 44.5835 55ZM12.4103 0.468995C9.24941 0.47377 6.21942 1.68792 3.98433 3.84482C1.74925 6.00173 0.491399 8.92552 0.486451 11.9758V43.0236C0.491399 46.0739 1.74925 48.9983 3.98433 51.1552C6.21942 53.3121 9.24941 54.5256 12.4103 54.5304H44.5835C47.7443 54.5256 50.7743 53.3121 53.0094 51.1552C55.2445 48.9983 56.5024 46.0739 56.5073 43.0236V11.9758C56.5024 8.92552 55.2445 6.00173 53.0094 3.84482C50.7743 1.68792 47.7443 0.47377 44.5835 0.468995H12.4103Z" fill="url(#paint0_linear_45_9)"/>
<path d="M24.4446 38.1702C24.2066 37.9833 24.0313 37.7418 23.938 37.4722C23.8447 37.2027 23.837 36.9156 23.9157 36.6424C23.9755 36.3975 24.1101 36.1719 24.3046 35.9902C24.4991 35.8086 24.7462 35.6781 25.0188 35.6125C25.3155 35.5324 25.3542 35.4064 25.2961 35.1604C25.1847 34.6406 24.9507 34.1475 24.6094 33.7136C24.268 33.2797 23.8272 32.9145 23.3157 32.6423C21.1394 31.4746 19.4883 29.6721 18.6451 27.5436C18.2215 26.5288 18.0031 25.4555 18 24.3734C18 24.0243 18.2194 23.8873 18.5871 24.0247C19.9073 24.5234 21.3064 24.838 22.7351 24.9573C23.2641 25.0031 23.3802 25.2321 23.0319 25.5983C22.8337 25.809 22.7193 26.0713 22.7065 26.3455C22.6937 26.6196 22.783 26.8899 22.9608 27.1144C23.0373 27.2232 23.1438 27.3132 23.2702 27.3754C23.3966 27.4376 23.5388 27.4704 23.6834 27.4704C23.8279 27.4704 23.9701 27.4376 24.0965 27.3754C24.223 27.3132 24.3294 27.2232 24.4059 27.1144C24.5727 26.8982 24.6565 26.6402 24.6449 26.3784C24.6333 26.1166 24.5268 25.8648 24.3414 25.6609C23.9737 25.2374 24.0576 25.0204 24.6382 24.9747C26.2688 24.8187 27.8608 24.4323 29.3539 23.8302C30.5993 23.3572 31.9295 23.0839 33.2826 23.0232C33.4503 23.0232 33.7341 23.0747 33.7664 23.1663C33.7837 23.2487 33.7818 23.3333 33.7607 23.415C33.7396 23.4967 33.6998 23.5738 33.6438 23.6413C33.449 23.855 33.338 24.1188 33.3275 24.3935C33.317 24.6681 33.4077 24.9381 33.5858 25.163C33.6642 25.2633 33.7687 25.3455 33.8906 25.4022C34.0125 25.4588 34.1481 25.4882 34.2857 25.4882C34.4233 25.4882 34.5589 25.4588 34.6808 25.4022C34.8027 25.3455 34.9073 25.2633 34.9856 25.163C35.1676 24.941 35.2657 24.6736 35.2657 24.3991C35.2657 24.1246 35.1676 23.8572 34.9856 23.6352C34.8824 23.5035 34.7663 23.2806 34.8244 23.1719C34.8824 23.0632 35.1598 22.9946 35.334 23.0003C36.8371 23.0841 38.3114 23.4034 39.6885 23.9442C39.7954 23.9842 39.8836 24.0554 39.9388 24.1459C39.9939 24.2364 40.0125 24.3409 39.9917 24.4421C39.9817 25.7081 39.6866 26.9596 39.1239 28.1231C38.5611 29.2866 37.742 30.3385 36.7146 31.2173C36.0415 31.7668 35.3187 32.2665 34.5535 32.7111C34.0681 32.9958 33.6542 33.3664 33.3378 33.7996C33.0215 34.2329 32.8093 34.7198 32.7149 35.2291C32.7114 35.2912 32.7255 35.3531 32.756 35.4091C32.7864 35.465 32.8321 35.5131 32.889 35.5493C34.2696 36.1216 34.547 37.0484 33.6309 38.1071C33.8396 38.4315 34.0083 38.7749 34.1341 39.1314C34.2034 39.451 34.1446 39.7822 33.9679 40.0674C33.7912 40.3527 33.5077 40.5743 33.1665 40.6939C33.0566 40.7231 32.9625 40.7869 32.902 40.8733C32.8414 40.9597 32.8185 41.063 32.8375 41.1633C32.8375 41.4151 32.8375 41.6721 32.8375 41.9239C32.8544 42.0612 32.8376 42.2002 32.7882 42.3312C32.7388 42.4622 32.658 42.5821 32.5513 42.6827C32.4446 42.7834 32.3146 42.8623 32.1702 42.9141C32.0258 42.9659 31.8705 42.9894 31.715 42.9828C29.9087 43.0057 28.1024 43.0057 26.2961 42.9828C26.1405 42.9894 25.9852 42.9659 25.8408 42.9141C25.6964 42.8623 25.5665 42.7834 25.4598 42.6827C25.3531 42.5821 25.2722 42.4622 25.2228 42.3312C25.1734 42.2002 25.1566 42.0612 25.1736 41.9239C25.1607 41.7906 25.1607 41.657 25.1736 41.5237C25.228 41.3289 25.2004 41.1229 25.0959 40.9448C24.9913 40.7667 24.8171 40.6286 24.6059 40.5564C24.4149 40.4544 24.2501 40.3178 24.1223 40.1557C23.9945 39.9936 23.9065 39.8095 23.8639 39.6153C23.8214 39.4212 23.8252 39.2213 23.8752 39.0286C23.9252 38.8358 24.0204 38.6547 24.1543 38.4966L24.4446 38.1702ZM29.4507 32.0187C29.4507 32.0587 29.3991 32.0933 29.3991 32.1276C29.3991 33.1863 29.3991 34.2392 29.3991 35.2979C29.3991 35.378 29.5861 35.5207 29.6958 35.5264C30.3409 35.5264 30.986 35.5264 31.6311 35.5264C31.8505 35.5264 31.9472 35.4409 31.973 35.252C32.0735 34.5769 32.348 33.9311 32.7754 33.3654C33.2028 32.7997 33.7715 32.3292 34.4373 31.9902C35.8468 31.2286 37.0231 30.1704 37.8624 28.9099C38.7017 27.6494 39.1782 26.2254 39.2498 24.7629C39.2498 24.5511 39.1918 24.4479 38.9789 24.3907C38.2693 24.2076 37.5725 24.0073 36.8629 23.8185C36.5726 23.7441 36.2629 23.7213 35.9468 23.6698C36.1146 25.1805 35.5727 26.056 34.4179 26.1018C34.025 26.097 33.6437 25.9827 33.3278 25.7755C32.5472 25.2547 32.5471 24.4823 32.7278 23.5782L29.7345 24.3622C29.6785 24.3712 29.6252 24.3897 29.5774 24.417C29.5296 24.4443 29.4883 24.48 29.4559 24.5215C29.4236 24.5629 29.4007 24.6096 29.3888 24.6589C29.3768 24.7082 29.3759 24.7591 29.3862 24.8087C29.3862 26.1477 29.3862 27.481 29.3862 28.8144C29.3862 28.9231 29.3862 29.0316 29.3862 29.1575C30.399 28.9457 31.3214 29.026 31.9149 29.8443C32.0906 30.0578 32.1853 30.3154 32.1853 30.5797C32.1853 30.844 32.0906 31.101 31.9149 31.3145C31.3021 32.1615 30.4054 32.2248 29.4377 32.036L29.4507 32.0187ZM25.2768 25.6151C25.5091 27.1544 24.9671 28.0702 23.7672 28.1331C23.5536 28.1438 23.34 28.1134 23.1407 28.0443C22.9414 27.9752 22.7613 27.8689 22.6125 27.7325C22.3042 27.4619 22.0945 27.1158 22.0106 26.7383C21.9266 26.3609 21.9723 25.9693 22.1416 25.6151L18.7935 24.8769C18.8501 25.997 19.1571 27.0962 19.6966 28.1102C20.584 29.7939 22.0199 31.2033 23.8189 32.1561C24.4245 32.4808 24.9385 32.9239 25.322 33.4515C25.7054 33.979 25.9481 34.5768 26.0316 35.2001C26.0767 35.4633 26.1993 35.5495 26.4832 35.5437C27.0444 35.5437 27.6057 35.5437 28.1669 35.5437C28.5217 35.5437 28.6443 35.4694 28.6378 35.1375C28.6378 33.9358 28.6378 32.7342 28.6378 31.5325C28.6332 31.4465 28.6505 31.3603 28.6884 31.281C28.7264 31.2018 28.7841 31.131 28.8571 31.0743C28.9797 31.017 29.2378 31.1146 29.3862 31.2061C29.6308 31.3639 29.9255 31.4487 30.228 31.4487C30.5304 31.4487 30.8252 31.3639 31.0699 31.2061C31.183 31.136 31.2753 31.0426 31.3391 30.934C31.4029 30.8254 31.4362 30.7049 31.4362 30.5825C31.4362 30.46 31.4029 30.339 31.3391 30.2304C31.2753 30.1218 31.183 30.029 31.0699 29.9588C30.8276 29.8092 30.5394 29.7286 30.2441 29.7286C29.9489 29.7286 29.6607 29.8092 29.4184 29.9588C29.2571 30.0561 28.9474 30.1816 28.8636 30.1187C28.7134 29.9758 28.6304 29.7876 28.6314 29.5922C28.6314 28.1445 28.6314 26.731 28.6314 25.2546V24.8601L25.2768 25.6151ZM29.0055 40.2071C30.1215 40.2071 31.2441 40.2071 32.3665 40.2071C32.5 40.2189 32.6347 40.2067 32.7627 40.1714C32.8908 40.136 33.0094 40.0784 33.1117 40.0015C33.2141 39.9246 33.2979 39.8305 33.3583 39.7243C33.4187 39.6181 33.4543 39.5021 33.4632 39.3834C33.467 39.2643 33.4429 39.1456 33.3922 39.0353C33.3416 38.9249 33.2656 38.8254 33.1692 38.7425C33.0727 38.6596 32.9578 38.5955 32.8318 38.5541C32.7058 38.5128 32.5716 38.495 32.4375 38.5022C30.1538 38.5022 27.8766 38.5022 25.5929 38.5022C25.3623 38.5106 25.1388 38.576 24.9478 38.691C24.7877 38.7855 24.6673 38.9241 24.6055 39.0856C24.5437 39.2471 24.5438 39.4221 24.6059 39.5835C24.6627 39.7672 24.788 39.9283 24.9614 40.0406C25.1349 40.1529 25.3461 40.2096 25.5606 40.2016C26.696 40.2302 27.8444 40.2245 28.9927 40.2245L29.0055 40.2071ZM29.0055 36.1562C27.883 36.1562 26.767 36.1562 25.6445 36.1562C25.5112 36.1452 25.3768 36.1574 25.2492 36.1931C25.1215 36.2288 25.0032 36.2868 24.9011 36.3635C24.799 36.4403 24.7151 36.5343 24.6545 36.6402C24.5938 36.746 24.5576 36.8615 24.5479 36.9799C24.5449 37.0993 24.5699 37.2177 24.6212 37.3281C24.6726 37.4384 24.7492 37.5387 24.8462 37.6215C24.9432 37.7043 25.0585 37.7679 25.1848 37.8092C25.3111 37.8505 25.4456 37.8683 25.58 37.8612C27.8594 37.8612 30.1409 37.8612 32.4246 37.8612C32.5584 37.8683 32.6924 37.8507 32.8182 37.8098C32.9441 37.7688 33.0591 37.7053 33.156 37.6231C33.2529 37.5409 33.3296 37.4422 33.3814 37.3325C33.4331 37.2228 33.4588 37.1044 33.4567 36.9855C33.4487 36.8669 33.4138 36.7511 33.3542 36.6446C33.2946 36.5382 33.2115 36.4432 33.1098 36.3658C33.0081 36.2884 32.8899 36.2303 32.7622 36.1942C32.6345 36.1581 32.5 36.1453 32.3665 36.1562C31.2376 36.1677 30.1216 36.173 28.9991 36.173L29.0055 36.1562ZM29.0055 40.8196H26.9541C25.8187 40.8196 25.8316 40.8196 25.8381 41.821C25.8381 42.1701 25.98 42.353 26.3799 42.353H31.5924C31.9601 42.353 32.1472 42.1989 32.1279 41.8613C32.1279 41.6782 32.1279 41.495 32.1279 41.289C32.1279 40.8026 32.1278 40.7967 31.5924 40.7967L29.0055 40.8196Z" fill="url(#paint1_linear_45_9)"/>
<path d="M26.2127 13.7663C27.2837 13.5488 28.1954 13.6251 28.7628 14.5068C28.9277 14.7311 29.0104 14.9984 28.999 15.2692C28.9875 15.54 28.8824 15.8003 28.699 16.012C28.4213 16.3556 28.0276 16.6044 27.5799 16.7193C27.1322 16.8342 26.6558 16.8088 26.2255 16.647C26.2255 16.8057 26.2255 16.9348 26.2255 17.0701C26.2255 17.9518 26.2255 18.8335 26.2255 19.7211C26.2448 19.8088 26.2449 19.8991 26.2257 19.9869C26.2065 20.0746 26.1685 20.158 26.1139 20.232C26.0592 20.306 25.989 20.3695 25.9074 20.418C25.8258 20.4666 25.7345 20.4996 25.6389 20.515L22.5597 21.2849C22.4322 21.3201 22.3047 21.338 22.1453 21.3733C22.4577 22.3432 22.3557 23.2011 21.3867 23.7889C21.1274 23.942 20.8219 24.0153 20.5146 23.9973C20.2074 23.9794 19.9144 23.8711 19.6781 23.6891C19.317 23.418 19.0641 23.0442 18.9591 22.6259C18.854 22.2076 18.9028 21.7688 19.098 21.379C18.6262 21.2908 18.1609 21.2377 17.721 21.1201C16.9432 20.9144 16.1782 20.6679 15.4132 20.4387C15.2766 20.4079 15.1583 20.3291 15.0834 20.2194C15.0084 20.1097 14.9827 19.9777 15.0115 19.8508C15.0518 17.7269 15.825 15.67 17.219 13.9787C18.613 12.2874 20.5551 11.0498 22.7637 10.4453C23.6961 10.2457 24.6417 10.1021 25.5943 10.0159C26.1043 9.95123 26.2318 10.0746 26.2318 10.5567C26.2318 11.4502 26.2318 12.3203 26.2318 13.2491L26.2127 13.7663ZM25.4731 10.6921C24.944 10.7509 24.4531 10.786 23.9686 10.8741C21.7549 11.2686 19.7453 12.3282 18.2539 13.8874C16.7625 15.4466 15.8734 17.4175 15.7255 19.492C15.7045 19.5947 15.7271 19.7007 15.7889 19.7883C15.8507 19.8759 15.9468 19.9383 16.0571 19.9622C17.2044 20.3694 18.4085 20.6247 19.6335 20.7206C19.8251 20.7383 20.0015 20.825 20.1244 20.9617C20.1818 21.0498 20.0607 21.2791 19.9587 21.4025C19.7707 21.6178 19.6625 21.8831 19.6499 22.1592C19.6373 22.4353 19.7209 22.7079 19.8886 22.937C19.9639 23.0527 20.0704 23.1479 20.1977 23.2143C20.3251 23.2807 20.4689 23.3159 20.6153 23.3159C20.7616 23.3159 20.9054 23.2807 21.0328 23.2143C21.1601 23.1479 21.2667 23.0527 21.342 22.937C21.5033 22.7046 21.5808 22.4306 21.5637 22.1551C21.5465 21.8797 21.4354 21.6165 21.2464 21.4025C21.1902 21.3413 21.1482 21.2698 21.123 21.193C21.0978 21.1162 21.0898 21.0357 21.0998 20.9559C21.155 20.8911 21.2244 20.8377 21.3035 20.7992C21.3826 20.7607 21.4696 20.7381 21.5589 20.7326C22.7852 20.636 23.991 20.3826 25.1417 19.98C25.2564 19.9536 25.3566 19.889 25.4236 19.7992C25.4905 19.7093 25.5195 19.6003 25.5051 19.492C25.5051 18.3791 25.5051 17.2681 25.5051 16.159C25.5076 16.0722 25.5293 15.987 25.5688 15.9081C25.6082 15.8293 25.6646 15.7584 25.7346 15.7003C25.8238 15.6474 26.0788 15.7417 26.2127 15.8358C26.428 15.9902 26.6876 16.0829 26.9595 16.1027C27.2315 16.1226 27.5038 16.0684 27.7427 15.9472C27.8995 15.8858 28.0327 15.7825 28.1248 15.6504C28.2169 15.5183 28.2637 15.3636 28.2591 15.2066C28.2555 15.0558 28.2058 14.9088 28.1156 14.783C28.0253 14.6571 27.8983 14.5574 27.7491 14.4954C27.5069 14.3667 27.2276 14.3097 26.9492 14.3329C26.6708 14.356 26.4069 14.458 26.1935 14.6245C26.1218 14.6726 26.0399 14.7066 25.9532 14.7238C25.8664 14.741 25.7768 14.741 25.69 14.7244C25.588 14.6891 25.5051 14.4661 25.5051 14.3191C25.5051 13.2727 25.5051 12.2265 25.5051 11.1801C25.4923 11.0331 25.4859 10.8979 25.4731 10.6921Z" fill="url(#paint2_linear_45_9)"/>
<path d="M38.7426 18.7148C38.9203 20.1356 38.2779 20.9836 37.0547 20.9998C35.8314 21.016 35.1548 20.2167 35.2847 18.6932C34.8248 18.7448 34.3686 18.815 33.9179 18.9037C33.1867 19.0766 32.4624 19.2818 31.7449 19.4925C31.1982 19.6545 31 19.5737 31 19.1253C31 17.9656 31 16.8078 31 15.6517C31.0011 15.5717 31.0236 15.4927 31.066 15.4201C31.1084 15.3475 31.1697 15.2827 31.246 15.2302C31.3417 15.1761 31.6082 15.2789 31.7585 15.36C32.0185 15.5073 32.3304 15.5863 32.6503 15.5863C32.9702 15.5863 33.2821 15.5073 33.5421 15.36C33.6677 15.2958 33.7708 15.2079 33.8423 15.1041C33.9137 15.0003 33.9512 14.8836 33.9512 14.7654C33.9512 14.6472 33.9137 14.531 33.8423 14.4272C33.7708 14.3234 33.6677 14.2355 33.5421 14.1713C33.2805 14.0239 32.9659 13.947 32.6447 13.9519C32.3235 13.9567 32.0128 14.043 31.7585 14.1982C31.6082 14.2847 31.3348 14.3768 31.2323 14.3227C31.1598 14.2684 31.1019 14.2031 31.062 14.1307C31.0221 14.0583 31.001 13.9802 31 13.9012C31 12.7523 31 11.6051 31 10.4598C31 10.0817 31.1162 9.99002 31.5945 10.0008C34.2773 10.0386 36.8607 10.809 38.9062 12.1818C40.9516 13.5546 42.3329 15.4449 42.8155 17.5315C42.9145 18.0414 42.9761 18.5559 43 19.0715C43 19.4983 42.8155 19.5847 42.3166 19.455C41.3121 19.2011 40.2666 18.9688 39.2893 18.7365C39.108 18.7188 38.9252 18.7116 38.7426 18.7148ZM31.8063 18.7528C31.9011 18.7421 31.9948 18.7254 32.0865 18.7037C33.303 18.3343 34.5803 18.1052 35.8793 18.0232C35.9876 18.018 36.096 18.0303 36.1981 18.059C36.3003 18.0878 36.3941 18.1329 36.4738 18.1909C36.5422 18.245 36.4328 18.4989 36.3234 18.6177C36.1292 18.812 36.0146 19.0485 35.9951 19.2957C35.9755 19.5428 36.052 19.7886 36.2141 20.0005C36.2931 20.1143 36.4092 20.2093 36.5505 20.2754C36.6918 20.3415 36.8529 20.3767 37.0171 20.3767C37.1812 20.3767 37.3424 20.3415 37.4837 20.2754C37.625 20.2093 37.7411 20.1143 37.8201 20.0005C37.9851 19.7894 38.0632 19.5429 38.0436 19.2952C38.024 19.0474 37.9077 18.811 37.7107 18.6177C37.6014 18.4989 37.4989 18.2716 37.5672 18.1851C37.635 18.1252 37.7201 18.0794 37.8153 18.0511C37.9105 18.0229 38.0129 18.0132 38.1139 18.0232C39.3576 18.2177 40.5946 18.4391 41.8315 18.6552L42.1937 18.7254C41.9887 14.0793 36.6651 10.6217 31.8132 10.7136V13.4148C33.6104 13.2743 34.656 13.7173 34.7449 14.6303C34.7698 14.8196 34.7423 15.0111 34.6645 15.1911C34.5866 15.3712 34.4601 15.5358 34.2938 15.6733C33.974 15.9248 33.5695 16.0982 33.1285 16.173C32.6874 16.2477 32.2284 16.2207 31.8063 16.0949V18.7528Z" fill="url(#paint3_linear_45_9)"/>
<defs>
<linearGradient id="paint0_linear_45_9" x1="4.9454" y1="0.0240724" x2="47.07" y2="52.8505" gradientUnits="userSpaceOnUse">
<stop stop-color="#E6E6E6"/>
<stop offset="0.04" stop-color="#CECECE"/>
<stop offset="0.12" stop-color="#ACACAC"/>
<stop offset="0.2" stop-color="#8E8E8E"/>
<stop offset="0.29" stop-color="#767676"/>
<stop offset="0.39" stop-color="#646464"/>
<stop offset="0.51" stop-color="#575757"/>
<stop offset="0.67" stop-color="#4F4F4F"/>
<stop offset="0.99" stop-color="#4D4D4D"/>
</linearGradient>
<linearGradient id="paint1_linear_45_9" x1="18.0129" y1="33.0202" x2="39.9852" y2="33.0202" gradientUnits="userSpaceOnUse">
<stop offset="0.05" stop-color="#6079FF"/>
<stop offset="0.23" stop-color="#5498E8"/>
<stop offset="0.62" stop-color="#37E7AE"/>
<stop offset="0.64" stop-color="#35EBAB"/>
<stop offset="0.71" stop-color="#44C5BC"/>
<stop offset="0.87" stop-color="#6A64E8"/>
<stop offset="0.94" stop-color="#7C38FC"/>
</linearGradient>
<linearGradient id="paint2_linear_45_9" x1="15.0051" y1="17.0114" x2="29.0177" y2="17.0114" gradientUnits="userSpaceOnUse">
<stop offset="0.05" stop-color="#6079FF"/>
<stop offset="0.23" stop-color="#5498E8"/>
<stop offset="0.62" stop-color="#37E7AE"/>
<stop offset="0.64" stop-color="#35EBAB"/>
<stop offset="0.71" stop-color="#44C5BC"/>
<stop offset="0.87" stop-color="#6A64E8"/>
<stop offset="0.94" stop-color="#7C38FC"/>
</linearGradient>
<linearGradient id="paint3_linear_45_9" x1="30.9727" y1="15.5111" x2="42.9795" y2="15.5111" gradientUnits="userSpaceOnUse">
<stop offset="0.05" stop-color="#6079FF"/>
<stop offset="0.23" stop-color="#5498E8"/>
<stop offset="0.62" stop-color="#37E7AE"/>
<stop offset="0.64" stop-color="#35EBAB"/>
<stop offset="0.71" stop-color="#44C5BC"/>
<stop offset="0.87" stop-color="#6A64E8"/>
<stop offset="0.94" stop-color="#7C38FC"/>
</linearGradient>
</defs>
</svg>
