<svg width="57" height="54" viewBox="0 0 57 54" fill="none" xmlns="http://www.w3.org/2000/svg">
<path d="M45.0099 0H11.9901C5.36814 0 0 5.0856 0 11.359V42.641C0 48.9144 5.36814 54 11.9901 54H45.0099C51.6319 54 57 48.9144 57 42.641V11.359C57 5.0856 51.6319 0 45.0099 0Z" fill="#333333"/>
<path d="M44.5883 54H12.4117C9.1209 53.9969 5.96588 52.7573 3.63896 50.5528C1.31204 48.3484 0.00330232 45.3595 0 42.2419V11.7587C0.004949 8.64158 1.31423 5.65302 3.64079 3.4489C5.96735 1.24478 9.1214 0.00468854 12.4117 0H44.5883C47.8786 0.00468854 51.0327 1.24478 53.3593 3.4489C55.6858 5.65302 56.995 8.64158 57 11.7587V42.2419C56.9967 45.3595 55.688 48.3484 53.3611 50.5528C51.0342 52.7573 47.8791 53.9969 44.5883 54ZM12.4117 0.461045C9.25043 0.465733 6.2201 1.65723 3.98477 3.77492C1.74944 5.8926 0.491453 8.76381 0.486505 11.7587V42.2419C0.491453 45.2368 1.74944 48.1074 3.98477 50.2251C6.2201 52.3428 9.25043 53.5348 12.4117 53.5395H44.5883C47.7496 53.5348 50.78 52.3428 53.0153 50.2251C55.2506 48.1074 56.5085 45.2368 56.5135 42.2419V11.7587C56.5085 8.76381 55.2506 5.8926 53.0153 3.77492C50.78 1.65723 47.7496 0.465733 44.5883 0.461045H12.4117Z" fill="url(#paint0_linear_45_6)"/>
<path d="M44 21.083V37.9113C44 38.1991 43.8689 38.4753 43.6352 38.6793C43.4016 38.8833 43.0846 38.9985 42.7533 39H40.2533C40.0887 39 39.9258 38.972 39.7737 38.9173C39.6216 38.8626 39.4835 38.7821 39.3671 38.681C39.2507 38.5799 39.1584 38.4603 39.0954 38.3282C39.0325 38.1961 39 38.0543 39 37.9113V21.083C39.0018 20.7953 39.1346 20.5197 39.3694 20.3168C39.6043 20.1138 39.9221 20 40.2533 20H42.7467C42.911 19.9993 43.0738 20.0264 43.2258 20.0805C43.3778 20.1346 43.516 20.2144 43.6325 20.3151C43.749 20.4157 43.8414 20.5355 43.9045 20.6673C43.9675 20.7991 44 20.9403 44 21.083Z" fill="url(#paint1_linear_45_6)"/>
<path d="M30.0027 25H27.9973C27.4465 25 27 25.481 27 26.0743V37.9257C27 38.519 27.4465 39 27.9973 39H30.0027C30.5535 39 31 38.519 31 37.9257V26.0743C31 25.481 30.5535 25 30.0027 25Z" fill="url(#paint2_linear_45_6)"/>
<path d="M37 29.0459V37.9481C37 38.227 36.8944 38.4947 36.7063 38.6919C36.5183 38.8891 36.2633 39 35.9973 39H33.9974C33.7324 38.9985 33.4786 38.8868 33.2917 38.6897C33.1049 38.4927 33 38.226 33 37.9481V29.0459C33 28.7685 33.105 28.5026 33.2921 28.3064C33.4791 28.1103 33.7328 28 33.9974 28H35.9973C36.2623 28 36.5166 28.1104 36.7045 28.3064C36.8924 28.5025 36.9986 28.768 37 29.0459Z" fill="url(#paint3_linear_45_6)"/>
<path d="M25 29.0459V37.9481C25 38.227 24.8944 38.4947 24.7063 38.6919C24.5183 38.8891 24.2633 39 23.9973 39H21.9974C21.7324 38.9985 21.4786 38.8868 21.2917 38.6897C21.1049 38.4927 21 38.226 21 37.9481V29.0459C21 28.7685 21.105 28.5026 21.2921 28.3064C21.4791 28.1103 21.7328 28 21.9974 28H23.9973C24.2623 28 24.5166 28.1104 24.7045 28.3064C24.8924 28.5025 24.9986 28.768 25 29.0459Z" fill="url(#paint4_linear_45_6)"/>
<path d="M19 32.9977V37.9971C19 38.2631 18.8944 38.5185 18.7064 38.7066C18.5183 38.8948 18.2633 39 17.9974 39H15.9974C15.7324 38.9986 15.4787 38.8925 15.2918 38.7046C15.1049 38.5166 15 38.2622 15 37.9971V32.9977C15 32.7331 15.1051 32.4794 15.2921 32.2923C15.4792 32.1052 15.7328 32 15.9974 32H17.9974C18.2624 32 18.5166 32.1048 18.7045 32.2918C18.8924 32.4788 18.9986 32.7326 19 32.9977Z" fill="url(#paint5_linear_45_6)"/>
<path d="M42 14.3035C42 14.6493 41.865 14.9811 41.6248 15.2256C41.3845 15.4702 41.0587 15.6076 40.719 15.6076C40.6552 15.6139 40.5909 15.6139 40.5271 15.6076C39.0418 17.7368 37.5256 19.8531 36.0589 21.9948C36.1658 22.1868 36.2213 22.404 36.2198 22.6247C36.2198 22.9706 36.0848 23.3023 35.8446 23.5469C35.6044 23.7914 35.2785 23.9289 34.9387 23.9289C34.599 23.9289 34.2732 23.7914 34.033 23.5469C33.7927 23.3023 33.6577 22.9706 33.6577 22.6247V22.5743C32.5871 21.9822 31.4793 21.4595 30.3963 20.8863C30.2215 20.7913 30.0338 20.7232 29.8393 20.6845C29.6244 20.8343 29.3696 20.9136 29.1091 20.9115C28.9369 20.9138 28.7662 20.8794 28.6078 20.8106C28.4724 20.8737 28.3455 20.954 28.2303 21.0499C26.9925 22.0578 25.7548 23.0345 24.5171 24.055C24.5235 24.1262 24.5235 24.1978 24.5171 24.2691C24.5182 24.5156 24.4505 24.7576 24.322 24.9666C24.1935 25.1757 24.0094 25.3433 23.7911 25.4502C23.5728 25.557 23.3291 25.5985 23.0885 25.5701C22.8478 25.5417 22.62 25.4445 22.4315 25.2896C21.1938 25.7872 19.9561 26.2976 18.6812 26.8078C18.6255 26.8897 18.576 26.9774 18.5203 27.0656C18.4405 27.3368 18.2764 27.5744 18.0528 27.7428C17.8291 27.9112 17.5579 28.0016 17.2797 28C17.0016 27.9983 16.7314 27.9053 16.5097 27.7342C16.288 27.5632 16.1267 27.3236 16.0499 27.0514C15.9732 26.7792 15.9852 26.4887 16.084 26.224C16.1828 25.9593 16.3632 25.7346 16.5982 25.583C16.8331 25.4315 17.11 25.3617 17.3874 25.3837C17.6647 25.4057 17.9276 25.5186 18.1366 25.7054H18.1985C19.4362 25.2015 20.6739 24.6847 21.9612 24.1682C21.9801 23.8373 22.1228 23.5262 22.3598 23.299C22.5969 23.0717 22.9104 22.9453 23.2361 22.9459C23.408 22.9465 23.5781 22.9808 23.7373 23.0467C23.879 23.0059 24.0087 22.9304 24.1148 22.8265C25.3525 21.8123 26.5903 20.8295 27.828 19.8153C27.8182 19.7401 27.8182 19.6642 27.828 19.5889C27.819 19.2431 27.9453 18.9074 28.1791 18.6564C28.413 18.4053 28.7353 18.2596 29.075 18.2504C29.4148 18.2412 29.7442 18.3697 29.9908 18.6078C30.2375 18.8458 30.3811 19.1736 30.3901 19.5194C31.6712 20.1997 32.9832 20.8231 34.2642 21.4972L34.9511 21.3022L35.1058 21.264C36.5726 19.1223 38.1012 17.0247 39.5617 14.883C39.4736 14.7031 39.429 14.5045 39.4317 14.3035C39.4317 13.9577 39.5667 13.6259 39.8069 13.3814C40.0472 13.1369 40.373 13 40.7128 13C41.0525 13 41.3783 13.1369 41.6186 13.3814C41.8588 13.6259 41.9938 13.9577 41.9938 14.3035H42Z" fill="url(#paint6_linear_45_6)"/>
<defs>
<linearGradient id="paint0_linear_45_6" x1="4.97089" y1="0.0236362" x2="46.1533" y2="52.6307" gradientUnits="userSpaceOnUse">
<stop stop-color="#E6E6E6"/>
<stop offset="0.04" stop-color="#CECECE"/>
<stop offset="0.12" stop-color="#ACACAC"/>
<stop offset="0.2" stop-color="#8E8E8E"/>
<stop offset="0.29" stop-color="#767676"/>
<stop offset="0.39" stop-color="#646464"/>
<stop offset="0.51" stop-color="#575757"/>
<stop offset="0.67" stop-color="#4F4F4F"/>
<stop offset="0.99" stop-color="#4D4D4D"/>
</linearGradient>
<linearGradient id="paint1_linear_45_6" x1="41.5" y1="12.5971" x2="41.5" y2="38.4297" gradientUnits="userSpaceOnUse">
<stop offset="0.05" stop-color="#6079FF"/>
<stop offset="0.23" stop-color="#5498E8"/>
<stop offset="0.62" stop-color="#37E7AE"/>
<stop offset="0.64" stop-color="#35EBAB"/>
<stop offset="0.71" stop-color="#44C5BC"/>
<stop offset="0.87" stop-color="#6A64E8"/>
<stop offset="0.94" stop-color="#7C38FC"/>
</linearGradient>
<linearGradient id="paint2_linear_45_6" x1="29" y1="12.8114" x2="29" y2="38.44" gradientUnits="userSpaceOnUse">
<stop offset="0.05" stop-color="#6079FF"/>
<stop offset="0.23" stop-color="#5498E8"/>
<stop offset="0.62" stop-color="#37E7AE"/>
<stop offset="0.64" stop-color="#35EBAB"/>
<stop offset="0.71" stop-color="#44C5BC"/>
<stop offset="0.87" stop-color="#6A64E8"/>
<stop offset="0.94" stop-color="#7C38FC"/>
</linearGradient>
<linearGradient id="paint3_linear_45_6" x1="35" y1="13.5114" x2="35" y2="38.4603" gradientUnits="userSpaceOnUse">
<stop offset="0.05" stop-color="#6079FF"/>
<stop offset="0.23" stop-color="#5498E8"/>
<stop offset="0.62" stop-color="#37E7AE"/>
<stop offset="0.64" stop-color="#35EBAB"/>
<stop offset="0.71" stop-color="#44C5BC"/>
<stop offset="0.87" stop-color="#6A64E8"/>
<stop offset="0.94" stop-color="#7C38FC"/>
</linearGradient>
<linearGradient id="paint4_linear_45_6" x1="23" y1="13.5114" x2="23" y2="38.4603" gradientUnits="userSpaceOnUse">
<stop offset="0.05" stop-color="#6079FF"/>
<stop offset="0.23" stop-color="#5498E8"/>
<stop offset="0.62" stop-color="#37E7AE"/>
<stop offset="0.64" stop-color="#35EBAB"/>
<stop offset="0.71" stop-color="#44C5BC"/>
<stop offset="0.87" stop-color="#6A64E8"/>
<stop offset="0.94" stop-color="#7C38FC"/>
</linearGradient>
<linearGradient id="paint5_linear_45_6" x1="17" y1="14.6513" x2="17" y2="38.4481" gradientUnits="userSpaceOnUse">
<stop offset="0.05" stop-color="#6079FF"/>
<stop offset="0.23" stop-color="#5498E8"/>
<stop offset="0.62" stop-color="#37E7AE"/>
<stop offset="0.64" stop-color="#35EBAB"/>
<stop offset="0.71" stop-color="#44C5BC"/>
<stop offset="0.87" stop-color="#6A64E8"/>
<stop offset="0.94" stop-color="#7C38FC"/>
</linearGradient>
<linearGradient id="paint6_linear_45_6" x1="29.0224" y1="12.6535" x2="29.0224" y2="40.8987" gradientUnits="userSpaceOnUse">
<stop offset="0.05" stop-color="#6079FF"/>
<stop offset="0.23" stop-color="#5498E8"/>
<stop offset="0.62" stop-color="#37E7AE"/>
<stop offset="0.64" stop-color="#35EBAB"/>
<stop offset="0.71" stop-color="#44C5BC"/>
<stop offset="0.87" stop-color="#6A64E8"/>
<stop offset="0.94" stop-color="#7C38FC"/>
</linearGradient>
</defs>
</svg>
