<svg width="59" height="54" viewBox="0 0 59 54" fill="none" xmlns="http://www.w3.org/2000/svg">
<path d="M46.5892 0H12.4108C5.55649 0 0 5.0856 0 11.359V42.641C0 48.9144 5.55649 54 12.4108 54H46.5892C53.4435 54 59 48.9144 59 42.641V11.359C59 5.0856 53.4435 0 46.5892 0Z" fill="#333333"/>
<path d="M46.1535 54H12.8401C9.43577 53.9969 6.17184 52.7573 3.76459 50.5528C1.35734 48.3484 0.00341632 45.3595 0 42.2419V11.7587C0.00511984 8.64158 1.35956 5.65302 3.76644 3.4489C6.17332 1.24478 9.43629 0.00468854 12.8401 0H46.1535C49.5584 0.00312554 52.823 1.24288 55.2313 3.44716C57.6396 5.65145 58.9949 8.64056 59 11.7587V42.2419C58.9966 45.3605 57.6418 48.3499 55.2332 50.5546C52.8245 52.7592 49.5589 53.9984 46.1535 54ZM12.8659 0.461045C9.59556 0.465733 6.46062 1.65723 4.14813 3.77492C1.83563 5.8926 0.534214 8.76381 0.529095 11.7587V42.2419C0.534214 45.2368 1.83563 48.1074 4.14813 50.2251C6.46062 52.3428 9.59556 53.5348 12.8659 53.5395H46.1535C49.4238 53.5348 52.5588 52.3428 54.8713 50.2251C57.1837 48.1074 58.4852 45.2368 58.4903 42.2419V11.7587C58.4852 8.76381 57.1837 5.8926 54.8713 3.77492C52.5588 1.65723 49.4238 0.465733 46.1535 0.461045H12.8659Z" fill="url(#paint0_linear_45_5)"/>
<path d="M23.9995 13.8785C24.0033 13.9923 23.9841 14.1057 23.9429 14.2118C23.9018 14.3179 23.8397 14.4145 23.7603 14.4957C23.6708 14.5916 23.5624 14.6676 23.4419 14.7187C23.3214 14.7697 23.1916 14.7943 23.0609 14.7916H20.7911C20.2633 14.7763 19.738 14.8697 19.2473 15.0658C18.7566 15.262 18.3109 15.5569 17.9375 15.9325C17.5642 16.3082 17.271 16.7564 17.076 17.2501C16.881 17.7437 16.7883 18.2723 16.8036 18.8032V19.6735C16.8036 20.1303 16.8036 20.5995 16.8036 21.0562C16.8154 21.2803 16.7442 21.5007 16.6037 21.6751C16.4632 21.8496 16.2633 21.9652 16.0429 22H15.8834C15.6922 21.993 15.5079 21.9268 15.3562 21.8095C15.2045 21.6923 15.0928 21.5301 15.0368 21.3461L15 21.2719V18.1186C15 18.026 15.043 17.9328 15.0614 17.8341C15.1043 17.6057 15.1534 17.3959 15.2086 17.2169C15.5345 16.0111 16.2443 14.946 17.2293 14.1847C18.2143 13.4234 19.4202 13.0083 20.6623 13.0022H23.0486C23.169 12.9938 23.2898 13.0097 23.4036 13.0498C23.5175 13.0898 23.6221 13.1528 23.711 13.2348C23.8 13.3168 23.8714 13.4159 23.921 13.5265C23.9706 13.6371 23.9973 13.7572 23.9995 13.8785Z" fill="url(#paint1_linear_45_5)"/>
<path d="M23.3716 39.9633L23.2857 40H20.1824C20.1253 39.9777 20.0655 39.9636 20.0046 39.9572C18.8844 39.8181 17.8305 39.3472 16.9767 38.6048C16.1228 37.8624 15.5074 36.8821 15.2085 35.7874C15.1513 35.5776 15.1022 35.372 15.0614 35.1705C15.0614 35.0718 15.0245 34.9787 15 34.8862V31.7036C15.0465 31.5496 15.1294 31.4089 15.2415 31.294C15.3536 31.1791 15.4917 31.0931 15.644 31.0434C15.7309 31.0141 15.8221 30.9993 15.9138 31C16.0349 31.0016 16.1544 31.0275 16.2655 31.0759C16.3766 31.1244 16.477 31.1947 16.5608 31.2826C16.6447 31.3704 16.7104 31.4738 16.7541 31.5874C16.7978 31.7009 16.8186 31.8223 16.8154 31.944C16.8154 32.419 16.8154 32.8999 16.8154 33.3687C16.8154 33.6401 16.8154 33.9182 16.8154 34.1958C16.801 34.7276 16.8946 35.2564 17.0906 35.7506C17.2865 36.2448 17.5806 36.694 17.9549 37.0699C18.3292 37.4458 18.7758 37.7404 19.2675 37.9368C19.7591 38.1331 20.2854 38.2268 20.8141 38.2115H23.0833C23.3023 38.2018 23.5169 38.2747 23.6849 38.4163C23.8529 38.5578 23.9621 38.758 23.991 38.9765C24.0211 39.1882 23.9752 39.4035 23.8617 39.5843C23.7483 39.7652 23.5745 39.8995 23.3716 39.9633Z" fill="url(#paint2_linear_45_5)"/>
<path d="M44 31.7111V34.8016C43.9786 34.8643 43.9627 34.9281 43.9523 34.993C43.7947 36.1271 43.2652 37.1925 42.4323 38.0509C41.5995 38.9093 40.5016 39.5213 39.2807 39.808C39.0488 39.8637 38.8101 39.9012 38.5646 39.9445L38.244 40H34.7796C34.6119 39.9565 34.4579 39.878 34.3299 39.7706C34.202 39.6632 34.1037 39.5301 34.043 39.3819C33.9986 39.2499 33.9884 39.11 34.0132 38.9738C34.0381 38.8377 34.0973 38.7086 34.1862 38.5966C34.29 38.4767 34.4226 38.3799 34.5738 38.3135C34.7251 38.2471 34.8911 38.2128 35.0592 38.2133H37.6507C38.6836 38.2219 39.6856 37.8944 40.4742 37.2897C41.2627 36.6851 41.7855 35.8433 41.9472 34.9187C41.9852 34.6771 42.0035 34.4335 42.0018 34.1895V32.0449C41.9656 31.8081 42.031 31.5674 42.1845 31.373C42.3381 31.1787 42.568 31.0452 42.827 31H43.0384C43.2598 31.0102 43.4716 31.085 43.6424 31.2131C43.8132 31.3411 43.9338 31.5159 43.9863 31.7111H44Z" fill="url(#paint3_linear_45_5)"/>
<path d="M43.9727 18.1867V21.305C43.9234 21.4549 43.8361 21.5926 43.7177 21.7069C43.5993 21.8211 43.4531 21.9088 43.2906 21.9634C43.1929 21.9877 43.0919 21.9998 42.9905 22C42.8558 21.9968 42.7232 21.9699 42.6003 21.9201C42.4774 21.8703 42.3668 21.7992 42.2748 21.7105C42.1827 21.6217 42.1111 21.5174 42.0642 21.4035C42.0173 21.2896 41.996 21.1681 42.0014 21.0467C42.0014 20.6222 42.0014 20.1855 42.0014 19.7672V18.74C42.0147 17.808 41.6563 16.9029 40.9915 16.1893C40.3267 15.4758 39.3997 15.0016 38.3795 14.8528C38.1018 14.8157 37.8212 14.7992 37.5405 14.8035H35.1054C34.9658 14.8145 34.8252 14.7994 34.6924 14.7591C34.5596 14.7187 34.4374 14.6541 34.3337 14.5692C34.2299 14.4843 34.1467 14.3806 34.0894 14.2653C34.032 14.15 34.0017 14.0252 34.0004 13.8988C33.9969 13.7855 34.0187 13.6729 34.0643 13.5673C34.11 13.4616 34.1787 13.365 34.2664 13.2837C34.3784 13.1887 34.5103 13.1148 34.6544 13.0663C34.7984 13.0177 34.9517 12.9954 35.1054 13.0008H36.5514C37.1585 13.0008 37.8133 13.0011 38.4613 13.0627C39.7887 13.1987 41.0333 13.7127 42.0146 14.5302C42.9959 15.3476 43.6627 16.4257 43.9182 17.6082L44 18.0203C43.9727 18.0757 43.9727 18.1313 43.9727 18.1867Z" fill="url(#paint4_linear_45_5)"/>
<path d="M37.9989 35.0743C37.9839 35.3031 37.8813 35.5184 37.7115 35.6767C37.5417 35.835 37.3171 35.9248 37.0823 35.9287C36.8476 35.9327 36.6199 35.8501 36.4446 35.6976C36.2693 35.5452 36.1591 35.3344 36.136 35.1062C36.1325 34.4017 35.9853 33.7046 35.7031 33.0562C35.4209 32.4077 35.0093 31.8209 34.4922 31.3294C33.5207 30.3905 32.2105 29.861 30.8437 29.8559H30.1604H29.129C28.6555 29.8518 28.182 29.8732 27.7108 29.9192C26.3991 30.0377 25.1791 30.6274 24.2871 31.5741C23.3951 32.5207 22.8946 33.7566 22.8827 35.0429C22.8932 35.2566 22.8286 35.4676 22.6996 35.6404C22.5707 35.8133 22.3851 35.9376 22.1736 35.9933C22.0944 36.0022 22.0143 36.0022 21.9351 35.9933C21.8105 35.9942 21.6869 35.9706 21.5718 35.9238C21.4567 35.8771 21.3525 35.8085 21.2652 35.7216C21.178 35.6346 21.1096 35.5312 21.0641 35.4179C21.0186 35.3046 20.9969 35.1837 21.0004 35.062C20.9832 33.5043 21.5158 31.9881 22.5088 30.7688C23.1896 29.8998 24.0684 29.1977 25.0754 28.7181C26.0824 28.2384 27.19 27.9946 28.3103 28.0056H30.0766C30.9636 27.9758 31.8507 28.0647 32.7131 28.27C34.0812 28.6423 35.307 29.3996 36.2377 30.4473C37.1684 31.4949 37.763 32.7868 37.9474 34.162C37.9874 34.4646 38.0046 34.7692 37.9989 35.0743Z" fill="url(#paint5_linear_45_5)"/>
<path d="M32.6727 18.1751C31.8264 17.4237 30.6781 17.0009 29.4805 17H29.4497C28.8639 17.003 28.2846 17.1091 27.7452 17.3117C27.2057 17.5142 26.7168 17.8095 26.3068 18.1804C25.8857 18.5581 25.5533 19.0061 25.3291 19.4986C25.1048 19.9911 24.993 20.5183 25.0003 21.0494C25.0133 22.0974 25.4902 23.0991 26.3283 23.8382C27.1664 24.5773 28.2985 24.9943 29.4805 25C30.3746 25.0004 31.2488 24.7659 31.9922 24.3255C32.7357 23.885 33.315 23.2586 33.6569 22.526C33.9987 21.7934 34.0876 20.9874 33.9124 20.2099C33.7372 19.4324 33.3058 18.7184 32.6727 18.1586V18.1751ZM31.4402 22.6941C31.1907 22.9211 30.8928 23.1018 30.5637 23.2256C30.2347 23.3494 29.8811 23.4142 29.5237 23.4156C28.8103 23.4142 28.1262 23.1639 27.6189 22.7192C27.1116 22.2744 26.8218 21.6707 26.8121 21.0382C26.8121 20.4076 27.092 19.8024 27.5914 19.3534C28.0908 18.9044 28.7694 18.648 29.4805 18.6394C30.014 18.6361 30.5365 18.7733 30.9818 19.0338C31.4271 19.2942 31.7752 19.666 31.9818 20.1021C32.1885 20.5383 32.2443 21.0194 32.1424 21.4838C32.0405 21.9481 31.7854 22.3751 31.4094 22.7106L31.4402 22.6941Z" fill="url(#paint6_linear_45_5)"/>
<defs>
<linearGradient id="paint0_linear_45_5" x1="5.1425" y1="0.0236363" x2="45.9687" y2="53.9761" gradientUnits="userSpaceOnUse">
<stop stop-color="#E6E6E6"/>
<stop offset="0.04" stop-color="#CECECE"/>
<stop offset="0.12" stop-color="#ACACAC"/>
<stop offset="0.2" stop-color="#8E8E8E"/>
<stop offset="0.29" stop-color="#767676"/>
<stop offset="0.39" stop-color="#646464"/>
<stop offset="0.51" stop-color="#575757"/>
<stop offset="0.67" stop-color="#4F4F4F"/>
<stop offset="0.99" stop-color="#4D4D4D"/>
</linearGradient>
<linearGradient id="paint1_linear_45_5" x1="19.5028" y1="-0.402078" x2="19.5028" y2="46.7287" gradientUnits="userSpaceOnUse">
<stop offset="0.05" stop-color="#6079FF"/>
<stop offset="0.23" stop-color="#5498E8"/>
<stop offset="0.62" stop-color="#37E7AE"/>
<stop offset="0.64" stop-color="#35EBAB"/>
<stop offset="0.71" stop-color="#44C5BC"/>
<stop offset="0.87" stop-color="#6A64E8"/>
<stop offset="0.94" stop-color="#7C38FC"/>
</linearGradient>
<linearGradient id="paint2_linear_45_5" x1="19.4955" y1="-1.6935" x2="19.4955" y2="45.416" gradientUnits="userSpaceOnUse">
<stop offset="0.05" stop-color="#6079FF"/>
<stop offset="0.23" stop-color="#5498E8"/>
<stop offset="0.62" stop-color="#37E7AE"/>
<stop offset="0.64" stop-color="#35EBAB"/>
<stop offset="0.71" stop-color="#44C5BC"/>
<stop offset="0.87" stop-color="#6A64E8"/>
<stop offset="0.94" stop-color="#7C38FC"/>
</linearGradient>
<linearGradient id="paint3_linear_45_5" x1="38.9942" y1="-1.76099" x2="38.9942" y2="45.4457" gradientUnits="userSpaceOnUse">
<stop offset="0.05" stop-color="#6079FF"/>
<stop offset="0.23" stop-color="#5498E8"/>
<stop offset="0.62" stop-color="#37E7AE"/>
<stop offset="0.64" stop-color="#35EBAB"/>
<stop offset="0.71" stop-color="#44C5BC"/>
<stop offset="0.87" stop-color="#6A64E8"/>
<stop offset="0.94" stop-color="#7C38FC"/>
</linearGradient>
<linearGradient id="paint4_linear_45_5" x1="38.9661" y1="-0.353493" x2="38.9661" y2="46.6233" gradientUnits="userSpaceOnUse">
<stop offset="0.05" stop-color="#6079FF"/>
<stop offset="0.23" stop-color="#5498E8"/>
<stop offset="0.62" stop-color="#37E7AE"/>
<stop offset="0.64" stop-color="#35EBAB"/>
<stop offset="0.71" stop-color="#44C5BC"/>
<stop offset="0.87" stop-color="#6A64E8"/>
<stop offset="0.94" stop-color="#7C38FC"/>
</linearGradient>
<linearGradient id="paint5_linear_45_5" x1="29.5029" y1="-1.64757" x2="29.5029" y2="46.4232" gradientUnits="userSpaceOnUse">
<stop offset="0.05" stop-color="#6079FF"/>
<stop offset="0.23" stop-color="#5498E8"/>
<stop offset="0.62" stop-color="#37E7AE"/>
<stop offset="0.64" stop-color="#35EBAB"/>
<stop offset="0.71" stop-color="#44C5BC"/>
<stop offset="0.87" stop-color="#6A64E8"/>
<stop offset="0.94" stop-color="#7C38FC"/>
</linearGradient>
<linearGradient id="paint6_linear_45_5" x1="29.4928" y1="1.95629" x2="29.4928" y2="43.6885" gradientUnits="userSpaceOnUse">
<stop offset="0.05" stop-color="#6079FF"/>
<stop offset="0.23" stop-color="#5498E8"/>
<stop offset="0.62" stop-color="#37E7AE"/>
<stop offset="0.64" stop-color="#35EBAB"/>
<stop offset="0.71" stop-color="#44C5BC"/>
<stop offset="0.87" stop-color="#6A64E8"/>
<stop offset="0.94" stop-color="#7C38FC"/>
</linearGradient>
</defs>
</svg>
