<svg width="58" height="55" viewBox="0 0 58 55" fill="none" xmlns="http://www.w3.org/2000/svg">
<path d="M45.7996 0H12.2004C5.46231 0 0 5.0856 0 11.359V42.641C0 48.9144 5.46231 54 12.2004 54H45.7996C52.5377 54 58 48.9144 58 42.641V11.359C58 5.0856 52.5377 0 45.7996 0Z" fill="#333333"/>
<path d="M45.3712 55H12.6225C9.27633 54.9952 6.06869 53.7322 3.7026 51.4872C1.33652 49.2423 0.00503307 46.1984 0 43.0236V11.9758C0.00335842 8.80053 1.33429 5.75628 3.70074 3.511C6.06719 1.26572 9.27582 0.00318646 12.6225 0H45.3712C48.7189 0.00159295 51.9292 1.26378 54.297 3.50924C56.6648 5.75469 57.9966 8.79949 58 11.9758V43.0236C57.995 46.1994 56.6626 49.2439 54.2952 51.489C51.9277 53.7341 48.7184 54.9968 45.3712 55ZM12.6479 0.468995C9.43293 0.47377 6.35112 1.68792 4.07782 3.84482C1.80452 6.00173 0.52516 8.92552 0.520127 11.9758V43.0236C0.52516 46.0739 1.80452 48.9983 4.07782 51.1552C6.35112 53.3121 9.43293 54.5256 12.6479 54.5304H45.3712C48.5861 54.5256 51.6679 53.3121 53.9412 51.1552C56.2145 48.9983 57.4939 46.0739 57.4989 43.0236V11.9758C57.4939 8.92552 56.2145 6.00173 53.9412 3.84482C51.6679 1.68792 48.5861 0.47377 45.3712 0.468995H12.6479Z" fill="url(#paint0_linear_45_7)"/>
<path d="M33.3038 23.7525L27.8613 28.3529L25.7686 26.5716L24.8442 27.353L27.8761 29.9096L34.0951 24.7085C34.7243 25.6081 35.037 26.6412 34.9965 27.6857C34.956 28.7303 34.5639 29.7434 33.8662 30.6062C33.1686 31.469 32.1943 32.1454 31.0578 32.5566C29.9212 32.9679 28.6694 33.0967 27.4494 32.9278C26.2293 32.7588 25.0916 32.2993 24.1696 31.6031C23.2476 30.9068 22.5796 30.0029 22.244 28.997C21.9085 27.9911 21.9192 26.9248 22.275 25.9239C22.6307 24.923 23.3168 24.0288 24.2527 23.3459C25.5309 22.4115 27.1876 21.932 28.8751 22.0078C30.5626 22.0835 32.1498 22.7089 33.3038 23.7525Z" fill="url(#paint1_linear_45_7)"/>
<path d="M12.0759 16.6249C12.6898 16.0225 13.6824 16.0284 14.5314 16C24.1576 16 33.7837 16 43.4098 16C44.2588 16.0341 45.2514 15.9998 45.8653 16.6249C46.6686 17.2671 46.551 18.2959 46.5967 19.154C46.5576 24.8371 46.5967 30.5202 46.5967 36.2032H49V38.0164C48.8105 38.3211 48.5262 38.5731 48.1798 38.744C47.8333 38.9148 47.4386 38.9977 47.0408 38.9826C35.1551 38.9826 23.2694 38.9826 11.3837 38.9826C10.9311 39.0322 10.4714 38.9752 10.0523 38.8183C9.63323 38.6615 9.26992 38.4102 9 38.0902V36.186H11.4033C11.4033 30.3779 11.4033 24.5758 11.4033 18.7677C11.3902 18.046 11.3706 17.1705 12.0759 16.6249ZM12.9706 18.4325C12.9706 24.3543 12.9706 30.2813 12.9706 36.2088C16.5755 36.2088 20.1543 36.2088 23.7723 36.2088C24.9151 36.0951 25.8294 36.8627 26.9396 36.9025C28.2914 36.9537 29.6563 36.9537 31.0147 36.9025C32.1184 36.8627 33.0196 36.1065 34.1494 36.2088C37.7608 36.2088 41.3722 36.2088 44.9837 36.2088C44.9837 30.4082 44.9837 24.6059 44.9837 18.8016C44.9837 18.2901 45.0555 17.3978 44.1935 17.4319C39.9551 17.3523 35.7037 17.4321 31.4718 17.398C31.3543 17.5685 31.1061 17.9036 30.982 18.0684C29.6367 18.1063 28.2958 18.1063 26.9592 18.0684C26.8416 17.8979 26.5935 17.563 26.4694 17.3925C22.231 17.4266 17.9796 17.3468 13.7674 17.4263C13.1274 17.3752 12.9053 17.9835 12.9706 18.4325Z" fill="url(#paint2_linear_45_7)"/>
<defs>
<linearGradient id="paint0_linear_45_7" x1="5.05534" y1="0.024074" x2="47.0155" y2="53.5441" gradientUnits="userSpaceOnUse">
<stop stop-color="#E6E6E6"/>
<stop offset="0.04" stop-color="#CECECE"/>
<stop offset="0.12" stop-color="#ACACAC"/>
<stop offset="0.2" stop-color="#8E8E8E"/>
<stop offset="0.29" stop-color="#767676"/>
<stop offset="0.39" stop-color="#646464"/>
<stop offset="0.51" stop-color="#575757"/>
<stop offset="0.67" stop-color="#4F4F4F"/>
<stop offset="0.99" stop-color="#4D4D4D"/>
</linearGradient>
<linearGradient id="paint1_linear_45_7" x1="28.5046" y1="17.1575" x2="28.5046" y2="36.5607" gradientUnits="userSpaceOnUse">
<stop offset="0.05" stop-color="#6079FF"/>
<stop offset="0.23" stop-color="#5498E8"/>
<stop offset="0.62" stop-color="#37E7AE"/>
<stop offset="0.64" stop-color="#35EBAB"/>
<stop offset="0.71" stop-color="#44C5BC"/>
<stop offset="0.87" stop-color="#6A64E8"/>
<stop offset="0.94" stop-color="#7C38FC"/>
</linearGradient>
<linearGradient id="paint2_linear_45_7" x1="28.9706" y1="15.4544" x2="28.9706" y2="38.6757" gradientUnits="userSpaceOnUse">
<stop offset="0.05" stop-color="#6079FF"/>
<stop offset="0.23" stop-color="#5498E8"/>
<stop offset="0.62" stop-color="#37E7AE"/>
<stop offset="0.64" stop-color="#35EBAB"/>
<stop offset="0.71" stop-color="#44C5BC"/>
<stop offset="0.87" stop-color="#6A64E8"/>
<stop offset="0.94" stop-color="#7C38FC"/>
</linearGradient>
</defs>
</svg>
