<svg width="60" height="44" viewBox="0 0 60 44" fill="none" xmlns="http://www.w3.org/2000/svg">
<g clip-path="url(#clip0_0_1435)">
<path d="M8.88465 8.83144H4.60277V16.2653C4.54085 17.013 4.76388 17.7565 5.22718 18.3467C5.43208 18.5648 5.68158 18.7361 5.95868 18.849C6.23577 18.9619 6.53397 19.0137 6.83291 19.0009C7.29864 19.019 7.76209 18.9273 8.18587 18.7333C8.55947 18.5394 8.87691 18.2527 9.10766 17.9007L9.28606 17.9899C9.15647 18.3018 8.99713 18.6006 8.81029 18.882C8.6002 19.2049 8.33321 19.487 8.0223 19.7146C7.67912 19.9793 7.29146 20.1807 6.87751 20.3093C6.37153 20.4612 5.84451 20.5315 5.31638 20.5174C4.92776 20.5186 4.54141 20.4584 4.17159 20.339C3.82294 20.2235 3.49988 20.0417 3.22009 19.8038C2.95282 19.578 2.72208 19.3122 2.53614 19.0158C2.36682 18.7486 2.27425 18.44 2.26854 18.1237C2.26854 16.3693 2.26854 14.6893 2.26854 13.0985C2.26854 11.5076 2.26854 10.1249 2.26854 8.86118H0.216797V8.56383L4.27568 4.69824H4.49868V7.1514H9.70235L8.88465 8.83144Z" fill="black"/>
<path d="M17.701 20.4281V20.1308C18.1268 20.1007 18.5495 20.0361 18.9648 19.9375C19.1081 19.9261 19.2412 19.859 19.3357 19.7506C19.4302 19.6422 19.4785 19.5012 19.4703 19.3577V12.2658C19.469 11.7679 19.4292 11.2708 19.3513 10.779C19.2949 10.3558 19.1587 9.94717 18.9499 9.57475C18.7656 9.23884 18.4863 8.96474 18.147 8.78677C17.7474 8.58265 17.3018 8.48534 16.8535 8.50428C16.2586 8.4862 15.6678 8.60844 15.1289 8.86111C14.6863 9.09747 14.3045 9.43338 14.0138 9.84237C13.9486 9.95613 13.8939 10.0756 13.8503 10.1992C13.7945 10.3569 13.7643 10.5226 13.7611 10.6898V19.3279C13.7558 19.4004 13.7649 19.4731 13.7879 19.542C13.8108 19.6109 13.8472 19.6746 13.8949 19.7293C14.0005 19.8273 14.1279 19.8986 14.2666 19.9375C14.4307 19.9908 14.6003 20.0257 14.7721 20.0416L15.3371 20.1159V20.3984H9.73193V20.1456C10.1251 20.1204 10.5142 20.0506 10.8916 19.9375C11.049 19.9087 11.1905 19.8232 11.2891 19.6972C11.3877 19.5711 11.4368 19.4133 11.4269 19.2536V3.34522C11.4478 3.2322 11.4478 3.11628 11.4269 3.00326C11.3691 2.90108 11.2875 2.81437 11.189 2.75051C11.0029 2.59651 10.7981 2.46663 10.5794 2.36395C10.3239 2.24488 10.0757 2.11084 9.83602 1.96253V1.70978L13.5975 0H13.8354L13.7462 9.76803C13.9085 9.44365 14.1081 9.13929 14.3409 8.86111C14.6355 8.49641 14.981 8.17595 15.3668 7.90958C15.8032 7.59351 16.2778 7.33376 16.7792 7.13646C17.336 6.91036 17.9327 6.7991 18.5336 6.80937C19.0729 6.78853 19.6091 6.90087 20.0947 7.13646C20.5027 7.3421 20.8509 7.64931 21.1057 8.02852C21.3699 8.44606 21.5516 8.91038 21.6409 9.39634C21.7463 9.96504 21.7961 10.5426 21.7896 11.121V19.4171C21.7896 19.4843 21.8058 19.5505 21.8368 19.61C21.8679 19.6696 21.9129 19.7207 21.968 19.7591C22.0903 19.8574 22.2323 19.9283 22.3843 19.9672L22.9196 20.0862H23.4548V20.3389L17.701 20.4281Z" fill="black"/>
<path d="M35.4534 17.5437C35.194 18.1026 34.8307 18.6072 34.3829 19.0304C33.9134 19.4772 33.3701 19.8393 32.7772 20.1009C32.1154 20.3853 31.4011 20.5272 30.6809 20.5172C29.7802 20.5296 28.8876 20.347 28.0642 19.982C27.2846 19.6488 26.5926 19.14 26.0421 18.4952C25.476 17.8246 25.0421 17.0527 24.7635 16.2205C24.4627 15.3246 24.3121 14.3852 24.3175 13.4402C24.3182 12.6389 24.4591 11.8439 24.7338 11.0911C25.0107 10.3278 25.4182 9.61847 25.9381 8.99479C26.4527 8.37472 27.0906 7.86842 27.8114 7.50803C28.5743 7.11597 29.4217 6.91688 30.2794 6.92819C30.9784 6.92085 31.6747 7.01602 32.346 7.21068C32.9628 7.38226 33.5391 7.67545 34.0409 8.073C34.529 8.48028 34.9244 8.9872 35.2006 9.55976C35.5278 10.196 35.7106 10.8965 35.7359 11.6115H26.7112C26.7112 11.7602 26.7112 11.9386 26.7112 12.1319C26.6964 12.3348 26.6964 12.5385 26.7112 12.7414C26.7037 13.513 26.8192 14.2809 27.0532 15.0162C27.2647 15.6328 27.5761 16.2104 27.975 16.726C28.4085 17.2857 28.9691 17.7342 29.6104 18.0343C30.3211 18.3685 31.1001 18.5314 31.8851 18.5101C32.761 18.5266 33.6213 18.2779 34.3532 17.7964C35.0015 17.3873 35.4896 16.768 35.7359 16.0421H35.9589C35.8749 16.5672 35.7041 17.0747 35.4534 17.5437ZM32.2866 8.05813C32.0319 7.80924 31.7292 7.61493 31.3968 7.48711C31.0645 7.35929 30.7096 7.30064 30.3538 7.31475C29.8215 7.30399 29.2999 7.46566 28.867 7.77565C28.454 8.08725 28.084 8.4522 27.7668 8.86098C27.4847 9.25042 27.2455 9.66913 27.0532 10.1099C26.9246 10.4286 26.8202 10.7567 26.7409 11.0911H28.8967H29.9226H31.112C31.3744 11.1065 31.6375 11.1065 31.9 11.0911C32.1189 11.0815 32.3349 11.0363 32.5393 10.9573C32.6596 10.8294 32.7599 10.6841 32.8367 10.5262C32.9194 10.3447 32.9552 10.1453 32.9407 9.94632C32.9658 9.60365 32.9206 9.25948 32.8082 8.93483C32.6957 8.61018 32.5182 8.31187 32.2866 8.05813Z" fill="black"/>
<path d="M14.6683 25.5574C14.5795 25.6596 14.4699 25.7416 14.3468 25.798C14.2237 25.8544 14.0901 25.8839 13.9547 25.8845C13.7792 25.8631 13.6083 25.8129 13.4492 25.7359L12.7058 25.3939C12.4194 25.2678 12.1414 25.1238 11.8732 24.9627L11.115 24.5316L10.996 24.6357C11.2572 25.0279 11.4955 25.435 11.7097 25.8548C11.9356 26.3164 12.038 26.8286 12.007 27.3416C12.0591 27.9769 11.9503 28.6151 11.6904 29.1973C11.4306 29.7794 11.0281 30.2866 10.5202 30.6719C9.24587 31.485 7.74747 31.8752 6.23838 31.787C5.97118 31.808 5.70272 31.808 5.43552 31.787C5.11362 31.7695 4.79103 31.7695 4.46913 31.787C3.94429 31.7834 3.42904 31.9277 2.98237 32.2033C2.81924 32.2992 2.68401 32.4361 2.59012 32.6004C2.49624 32.7647 2.44693 32.9507 2.44711 33.1399C2.44235 33.2764 2.46489 33.4125 2.5134 33.5401C2.56191 33.6678 2.63541 33.7844 2.7296 33.8833C2.92697 34.0851 3.16523 34.2422 3.42838 34.3442C3.72461 34.4584 4.0345 34.5334 4.35017 34.5672C4.68185 34.589 5.01463 34.589 5.34632 34.5672H9.80661C10.4109 34.5576 11.0114 34.6636 11.5759 34.8794C12.0781 35.0703 12.5379 35.3583 12.9288 35.7269C13.2961 36.0673 13.5852 36.4832 13.7762 36.946C13.9781 37.4154 14.0794 37.9219 14.0736 38.4328C14.0744 39.1674 13.8849 39.8896 13.5235 40.5291C13.1567 41.2119 12.6501 41.8097 12.0368 42.2835C11.3371 42.8129 10.5529 43.2201 9.71741 43.4878C8.75461 43.785 7.75142 43.9304 6.74388 43.919C5.10346 44.002 3.46697 43.691 1.97134 43.012C1.47484 42.7995 1.05056 42.4477 0.749774 41.9992C0.448983 41.5506 0.284586 41.0245 0.276448 40.4845C0.272878 40.1026 0.387091 39.7288 0.603538 39.4141C0.828672 39.0767 1.09879 38.7715 1.4064 38.5072C1.74854 38.203 2.11667 37.9293 2.50659 37.6894L3.71087 36.946C2.90935 36.8913 2.14044 36.6075 1.49561 36.1283C1.2416 35.9207 1.03946 35.6567 0.905265 35.3574C0.771065 35.058 0.708463 34.7315 0.722459 34.4037C0.726796 34.0516 0.813367 33.7054 0.975229 33.3927C1.15197 33.0639 1.38903 32.7714 1.67401 32.5304C1.991 32.2566 2.3467 32.0311 2.7296 31.8613C3.14697 31.682 3.58735 31.5619 4.03796 31.5045V31.4302C3.27754 31.1509 2.6123 30.6611 2.12002 30.0177C1.63635 29.3266 1.39104 28.4968 1.42124 27.6538C1.41626 27.0676 1.55945 26.4897 1.83753 25.9737C2.11152 25.4419 2.49693 24.9754 2.96749 24.6059C3.48957 24.2002 4.07818 23.8883 4.70702 23.6841C5.41227 23.4528 6.15036 23.3373 6.89256 23.3422C7.52801 23.336 8.16189 23.4059 8.78074 23.5503C9.38759 23.6955 9.97249 23.9205 10.5202 24.2194C10.7097 24.2827 10.9035 24.3324 11.1001 24.368H11.6651C11.8726 24.3676 12.0787 24.3325 12.2746 24.264L12.7653 24.0409C12.9202 23.9489 13.0847 23.8741 13.2559 23.8179C13.4396 23.7424 13.6372 23.707 13.8357 23.7139C13.9844 23.7074 14.1326 23.7348 14.2691 23.794C14.4056 23.8533 14.5269 23.9428 14.6237 24.0558C14.832 24.2763 14.9443 24.5704 14.9359 24.8735C14.9342 25.1267 14.8389 25.3703 14.6683 25.5574ZM11.903 38.1503C11.7234 37.7983 11.4372 37.5121 11.0852 37.3326C10.6165 37.1087 10.1142 36.963 9.59844 36.9014C8.74506 36.799 7.88577 36.7543 7.02637 36.7676C6.62523 36.7461 6.22323 36.7461 5.82209 36.7676C5.4058 36.7676 5.07868 36.7676 4.81106 36.8866C4.09072 37.0067 3.43981 37.3878 2.98237 37.957C2.64763 38.4194 2.47041 38.9771 2.47687 39.5479C2.46395 40.1127 2.63625 40.6662 2.96749 41.1239C3.29438 41.5821 3.70873 41.9712 4.18664 42.2687C4.66911 42.5749 5.19554 42.8055 5.74773 42.9526C6.2299 43.1004 6.73027 43.1804 7.23449 43.1905C7.7316 43.1973 8.22853 43.1675 8.72125 43.1012C9.08928 43.0465 9.45227 42.962 9.80661 42.8485C10.4754 42.5733 11.0673 42.1396 11.5313 41.5848C12.0295 41.0076 12.2946 40.2654 12.2746 39.5033C12.2678 39.028 12.1399 38.5624 11.903 38.1503ZM9.56872 25.9291C9.44517 25.5206 9.2487 25.1378 8.98886 24.7992C8.73451 24.4629 8.40308 24.1927 8.02247 24.0112C7.61425 23.8001 7.15857 23.6977 6.69928 23.7139C6.25137 23.7055 5.80953 23.8186 5.42064 24.0409C5.04808 24.255 4.72806 24.5496 4.48397 24.9033C4.22592 25.2863 4.03024 25.7078 3.90415 26.1522C3.76911 26.636 3.70402 27.1366 3.71087 27.6389C3.65944 28.6203 3.96582 29.5871 4.57317 30.3597C4.97171 30.8622 5.5358 31.2069 6.16484 31.3321C6.79387 31.4574 7.44699 31.3551 8.00764 31.0436C8.39124 30.8143 8.72086 30.505 8.97402 30.1367C9.2484 29.7502 9.44992 29.3169 9.56872 28.8581C9.69305 28.3721 9.75796 27.8729 9.76201 27.3713C9.76584 26.8839 9.70076 26.3984 9.56872 25.9291Z" fill="black"/>
<path d="M27.5289 35.1322C27.3748 35.4658 27.1746 35.776 26.9342 36.054C26.6907 36.3169 26.3977 36.5291 26.0719 36.6784C25.7274 36.8186 25.3585 36.8893 24.9866 36.8866C24.3743 36.8932 23.7775 36.6943 23.2917 36.3216C23.0174 36.0758 22.8055 35.7683 22.6737 35.4245C22.5418 35.0806 22.4937 34.7103 22.5334 34.3442C22.3485 34.6299 22.1449 34.9031 21.9238 35.1619C21.6582 35.4812 21.3535 35.7659 21.0169 36.0094C20.6689 36.2777 20.2831 36.4931 19.8721 36.6487C19.4229 36.8059 18.9504 36.8863 18.4745 36.8866C18.1626 36.8848 17.8523 36.8397 17.5527 36.7527C17.2433 36.6735 16.9576 36.5205 16.7202 36.3067C16.4538 36.078 16.2407 35.7938 16.0957 35.4741C15.9243 35.086 15.843 34.6641 15.8579 34.2401C15.8787 33.6823 16.1066 33.1522 16.4972 32.7533C16.9225 32.2392 17.4239 31.793 17.9839 31.4301C18.5935 31.0287 19.1436 30.6867 19.6194 30.4043L20.8831 29.6906L21.8197 29.1851L22.5037 28.8134V25.8548C22.4886 25.7613 22.4584 25.671 22.4144 25.5871C22.3299 25.4181 22.2138 25.2667 22.0725 25.1411C21.8767 24.974 21.656 24.8386 21.4183 24.7397C21.0678 24.6038 20.694 24.5381 20.3181 24.5464C20.0137 24.5501 19.712 24.6054 19.4261 24.71C19.1531 24.8056 18.8933 24.9355 18.6529 25.0965C18.4551 25.2376 18.2754 25.4024 18.1177 25.5871C18.0083 25.6942 17.9399 25.8363 17.9244 25.9886V27.2523C17.919 27.3963 17.8782 27.5368 17.8056 27.6612C17.733 27.7857 17.6308 27.8904 17.5081 27.966C17.2549 28.156 16.9476 28.2601 16.631 28.2633C16.4884 28.2653 16.3469 28.2392 16.2145 28.1864C16.0821 28.1337 15.9613 28.0554 15.8591 27.956C15.757 27.8566 15.6754 27.738 15.619 27.6071C15.5627 27.4761 15.5327 27.3354 15.5308 27.1929C15.5301 26.9787 15.5866 26.7683 15.6943 26.5833C15.8087 26.3918 15.9545 26.221 16.1255 26.0778C16.2934 25.924 16.4779 25.7894 16.6756 25.6764L17.1959 25.3641L18.6827 24.5464C19.1882 24.2937 19.664 24.0706 20.1695 23.8774C20.5853 23.7006 21.0125 23.5516 21.4481 23.4313C21.7502 23.3276 22.0656 23.2676 22.3847 23.2529C22.8721 23.2542 23.35 23.3878 23.7674 23.6395C24.1618 23.852 24.483 24.1784 24.6892 24.5762C24.7808 24.7981 24.8312 25.0349 24.8379 25.2749C24.8379 25.602 24.8379 25.9291 24.8379 26.2413C24.8379 26.9104 24.8379 27.5348 24.8379 28.07C24.8379 28.6053 24.8379 29.1405 24.8379 29.646C24.8379 30.1515 24.8379 30.6719 24.8379 31.1328C24.8379 31.5937 24.8379 32.2627 24.8379 32.902C24.7674 33.4915 24.9213 34.086 25.269 34.5672C25.3992 34.6992 25.5543 34.8039 25.7253 34.8754C25.8963 34.9469 26.0799 34.9836 26.2652 34.9835C26.6086 35.0089 26.9502 34.9143 27.2316 34.7159C27.4395 34.5318 27.585 34.2876 27.6479 34.0171H27.8263C27.797 34.404 27.6961 34.7821 27.5289 35.1322ZM22.5334 29.1851C22.1305 29.4716 21.7082 29.7299 21.2697 29.9582C20.7571 30.2264 20.2607 30.5243 19.7829 30.8503C19.325 31.1498 18.9056 31.5043 18.534 31.9059C18.2024 32.2601 18.0212 32.7291 18.0285 33.2142C18.0292 33.7023 18.2091 34.1732 18.534 34.5375C18.6962 34.7281 18.8996 34.8794 19.1288 34.9799C19.358 35.0803 19.6072 35.1273 19.8573 35.1173C20.2941 35.1264 20.7299 35.0713 21.1507 34.9538C21.5484 34.8294 21.9069 34.604 22.1914 34.2996C22.3009 34.2007 22.3871 34.0787 22.4436 33.9424C22.5002 33.8061 22.5258 33.659 22.5185 33.5116L22.5334 29.1851Z" fill="black"/>
<path d="M36.2708 25.2602H32.0038V32.694C31.9377 33.4398 32.1554 34.1831 32.6134 34.7754C32.8214 34.9885 33.0717 35.1555 33.3484 35.2656C33.625 35.3757 33.9216 35.4266 34.2191 35.4147C34.6848 35.4328 35.1483 35.3411 35.5721 35.1471C35.9483 34.9639 36.2671 34.6811 36.4938 34.3294L36.6723 34.4037C36.5422 34.7127 36.3881 35.011 36.2114 35.2958C35.9972 35.6198 35.7309 35.9061 35.4234 36.1433C35.0741 36.4035 34.6815 36.5998 34.2637 36.7231C33.7586 36.8806 33.2316 36.9559 32.7026 36.9461C32.3173 36.951 31.9344 36.8855 31.5727 36.7528C31.2181 36.6405 30.8896 36.4585 30.6063 36.2176C30.3321 35.9989 30.1003 35.7319 29.9224 35.4296C29.7513 35.1687 29.6585 34.8644 29.6548 34.5524C29.6548 32.7832 29.6548 31.1031 29.6548 29.5272C29.6548 27.9512 29.6548 26.5536 29.6548 25.2899H27.603V24.9777L31.6619 21.127H31.8849V23.5652H37.0886L36.2708 25.2602Z" fill="black"/>
<path d="M48.1054 33.9728C47.8291 34.4995 47.4674 34.9768 47.0349 35.3852C46.5613 35.8338 46.0128 36.1961 45.4143 36.4557C44.7536 36.7452 44.0394 36.8921 43.318 36.8868C42.4174 36.8992 41.5247 36.7166 40.7013 36.3516C39.9246 36.0134 39.2336 35.5054 38.6793 34.8648C38.1101 34.1963 37.6759 33.4238 37.4007 32.5901C37.101 31.6991 36.9503 30.7648 36.9547 29.8247C36.9541 29.0233 37.0951 28.2281 37.371 27.4756C37.6443 26.7062 38.052 25.9913 38.5752 25.3644C39.0992 24.7479 39.7412 24.2424 40.4634 23.8777C41.221 23.4857 42.0636 23.2865 42.9166 23.2978C43.6151 23.298 44.3103 23.393 44.9832 23.5803C45.6 23.7519 46.1762 24.0451 46.6781 24.4426C47.1662 24.8499 47.5616 25.3568 47.8378 25.9294C48.165 26.5656 48.3477 27.2662 48.373 27.9811H39.3484C39.3484 28.1298 39.3484 28.3082 39.3484 28.5015C39.3484 28.6948 39.3484 28.9029 39.3484 29.1111C39.341 29.8778 39.4564 30.6407 39.6903 31.3709C39.8979 32.0647 40.2305 32.7146 40.6716 33.2889C41.1121 33.8418 41.6709 34.2888 42.307 34.5972C43.0198 34.9248 43.7974 35.0874 44.5817 35.073C45.4576 35.0895 46.3179 34.8408 47.0498 34.3593C47.6959 33.9412 48.1828 33.3181 48.4325 32.5901H48.6703C48.5452 33.0744 48.3552 33.5395 48.1054 33.9728ZM44.8791 24.4872C44.6277 24.2339 44.3255 24.0366 43.9924 23.9085C43.6592 23.7804 43.3027 23.7243 42.9463 23.7438C42.4131 23.7264 41.8895 23.8887 41.4596 24.2047C41.0442 24.5086 40.6781 24.8747 40.3742 25.2901C40.0822 25.6757 39.8376 26.095 39.6457 26.539C39.5155 26.8521 39.4111 27.1753 39.3335 27.5054H41.4893H42.5152H43.7046H44.4925C44.7158 27.4821 44.9354 27.4322 45.1467 27.3567C45.2575 27.2299 45.3524 27.0901 45.4292 26.9404C45.512 26.7536 45.5478 26.5494 45.5333 26.3457C45.5577 26.0076 45.5122 25.6681 45.3997 25.3483C45.2871 25.0286 45.1099 24.7355 44.8791 24.4872Z" fill="black"/>
<path d="M58.6171 34.6414C58.3364 35.1655 57.9335 35.6142 57.4426 35.9497C56.9349 36.2987 56.3644 36.5461 55.7626 36.6782C55.1164 36.8423 54.4518 36.9222 53.7852 36.9161C53.0007 36.9233 52.2179 36.8435 51.451 36.6782C50.7503 36.5416 50.0671 36.3272 49.4141 36.0389V32.322H49.652C49.8006 32.768 49.979 33.2438 50.202 33.8088C50.4248 34.2927 50.699 34.7513 51.0198 35.1766C51.3264 35.5979 51.716 35.9521 52.1646 36.2173C52.6495 36.5056 53.2064 36.65 53.7703 36.6336C54.1605 36.6517 54.5503 36.5927 54.9177 36.46C55.285 36.3274 55.6227 36.1237 55.9113 35.8605C56.2002 35.5397 56.4204 35.1631 56.5584 34.7541C56.6965 34.345 56.7495 33.912 56.7141 33.4817C56.7273 33.2096 56.6853 32.9376 56.5908 32.6821C56.4963 32.4267 56.3511 32.1929 56.164 31.9949C55.7615 31.588 55.2415 31.3176 54.6772 31.2218C54.1717 31.1326 53.6811 31.0285 53.1905 30.9096C52.7624 30.8162 52.3404 30.6971 51.9267 30.5528C51.2339 30.3221 50.6307 29.8801 50.202 29.289C49.7586 28.6535 49.5295 27.8931 49.5479 27.1183C49.5364 26.57 49.6643 26.0278 49.9196 25.5424C50.1526 25.0727 50.4879 24.6612 50.9008 24.3381C51.3419 23.9835 51.8465 23.7161 52.3876 23.5501C52.9546 23.3688 53.5467 23.2785 54.142 23.2825C54.8422 23.2733 55.5411 23.3482 56.2235 23.5055C56.8055 23.6364 57.377 23.8104 57.9332 24.0259L58.2752 27.5049H58.0522C57.7845 26.9399 57.5318 26.4196 57.2642 25.9438C57.0243 25.4975 56.7296 25.083 56.387 24.7098C56.0798 24.3753 55.7114 24.1027 55.3017 23.9069C54.8681 23.7095 54.3953 23.6129 53.919 23.6244C53.595 23.6268 53.2736 23.682 52.9674 23.788C52.6676 23.901 52.3905 24.0672 52.1497 24.2786C51.9132 24.5178 51.7174 24.794 51.5699 25.0963C51.415 25.4577 51.339 25.848 51.3469 26.2411C51.3209 26.5184 51.3613 26.7978 51.4647 27.0563C51.5681 27.3149 51.7316 27.5451 51.9416 27.7279C52.3836 28.0578 52.8902 28.2908 53.4283 28.4118L54.7813 28.7092C55.2719 28.8132 55.7031 28.9025 56.0451 29.0065C56.8824 29.1987 57.6372 29.6516 58.2008 30.3C58.7972 30.9581 59.1167 31.8208 59.0929 32.7086C59.0997 33.3826 58.9361 34.0475 58.6171 34.6414Z" fill="black"/>
<path opacity="0.4" d="M53.5024 6.94336H39.9728C39.1435 6.94336 38.4712 7.61566 38.4712 8.44499V18.0792C38.4712 18.9085 39.1435 19.5808 39.9728 19.5808H53.5024C54.3317 19.5808 55.004 18.9085 55.004 18.0792V8.44499C55.004 7.61566 54.3317 6.94336 53.5024 6.94336Z" fill="url(#paint0_linear_0_1435)"/>
<path opacity="0.4" d="M55.4859 6.90991L42.1338 4.72581C41.3154 4.59193 40.5433 5.14688 40.4094 5.96533L38.8542 15.4732C38.7203 16.2916 39.2753 17.0637 40.0937 17.1975L53.4458 19.3816C54.2643 19.5155 55.0363 18.9606 55.1701 18.1421L56.7254 8.63425C56.8593 7.8158 56.3044 7.04379 55.4859 6.90991Z" fill="url(#paint1_linear_0_1435)"/>
<path opacity="0.4" d="M57.5753 7.16805L44.7638 2.81911C43.9784 2.55254 43.1257 2.97305 42.8591 3.75837L39.7623 12.8813C39.4957 13.6666 39.9162 14.5194 40.7016 14.7859L53.5131 19.1349C54.2984 19.4014 55.1512 18.9809 55.4177 18.1956L58.5146 9.07267C58.7811 8.28736 58.3606 7.43462 57.5753 7.16805Z" fill="url(#paint2_linear_0_1435)"/>
</g>
<defs>
<linearGradient id="paint0_linear_0_1435" x1="38.4712" y1="13.2621" x2="55.004" y2="13.2621" gradientUnits="userSpaceOnUse">
<stop offset="0.05" stop-color="#6079FF"/>
<stop offset="0.23" stop-color="#5498E8"/>
<stop offset="0.62" stop-color="#37E7AE"/>
<stop offset="0.64" stop-color="#35EBAB"/>
<stop offset="0.71" stop-color="#44C5BC"/>
<stop offset="0.87" stop-color="#6A64E8"/>
<stop offset="0.94" stop-color="#7C38FC"/>
</linearGradient>
<linearGradient id="paint1_linear_0_1435" x1="38.8476" y1="12.0355" x2="56.7631" y2="12.0355" gradientUnits="userSpaceOnUse">
<stop offset="0.05" stop-color="#6079FF"/>
<stop offset="0.23" stop-color="#5498E8"/>
<stop offset="0.62" stop-color="#37E7AE"/>
<stop offset="0.64" stop-color="#35EBAB"/>
<stop offset="0.71" stop-color="#44C5BC"/>
<stop offset="0.87" stop-color="#6A64E8"/>
<stop offset="0.94" stop-color="#7C38FC"/>
</linearGradient>
<linearGradient id="paint2_linear_0_1435" x1="39.6797" y1="11.0054" x2="58.5913" y2="11.0054" gradientUnits="userSpaceOnUse">
<stop offset="0.05" stop-color="#6079FF"/>
<stop offset="0.23" stop-color="#5498E8"/>
<stop offset="0.62" stop-color="#37E7AE"/>
<stop offset="0.64" stop-color="#35EBAB"/>
<stop offset="0.71" stop-color="#44C5BC"/>
<stop offset="0.87" stop-color="#6A64E8"/>
<stop offset="0.94" stop-color="#7C38FC"/>
</linearGradient>
<clipPath id="clip0_0_1435">
<rect width="58.7718" height="43.8892" fill="white" transform="translate(0.276367)"/>
</clipPath>
</defs>
</svg>
