<svg width="59" height="55" viewBox="0 0 59 55" fill="none" xmlns="http://www.w3.org/2000/svg">
<path d="M46.5892 0H12.4108C5.55649 0 0 5.0856 0 11.359V42.641C0 48.9144 5.55649 54 12.4108 54H46.5892C53.4435 54 59 48.9144 59 42.641V11.359C59 5.0856 53.4435 0 46.5892 0Z" fill="#333333"/>
<path d="M46.1535 55H12.8401C9.43629 54.9952 6.17332 53.7322 3.76644 51.4872C1.35956 49.2423 0.00511984 46.1984 0 43.0236V11.9758C0.00341632 8.80053 1.35734 5.75628 3.76459 3.511C6.17184 1.26572 9.43577 0.00318646 12.8401 0H46.1535C49.5589 0.00159295 52.8245 1.26378 55.2332 3.50924C57.6418 5.75469 58.9966 8.79949 59 11.9758V43.0236C58.9949 46.1994 57.6396 49.2439 55.2313 51.489C52.823 53.7341 49.5584 54.9968 46.1535 55ZM12.8659 0.468995C9.59556 0.47377 6.46062 1.68792 4.14813 3.84482C1.83563 6.00173 0.534214 8.92552 0.529095 11.9758V43.0236C0.534214 46.0739 1.83563 48.9983 4.14813 51.1552C6.46062 53.3121 9.59556 54.5256 12.8659 54.5304H46.1535C49.4238 54.5256 52.5588 53.3121 54.8713 51.1552C57.1837 48.9983 58.4852 46.0739 58.4903 43.0236V11.9758C58.4852 8.92552 57.1837 6.00173 54.8713 3.84482C52.5588 1.68792 49.4238 0.47377 46.1535 0.468995H12.8659Z" fill="url(#paint0_linear_45_8)"/>
<path d="M18.7398 11H39.2054V13.2164C40.0012 13.1098 40.8098 12.9618 41.6183 12.9144C42.2079 12.8464 42.8062 12.905 43.3677 13.0868C43.9293 13.2686 44.4392 13.5684 44.8587 13.963C45.5999 14.7381 45.9995 15.7482 45.9767 16.7894C46.1329 19.3177 45.5008 21.8344 44.1575 24.0312C43.0145 25.8891 41.3172 27.3926 39.2748 28.3571C37.7782 29.0545 36.1092 29.3616 34.4427 29.2459C34.3053 29.2347 34.1678 29.2661 34.0511 29.3351C33.3878 29.7973 32.7436 30.2888 32.0866 30.7569C31.6761 31.0205 31.3925 31.4251 31.2971 31.8831C31.3194 31.9043 31.3449 31.9222 31.3729 31.9363C31.6833 32.053 31.9493 32.2541 32.1368 32.5139C32.3242 32.7737 32.4243 33.0804 32.4243 33.3941C32.4243 33.7078 32.3242 34.0145 32.1368 34.2743C31.9493 34.5341 31.6833 34.7352 31.3729 34.8519C31.316 34.8519 31.2276 34.941 31.2276 34.9884C31.2276 35.6166 31.2276 36.2443 31.2276 36.908H33.95V38.9884H36.6156V43H21.3295V38.9884H24.0141V36.9022H26.7428C26.7428 36.2563 26.7428 35.6577 26.7428 35.0532C26.7428 34.9821 26.6165 34.8818 26.528 34.8403C26.1553 34.6803 25.8578 34.3977 25.6914 34.0463C25.525 33.6949 25.5013 33.2984 25.6248 32.9317C25.7096 32.6965 25.8503 32.4827 26.0364 32.3061C26.2224 32.1295 26.4489 31.9949 26.6986 31.9126C26.6311 31.6431 26.5055 31.3894 26.3295 31.1672C26.1535 30.9451 25.9309 30.7593 25.6753 30.6209C25.1315 30.2687 24.6086 29.8889 24.1088 29.4832C24.0272 29.4047 23.9285 29.3431 23.8196 29.3032C23.7107 29.2634 23.5939 29.2458 23.4772 29.2517C21.1093 29.3969 18.7696 28.7032 16.9206 27.3079C14.3206 25.4272 12.6197 22.6576 12.1895 19.6042C12.12 19.1656 12.0632 18.7216 12 18.2772V16.5943C12 16.4817 12.0506 16.3747 12.0695 16.2622C12.2843 14.9288 12.8717 13.8269 14.2677 13.2639C15.189 12.924 16.1935 12.8334 17.1669 13.0029C17.7101 13.0799 18.2471 13.1986 18.7777 13.2934L18.7398 11ZM19.8199 13.566C19.9594 15.7552 20.257 17.933 20.7105 20.0845C21.1112 22.1738 21.8102 24.2028 22.7887 26.1169C23.5492 27.6896 24.7944 29.0127 26.3638 29.9155C26.6842 30.0934 26.9618 30.3316 27.1792 30.6152C27.3967 30.8987 27.5491 31.2216 27.6271 31.5631C27.6777 31.7468 27.7408 31.8294 27.9556 31.8235C28.6336 31.8235 29.3095 31.8235 29.9832 31.8235C30.1727 31.8235 30.2485 31.7587 30.2927 31.5868C30.3752 31.2345 30.5345 30.9022 30.7606 30.6105C30.9868 30.3189 31.2748 30.0739 31.6066 29.8918C33.1904 28.9727 34.4411 27.6262 35.1944 26.0284C35.9603 24.5381 36.5451 22.9718 36.9377 21.3588C37.5111 19.0719 37.8871 16.7452 38.0621 14.4016C38.0621 14.129 38.1 13.8504 38.1189 13.566H19.8199ZM21.6643 26.1644C21.6487 26.1139 21.6297 26.0644 21.6075 26.0162C20.3565 23.2272 19.5416 20.2832 19.1882 17.2755C19.1377 16.9555 19.1883 16.5347 18.9735 16.3391C18.6688 16.1552 18.3183 16.0493 17.9565 16.0312C17.312 15.8655 16.6356 15.8411 15.9795 15.9601C15.729 15.992 15.4968 16.1003 15.3187 16.2685C15.1406 16.4367 15.0264 16.6555 14.994 16.8906C14.934 17.4035 14.9467 17.9214 15.032 18.4311C15.301 20.4956 16.1979 22.4437 17.6154 24.0428C18.6135 25.2238 20.069 25.9865 21.6643 26.1644ZM36.2871 26.1644C36.3355 26.1674 36.384 26.1674 36.4324 26.1644C37.785 25.9963 39.031 25.3855 39.9507 24.4398C41.8128 22.5445 42.9022 20.0935 43.0269 17.5185C43.0737 17.3227 43.0726 17.1196 43.0236 16.9242C42.9746 16.7288 42.879 16.5463 42.744 16.3906C42.609 16.2349 42.4382 16.1097 42.2443 16.0249C42.0504 15.9401 41.8385 15.8974 41.6246 15.9005C40.7389 15.8545 39.8527 15.9821 39.0222 16.2743C38.9831 16.2967 38.9498 16.3264 38.9247 16.3623C38.8996 16.3981 38.8833 16.439 38.8769 16.4815C38.8011 16.9556 38.7443 17.4299 38.6685 17.9039C38.3637 20.0663 37.8283 22.1943 37.0704 24.2564C36.8303 24.8904 36.5524 25.5123 36.2871 26.1464V26.1644ZM35.6112 39.9479H22.3465V42.022H35.6112V39.9479ZM22.9782 28.3154C22.7725 28.0448 22.5828 27.7639 22.4097 27.474C22.3543 27.3635 22.2639 27.2717 22.1508 27.2112C22.0378 27.1508 21.9076 27.125 21.778 27.1366C20.3901 27.0772 19.0602 26.5965 17.9881 25.7674C16.2955 24.4796 15.076 22.7262 14.5014 20.7541C14.1957 19.736 13.9844 18.6951 13.8697 17.6429C13.8071 17.3528 13.8079 17.0537 13.8722 16.7639C13.9364 16.474 14.0628 16.1993 14.2435 15.9566C14.4242 15.7139 14.6556 15.5082 14.9236 15.3519C15.1916 15.1955 15.4906 15.0921 15.8026 15.0475C16.2816 14.9641 16.7709 14.9462 17.2554 14.9942C17.8012 15.0583 18.3431 15.1493 18.8787 15.2668C18.8516 15.0702 18.8369 14.8724 18.8345 14.6742C18.8345 14.4016 18.7208 14.2889 18.4555 14.2355C17.9376 14.1407 17.4259 13.9865 16.9016 13.9213C16.2108 13.8176 15.5044 13.8543 14.8298 14.0284C14.288 14.2071 13.8185 14.5387 13.486 14.978C13.1534 15.4173 12.9742 15.9427 12.9728 16.4815C12.8436 17.9878 13.0062 19.5035 13.4528 20.9554C13.8445 22.3394 14.5363 23.633 15.4852 24.7546C16.434 25.8763 17.6194 26.8018 18.9672 27.474C20.2114 28.0723 21.6003 28.3566 22.9971 28.298L22.9782 28.3154ZM34.9796 28.2743V28.375C35.6813 28.309 36.3791 28.2101 37.0704 28.0787C39.4962 27.473 41.584 26.0206 42.9068 24.0191C44.0684 22.3724 44.746 20.4676 44.8713 18.4965C44.9937 17.6055 44.951 16.7009 44.745 15.8235C44.6553 15.3782 44.4277 14.9676 44.0907 14.6429C43.7537 14.3183 43.3221 14.0941 42.85 13.9983C41.6159 13.7763 40.3402 13.8833 39.1675 14.3067C39.1106 14.3067 39.0285 14.3894 39.0222 14.4427C38.9843 14.7153 38.9717 14.9883 38.9464 15.2905L39.4454 15.1777C40.2155 14.9766 41.0197 14.9164 41.8141 15C42.3108 15.0301 42.7831 15.2128 43.1577 15.5203C43.5323 15.8278 43.7882 16.2429 43.8859 16.7008C43.9645 17.0352 43.9901 17.3785 43.9617 17.7199C43.8459 19.3693 43.3821 20.9807 42.5973 22.4606C41.1698 25.0562 39.1864 26.994 35.8386 27.2014C35.7418 27.2061 35.651 27.2468 35.586 27.3142C35.4218 27.5928 35.207 27.9245 34.9859 28.2564L34.9796 28.2743ZM38.1758 11.9896H19.7314L19.7694 12.6181H37.5946C38.2389 12.6003 38.2389 12.5998 38.1821 11.9716L38.1758 11.9896ZM25.0184 38.9647H32.9078V37.8802H25.0247L25.0184 38.9647ZM28.9599 34.0162H30.6464C31.1139 34.0162 31.4108 33.7614 31.4044 33.4236C31.3998 33.3384 31.3767 33.2548 31.3365 33.1782C31.2963 33.1017 31.2399 33.0335 31.1708 32.978C31.1016 32.9226 31.0211 32.8812 30.9342 32.8559C30.8474 32.8306 30.7559 32.8221 30.6654 32.831C29.5348 32.831 28.4104 32.831 27.2797 32.831C26.8186 32.831 26.5217 33.0858 26.528 33.4236C26.5344 33.7614 26.8249 34.0162 27.2987 34.0162H28.9599ZM30.1664 34.9942H27.804V36.8843H30.198L30.1664 34.9942Z" fill="url(#paint1_linear_45_8)"/>
<path d="M28.5 24C30.433 24 32 22.6569 32 21C32 19.3431 30.433 18 28.5 18C26.567 18 25 19.3431 25 21C25 22.6569 26.567 24 28.5 24Z" fill="url(#paint2_linear_45_8)"/>
<defs>
<linearGradient id="paint0_linear_45_8" x1="5.1425" y1="0.024074" x2="46.9261" y2="54.2377" gradientUnits="userSpaceOnUse">
<stop stop-color="#E6E6E6"/>
<stop offset="0.04" stop-color="#CECECE"/>
<stop offset="0.12" stop-color="#ACACAC"/>
<stop offset="0.2" stop-color="#8E8E8E"/>
<stop offset="0.29" stop-color="#767676"/>
<stop offset="0.39" stop-color="#646464"/>
<stop offset="0.51" stop-color="#575757"/>
<stop offset="0.67" stop-color="#4F4F4F"/>
<stop offset="0.99" stop-color="#4D4D4D"/>
</linearGradient>
<linearGradient id="paint1_linear_45_8" x1="21.1653" y1="8.51111" x2="40.1317" y2="44.386" gradientUnits="userSpaceOnUse">
<stop offset="0.05" stop-color="#6079FF"/>
<stop offset="0.23" stop-color="#5498E8"/>
<stop offset="0.62" stop-color="#37E7AE"/>
<stop offset="0.64" stop-color="#35EBAB"/>
<stop offset="0.71" stop-color="#44C5BC"/>
<stop offset="0.87" stop-color="#6A64E8"/>
<stop offset="0.94" stop-color="#7C38FC"/>
</linearGradient>
<linearGradient id="paint2_linear_45_8" x1="24.825" y1="19.89" x2="32.4521" y2="23.0236" gradientUnits="userSpaceOnUse">
<stop offset="0.05" stop-color="#6079FF"/>
<stop offset="0.23" stop-color="#5498E8"/>
<stop offset="0.62" stop-color="#37E7AE"/>
<stop offset="0.64" stop-color="#35EBAB"/>
<stop offset="0.71" stop-color="#44C5BC"/>
<stop offset="0.87" stop-color="#6A64E8"/>
<stop offset="0.94" stop-color="#7C38FC"/>
</linearGradient>
</defs>
</svg>
