<svg width="190" height="56" viewBox="0 0 190 56" fill="none" xmlns="http://www.w3.org/2000/svg">
<path d="M167.965 13.8444L171.083 10.644L190 29.6331L170.875 49.2622L167.549 45.8485L183.348 29.6331L167.965 13.8444Z" fill="#353535"/>
<path d="M22.035 13.8444L18.9168 10.644L0 29.6331L19.1247 49.2622L22.4508 45.8485L6.65208 29.6331L22.035 13.8444Z" fill="#353535"/>
<path d="M48.7654 2.22627L44.3638 0.952148L29.6015 54.6758L34.0031 55.9499L48.7654 2.22627Z" fill="url(#paint0_linear_131_3)"/>
<path d="M61.022 18.7422C63.0516 18.7422 64.8405 19.1434 66.3887 19.9458C67.9368 20.7482 69.1357 21.8763 69.9854 23.3301C70.835 24.7839 71.2598 26.4595 71.2598 28.3569C71.2598 30.2638 70.835 31.9489 69.9854 33.4121C69.1357 34.8659 67.9416 35.994 66.4028 36.7964C64.8641 37.5988 63.0846 38 61.0645 38H53.6021V18.7422H61.022ZM60.9512 34.8564C62.3483 34.8564 63.5519 34.5968 64.562 34.0776C65.5815 33.5584 66.3604 32.8127 66.8984 31.8403C67.4365 30.868 67.7056 29.7257 67.7056 28.4136C67.7056 27.1014 67.4365 25.9544 66.8984 24.9727C66.3698 23.9814 65.5957 23.2168 64.5762 22.6787C63.5566 22.1406 62.3389 21.8716 60.9229 21.8716H57.0713V34.8564H60.9512ZM88.0679 30.4668C88.0679 30.7878 88.0443 31.1748 87.9971 31.6279H76.6265C76.7397 32.402 76.9852 33.0723 77.3628 33.6387C77.7498 34.2051 78.2266 34.6393 78.793 34.9414C79.3688 35.234 79.9919 35.3804 80.6621 35.3804C81.5117 35.3804 82.2056 35.2152 82.7437 34.8848C83.2912 34.5449 83.6924 34.0588 83.9473 33.4263H87.6855C87.4307 34.3231 86.9823 35.1538 86.3403 35.9185C85.6984 36.6831 84.8913 37.2967 83.9189 37.7593C82.9561 38.2124 81.894 38.439 80.7329 38.439C79.3075 38.439 78.0189 38.0944 76.8672 37.4053C75.7155 36.7161 74.814 35.7816 74.1626 34.6016C73.5112 33.4215 73.1855 32.1283 73.1855 30.7217C73.1855 29.3151 73.5112 28.0218 74.1626 26.8418C74.814 25.6618 75.7155 24.7272 76.8672 24.0381C78.0189 23.349 79.3075 23.0044 80.7329 23.0044C82.1584 23.0044 83.4281 23.3442 84.542 24.0239C85.6559 24.7036 86.5197 25.6146 87.1333 26.7568C87.7563 27.8896 88.0679 29.1263 88.0679 30.4668ZM84.5703 28.98C84.5231 28.4419 84.3201 27.9463 83.9614 27.4932C83.6027 27.0306 83.1354 26.6672 82.5596 26.4028C81.9932 26.1291 81.3796 25.9922 80.7188 25.9922C79.8031 25.9922 78.9818 26.2471 78.2549 26.7568C77.5374 27.2572 77.0418 27.9982 76.7681 28.98H84.5703ZM88.4927 23.4434H92.1318L95.5161 32.2368L95.8984 33.7661L96.2666 32.251L99.6509 23.4434H103.318L97.4844 38H94.2983L88.4927 23.4434ZM118.795 30.4668C118.795 30.7878 118.772 31.1748 118.725 31.6279H107.354C107.467 32.402 107.713 33.0723 108.09 33.6387C108.477 34.2051 108.954 34.6393 109.521 34.9414C110.096 35.234 110.719 35.3804 111.39 35.3804C112.239 35.3804 112.933 35.2152 113.471 34.8848C114.019 34.5449 114.42 34.0588 114.675 33.4263H118.413C118.158 34.3231 117.71 35.1538 117.068 35.9185C116.426 36.6831 115.619 37.2967 114.646 37.7593C113.684 38.2124 112.622 38.439 111.46 38.439C110.035 38.439 108.746 38.0944 107.595 37.4053C106.443 36.7161 105.542 35.7816 104.89 34.6016C104.239 33.4215 103.913 32.1283 103.913 30.7217C103.913 29.3151 104.239 28.0218 104.89 26.8418C105.542 25.6618 106.443 24.7272 107.595 24.0381C108.746 23.349 110.035 23.0044 111.46 23.0044C112.886 23.0044 114.156 23.3442 115.27 24.0239C116.383 24.7036 117.247 25.6146 117.861 26.7568C118.484 27.8896 118.795 29.1263 118.795 30.4668ZM115.298 28.98C115.251 28.4419 115.048 27.9463 114.689 27.4932C114.33 27.0306 113.863 26.6672 113.287 26.4028C112.721 26.1291 112.107 25.9922 111.446 25.9922C110.531 25.9922 109.709 26.2471 108.982 26.7568C108.265 27.2572 107.769 27.9982 107.496 28.98H115.298ZM121.599 18.0483H125.026V38H121.599V18.0483ZM135.66 38.439C134.216 38.439 132.908 38.0944 131.738 37.4053C130.577 36.7161 129.666 35.7863 129.005 34.6157C128.344 33.4357 128.014 32.1377 128.014 30.7217C128.014 29.3151 128.344 28.0218 129.005 26.8418C129.666 25.6618 130.577 24.7272 131.738 24.0381C132.908 23.349 134.221 23.0044 135.674 23.0044C137.138 23.0044 138.454 23.349 139.625 24.0381C140.796 24.7272 141.711 25.6618 142.372 26.8418C143.033 28.0218 143.363 29.3151 143.363 30.7217C143.363 32.1377 143.033 33.4357 142.372 34.6157C141.711 35.7957 140.791 36.7303 139.611 37.4194C138.44 38.0991 137.123 38.439 135.66 38.439ZM135.688 35.2529C136.5 35.2529 137.227 35.0594 137.869 34.6724C138.521 34.2853 139.03 33.7472 139.398 33.0581C139.776 32.369 139.965 31.5902 139.965 30.7217C139.965 29.8626 139.776 29.0885 139.398 28.3994C139.03 27.7008 138.521 27.158 137.869 26.771C137.218 26.3745 136.491 26.1763 135.688 26.1763C134.886 26.1763 134.159 26.3745 133.508 26.771C132.856 27.158 132.342 27.7008 131.964 28.3994C131.596 29.0885 131.412 29.8626 131.412 30.7217C131.412 31.5902 131.596 32.369 131.964 33.0581C132.342 33.7472 132.852 34.2853 133.494 34.6724C134.145 35.0594 134.877 35.2529 135.688 35.2529ZM149.608 23.4434V25.8931C150.137 25.0057 150.84 24.3071 151.718 23.7974C152.605 23.2782 153.568 23.0186 154.606 23.0186C155.956 23.0186 157.169 23.3631 158.246 24.0522C159.331 24.7414 160.176 25.6759 160.78 26.856C161.394 28.0265 161.701 29.3151 161.701 30.7217C161.701 32.1377 161.394 33.4357 160.78 34.6157C160.167 35.7863 159.322 36.7161 158.246 37.4053C157.179 38.0944 155.98 38.439 154.649 38.439C153.601 38.439 152.638 38.1888 151.76 37.6885C150.882 37.1787 150.198 36.499 149.707 35.6494L149.778 37.3345V42.9702H146.351V23.4434H149.608ZM154.026 35.2812C154.8 35.2812 155.513 35.0972 156.164 34.729C156.815 34.3514 157.335 33.818 157.722 33.1289C158.109 32.4398 158.302 31.6374 158.302 30.7217C158.302 29.8343 158.109 29.0461 157.722 28.3569C157.344 27.6678 156.825 27.1344 156.164 26.7568C155.513 26.3698 154.795 26.1763 154.012 26.1763C153.238 26.1763 152.52 26.3792 151.859 26.7852C151.208 27.1816 150.689 27.7292 150.302 28.4277C149.924 29.1263 149.735 29.891 149.735 30.7217C149.735 31.5902 149.929 32.3737 150.316 33.0723C150.703 33.7614 151.222 34.3042 151.874 34.7007C152.534 35.0877 153.252 35.2812 154.026 35.2812Z" fill="white"/>
<defs>
<linearGradient id="paint0_linear_131_3" x1="46.742" y1="0.943466" x2="30.7602" y2="56.1544" gradientUnits="userSpaceOnUse">
<stop offset="0.05" stop-color="#6079FF"/>
<stop offset="0.23" stop-color="#5498E8"/>
<stop offset="0.62" stop-color="#37E7AE"/>
<stop offset="0.64" stop-color="#35EBAB"/>
<stop offset="0.71" stop-color="#44C5BC"/>
<stop offset="0.87" stop-color="#6A64E8"/>
<stop offset="0.94" stop-color="#7C38FC"/>
</linearGradient>
</defs>
</svg>
