<svg width="57" height="57" viewBox="0 0 57 57" fill="none" xmlns="http://www.w3.org/2000/svg">
<path d="M44.5897 57H12.4165C9.12506 56.9983 5.96875 55.6903 3.64073 53.3632C1.31272 51.0361 0.00330428 47.8802 0 44.5883V12.4116C0.00495215 9.12025 1.31491 5.96525 3.64256 3.63851C5.97022 1.31177 9.12557 0.00329917 12.4165 0H44.5897C47.8796 0.004949 51.0333 1.31415 53.3596 3.64071C55.686 5.96728 56.995 9.12133 57 12.4116V44.5883C56.9967 47.8791 55.6881 51.0341 53.3615 53.361C51.0348 55.688 47.8801 56.9967 44.5897 57ZM12.4165 0.486429C9.25566 0.491377 6.22566 1.74937 3.99058 3.98469C1.75549 6.22002 0.497642 9.25035 0.492694 12.4116V44.5883C0.497642 47.7496 1.75549 50.7799 3.99058 53.0152C6.22566 55.2506 9.25566 56.5085 12.4165 56.5135H44.5897C47.7506 56.5085 50.7806 55.2506 53.0157 53.0152C55.2507 50.7799 56.5086 47.7496 56.5135 44.5883V12.4116C56.5086 9.25035 55.2507 6.22002 53.0157 3.98469C50.7806 1.74937 47.7506 0.491377 44.5897 0.486429H12.4165Z" fill="url(#paint0_linear_97_3)"/>
<path d="M42.6924 17.8076H15.4156C14.1608 17.8076 13.1436 18.8248 13.1436 20.0796V39.7809C13.1436 41.0357 14.1608 42.0529 15.4156 42.0529H42.6924C43.9472 42.0529 44.9644 41.0357 44.9644 39.7809V20.0796C44.9644 18.8248 43.9472 17.8076 42.6924 17.8076Z" stroke="url(#paint1_linear_97_3)"/>
<path d="M44.9643 20.0797C44.9643 19.4771 44.7249 18.8992 44.2988 18.4731C43.8727 18.047 43.2948 17.8076 42.6922 17.8076H15.4342C15.1356 17.8068 14.8397 17.865 14.5637 17.9789C14.2877 18.0928 14.0369 18.2601 13.8258 18.4713C13.6146 18.6824 13.4473 18.9332 13.3334 19.2092C13.2195 19.4852 13.1613 19.7811 13.1621 20.0797V23.8643H44.9829L44.9643 20.0797Z" stroke="url(#paint2_linear_97_3)"/>
<path d="M21.4782 21.5989C21.8976 21.5989 22.2376 21.2589 22.2376 20.8395C22.2376 20.4201 21.8976 20.0801 21.4782 20.0801C21.0588 20.0801 20.7188 20.4201 20.7188 20.8395C20.7188 21.2589 21.0588 21.5989 21.4782 21.5989Z" fill="#5FD8FE"/>
<path d="M25.2623 21.5989C25.6818 21.5989 26.0218 21.2589 26.0218 20.8395C26.0218 20.4201 25.6818 20.0801 25.2623 20.0801C24.8429 20.0801 24.5029 20.4201 24.5029 20.8395C24.5029 21.2589 24.8429 21.5989 25.2623 21.5989Z" fill="#5FFE9A"/>
<path d="M31.3252 25.3833V38.2623" stroke="url(#paint3_linear_97_3)"/>
<path d="M52.1597 31.4461C48.3688 31.4461 47.9953 34.0979 44.5842 34.0979C38.901 34.0979 39.1313 28.6823 30.1864 30.307C26.022 31.0664 24.8829 38.2622 20.7185 38.2622C17.3074 38.4925 15.4151 35.4237 12.0039 35.4237" stroke="url(#paint4_linear_97_3)"/>
<path d="M31.3257 32.5792C32.5805 32.5792 33.5978 31.562 33.5978 30.3072C33.5978 29.0524 32.5805 28.0352 31.3257 28.0352C30.0709 28.0352 29.0537 29.0524 29.0537 30.3072C29.0537 31.562 30.0709 32.5792 31.3257 32.5792Z" fill="url(#paint5_linear_97_3)"/>
<path d="M31.3255 32.3927C32.4772 32.3927 33.4108 31.4591 33.4108 30.3075C33.4108 29.1558 32.4772 28.2222 31.3255 28.2222C30.1738 28.2222 29.2402 29.1558 29.2402 30.3075C29.2402 31.4591 30.1738 32.3927 31.3255 32.3927Z" stroke="url(#paint6_linear_97_3)" stroke-width="0.5"/>
<path d="M17.6871 21.5989C18.1065 21.5989 18.4466 21.2589 18.4466 20.8395C18.4466 20.4201 18.1065 20.0801 17.6871 20.0801C17.2677 20.0801 16.9277 20.4201 16.9277 20.8395C16.9277 21.2589 17.2677 21.5989 17.6871 21.5989Z" fill="#7AC5FE"/>
<defs>
<linearGradient id="paint0_linear_97_3" x1="4.97659" y1="0.0249476" x2="48.9546" y2="53.2406" gradientUnits="userSpaceOnUse">
<stop offset="0.05" stop-color="#6079FF"/>
<stop offset="0.23" stop-color="#5498E8"/>
<stop offset="0.62" stop-color="#37E7AE"/>
<stop offset="0.64" stop-color="#35EBAB"/>
<stop offset="0.71" stop-color="#44C5BC"/>
<stop offset="0.87" stop-color="#6A64E8"/>
<stop offset="0.94" stop-color="#7C38FC"/>
</linearGradient>
<linearGradient id="paint1_linear_97_3" x1="47.0061" y1="35.878" x2="12.268" y2="16.1618" gradientUnits="userSpaceOnUse">
<stop stop-color="#2A95FF"/>
<stop offset="0.73" stop-color="#83FFCC"/>
<stop offset="1" stop-color="#9AFFC0"/>
</linearGradient>
<linearGradient id="paint2_linear_97_3" x1="7.2673" y1="21.2374" x2="42.4602" y2="7.95381" gradientUnits="userSpaceOnUse">
<stop stop-color="#33C8FE"/>
<stop offset="0.4" stop-color="#35C9FE"/>
<stop offset="1" stop-color="#C7F675"/>
</linearGradient>
<linearGradient id="paint3_linear_97_3" x1="-nan" y1="-nan" x2="-nan" y2="-nan" gradientUnits="userSpaceOnUse">
<stop stop-color="#ABFF8A" stop-opacity="0"/>
<stop offset="0.36" stop-color="#2FFF9B" stop-opacity="0.46"/>
<stop offset="1" stop-color="#A5F485" stop-opacity="0"/>
</linearGradient>
<linearGradient id="paint4_linear_97_3" x1="15.3964" y1="28.2551" x2="48.7581" y2="25.0801" gradientUnits="userSpaceOnUse">
<stop stop-color="#E3FF6C" stop-opacity="0"/>
<stop offset="0.25" stop-color="#6ABAFE" stop-opacity="0.88"/>
<stop offset="0.51" stop-color="#278FF6"/>
<stop offset="0.78" stop-color="#6ABAFE"/>
<stop offset="1" stop-color="#E3FF6C" stop-opacity="0"/>
</linearGradient>
<linearGradient id="paint5_linear_97_3" x1="32.1038" y1="31.0853" x2="39.5735" y2="38.7044" gradientUnits="userSpaceOnUse">
<stop stop-color="#2790F5"/>
<stop offset="1" stop-color="#36BF36"/>
</linearGradient>
<linearGradient id="paint6_linear_97_3" x1="31.6959" y1="31.1602" x2="33.1338" y2="34.3784" gradientUnits="userSpaceOnUse">
<stop stop-color="#A2CDF8"/>
<stop offset="0.28" stop-color="#77D8FB"/>
<stop offset="1" stop-color="#A2F8C2" stop-opacity="0"/>
</linearGradient>
</defs>
</svg>
