<svg width="56" height="57" viewBox="0 0 56 57" fill="none" xmlns="http://www.w3.org/2000/svg">
<path d="M43.8013 57H12.1987C8.96497 56.9983 5.86407 55.6903 3.5769 53.3632C1.28973 51.0361 0.00324631 47.8802 0 44.5883V12.4116C0.00486527 9.12025 1.29188 5.96525 3.57869 3.63851C5.86551 1.31177 8.96547 0.00329917 12.1987 0H43.8013C47.0345 0.00329917 50.1346 1.31177 52.4214 3.63851C54.7082 5.96525 55.9951 9.12025 56 12.4116V44.5883C55.9968 47.8802 54.7103 51.0361 52.4231 53.3632C50.1359 55.6903 47.035 56.9983 43.8013 57ZM12.1987 0.486429C9.09278 0.489731 6.11499 1.74726 3.91877 3.98294C1.72255 6.21863 0.487294 9.24985 0.48405 12.4116V44.5883C0.487294 47.7501 1.72255 50.7814 3.91877 53.0171C6.11499 55.2527 9.09278 56.5102 12.1987 56.5135H43.8013C46.9072 56.5102 49.885 55.2527 52.0812 53.0171C54.2775 50.7814 55.5127 47.7501 55.5159 44.5883V12.4116C55.5127 9.24985 54.2775 6.21863 52.0812 3.98294C49.885 1.74726 46.9072 0.489731 43.8013 0.486429H12.1987Z" fill="url(#paint0_linear_97_4)"/>
<path d="M44.7702 15.5737C44.7702 15.0289 44.5537 14.5064 44.1685 14.1212C43.7833 13.736 43.2608 13.5195 42.716 13.5195H17.3813C16.8366 13.5195 16.314 13.736 15.9288 14.1212C15.5436 14.5064 15.3272 15.0289 15.3272 15.5737V26.5292C15.3263 26.7987 15.3787 27.0657 15.4813 27.3148C15.5838 27.564 15.7345 27.7905 15.9248 27.9813C16.115 28.1721 16.3411 28.3236 16.59 28.4269C16.8388 28.5302 17.1057 28.5834 17.3751 28.5834H38.9501C40.6121 28.5834 43.2327 28.5834 44.6395 30.4508C44.646 30.4662 44.6579 30.4787 44.673 30.486C44.6881 30.4932 44.7053 30.4947 44.7214 30.4901C44.7375 30.4855 44.7513 30.4751 44.7603 30.461C44.7693 30.4469 44.7728 30.43 44.7702 30.4135V15.5737Z" stroke="url(#paint1_linear_97_4)"/>
<path d="M9.81823 23.7905C9.81823 23.2457 10.0347 22.7232 10.4199 22.338C10.8051 21.9528 11.3276 21.7363 11.8724 21.7363H37.2071C37.7519 21.7363 38.2744 21.9528 38.6596 22.338C39.0448 22.7232 39.2612 23.2457 39.2612 23.7905V34.746C39.2621 35.0155 39.2097 35.2825 39.1071 35.5316C39.0046 35.7808 38.8539 36.0074 38.6636 36.1982C38.4734 36.389 38.2473 36.5404 37.9984 36.6437C37.7496 36.747 37.4827 36.8002 37.2133 36.8002H15.6383C13.9763 36.8002 11.3558 36.8002 9.949 38.6676C9.94251 38.6831 9.93059 38.6955 9.91549 38.7027C9.9004 38.71 9.88318 38.7114 9.86709 38.7069C9.851 38.7023 9.8371 38.6919 9.82811 38.6778C9.81912 38.6637 9.8156 38.6468 9.81823 38.6303V23.7905Z" stroke="url(#paint2_linear_97_4)"/>
<path d="M38.2346 47.7554C42.5835 47.7554 46.1089 44.23 46.1089 39.8811C46.1089 35.5323 42.5835 32.0068 38.2346 32.0068C33.8858 32.0068 30.3604 35.5323 30.3604 39.8811C30.3604 44.23 33.8858 47.7554 38.2346 47.7554Z" stroke="url(#paint3_linear_97_4)"/>
<path d="M38.2344 40.2222C39.558 40.2222 40.6309 39.1493 40.6309 37.8257C40.6309 36.5022 39.558 35.4292 38.2344 35.4292C36.9108 35.4292 35.8379 36.5022 35.8379 37.8257C35.8379 39.1493 36.9108 40.2222 38.2344 40.2222Z" fill="url(#paint4_linear_97_4)"/>
<path d="M38.2343 40.0531C39.4651 40.0531 40.4628 39.0554 40.4628 37.8246C40.4628 36.5939 39.4651 35.5962 38.2343 35.5962C37.0036 35.5962 36.0059 36.5939 36.0059 37.8246C36.0059 39.0554 37.0036 40.0531 38.2343 40.0531Z" stroke="url(#paint5_linear_97_4)" stroke-width="0.5"/>
<path d="M37.9912 40.9092C37.0324 40.9144 36.0846 41.114 35.2051 41.4959C34.3257 41.8779 33.5328 42.4342 32.8745 43.1314C32.6879 43.329 32.5442 43.563 32.4523 43.8187C32.3603 44.0745 32.3222 44.3465 32.3403 44.6177C32.3584 44.8888 32.4324 45.1533 32.5575 45.3946C32.6826 45.6359 32.8562 45.8486 33.0674 46.0197C34.4486 47.1681 36.1952 47.7841 37.9912 47.7564C39.6131 47.7659 41.2181 47.4262 42.6971 46.7604C42.9855 46.6421 43.2428 46.4593 43.4496 46.226C43.6563 45.9928 43.8069 45.7153 43.8898 45.4149C43.9727 45.1145 43.9858 44.799 43.928 44.4927C43.8701 44.1865 43.743 43.8976 43.5562 43.6481C42.8934 42.8035 42.049 42.1187 41.0857 41.6446C40.1224 41.1705 39.0648 40.9192 37.9912 40.9092Z" fill="url(#paint6_linear_97_4)"/>
<path d="M32.9991 43.2493C33.6768 42.5247 34.5039 41.9559 35.4232 41.5825C36.3424 41.2091 37.3318 41.0399 38.3229 41.0867C39.3139 41.1335 40.283 41.3951 41.163 41.8534C42.0429 42.3117 42.8128 42.9559 43.4193 43.7411C43.5933 43.9699 43.7122 44.2358 43.7666 44.5181C43.821 44.8003 43.8095 45.0914 43.733 45.3685C43.6565 45.6456 43.517 45.9013 43.3255 46.1157C43.134 46.33 42.8956 46.4974 42.6288 46.6045C41.1704 47.2572 39.5891 47.5904 37.9913 47.5817C36.2361 47.6136 34.5281 47.0126 33.1796 45.8886C32.9858 45.733 32.8263 45.5389 32.7113 45.3186C32.5962 45.0983 32.528 44.8565 32.511 44.6086C32.4941 44.3606 32.5287 44.1118 32.6127 43.8778C32.6967 43.6439 32.8282 43.4299 32.9991 43.2493Z" stroke="url(#paint7_linear_97_4)" stroke-width="0.5" stroke-linecap="round"/>
<path d="M16.666 27.2144H32.4146" stroke="url(#paint8_linear_97_4)" stroke-linecap="round"/>
<path d="M16.666 31.3223H32.4146" stroke="url(#paint9_linear_97_4)" stroke-linecap="round"/>
<defs>
<linearGradient id="paint0_linear_97_4" x1="4.88928" y1="0.0249487" x2="49.0014" y2="52.4738" gradientUnits="userSpaceOnUse">
<stop offset="0.05" stop-color="#6079FF"/>
<stop offset="0.23" stop-color="#5498E8"/>
<stop offset="0.62" stop-color="#37E7AE"/>
<stop offset="0.64" stop-color="#35EBAB"/>
<stop offset="0.71" stop-color="#44C5BC"/>
<stop offset="0.87" stop-color="#6A64E8"/>
<stop offset="0.94" stop-color="#7C38FC"/>
</linearGradient>
<linearGradient id="paint1_linear_97_4" x1="24.4028" y1="27.9422" x2="39.9594" y2="48.8584" gradientUnits="userSpaceOnUse">
<stop stop-color="#55E6FF"/>
<stop offset="0.66" stop-color="#DAFEE5"/>
<stop offset="1" stop-color="white"/>
</linearGradient>
<linearGradient id="paint2_linear_97_4" x1="10.3224" y1="36.1829" x2="34.7816" y2="54.7813" gradientUnits="userSpaceOnUse">
<stop stop-color="#18ABFF"/>
<stop offset="0.68" stop-color="#F7FEB9"/>
<stop offset="1" stop-color="white"/>
</linearGradient>
<linearGradient id="paint3_linear_97_4" x1="33.1615" y1="31.5587" x2="41.8948" y2="45.8755" gradientUnits="userSpaceOnUse">
<stop stop-color="#55E6FF"/>
<stop offset="1" stop-color="#F1FC91" stop-opacity="0.19"/>
</linearGradient>
<linearGradient id="paint4_linear_97_4" x1="37.4003" y1="36.5621" x2="41.4962" y2="42.9674" gradientUnits="userSpaceOnUse">
<stop stop-color="#35B0F5"/>
<stop offset="1" stop-color="#4FBE45"/>
</linearGradient>
<linearGradient id="paint5_linear_97_4" x1="36.1739" y1="35.2663" x2="38.8443" y2="38.5841" gradientUnits="userSpaceOnUse">
<stop stop-color="#9BD9FF"/>
<stop offset="0.28" stop-color="#82EDFF"/>
<stop offset="1" stop-color="#F1FFF4" stop-opacity="0"/>
</linearGradient>
<linearGradient id="paint6_linear_97_4" x1="35.0724" y1="43.3368" x2="39.5305" y2="47.5635" gradientUnits="userSpaceOnUse">
<stop stop-color="#35AFF6"/>
<stop offset="1" stop-color="#76C746"/>
</linearGradient>
<linearGradient id="paint7_linear_97_4" x1="35.3827" y1="42.4494" x2="37.345" y2="46.3588" gradientUnits="userSpaceOnUse">
<stop stop-color="#E9FCF6"/>
<stop offset="0.21" stop-color="#7BD2FE"/>
<stop offset="1" stop-color="#D0FEC7" stop-opacity="0"/>
</linearGradient>
<linearGradient id="paint8_linear_97_4" x1="-nan" y1="-nan" x2="-nan" y2="-nan" gradientUnits="userSpaceOnUse">
<stop offset="0.16" stop-color="#28D7BD"/>
<stop offset="1" stop-color="#76C746" stop-opacity="0"/>
</linearGradient>
<linearGradient id="paint9_linear_97_4" x1="-nan" y1="-nan" x2="-nan" y2="-nan" gradientUnits="userSpaceOnUse">
<stop offset="0.36" stop-color="#42C779"/>
<stop offset="1" stop-color="white" stop-opacity="0"/>
</linearGradient>
</defs>
</svg>
