<svg width="57" height="56" viewBox="0 0 57 56" fill="none" xmlns="http://www.w3.org/2000/svg">
<path d="M44.5897 56H12.4165C9.12555 55.9968 5.97022 54.7112 3.64256 52.4253C1.31491 50.1394 0.00495215 47.0398 0 43.8062V12.1939C0.00330428 8.95982 1.31272 5.85922 3.64074 3.57295C5.96875 1.28668 9.12504 0.00162191 12.4165 0H44.5897C47.8801 0.00324438 51.0348 1.28903 53.3615 3.57512C55.6881 5.86122 56.9967 8.96088 57 12.1939V43.8062C56.9951 47.0387 55.686 50.1374 53.3596 52.4232C51.0333 54.7089 47.8796 55.9951 44.5897 56ZM12.4165 0.477969C9.25564 0.482831 6.22562 1.71875 3.99054 3.91486C1.75546 6.11097 0.497604 9.08814 0.492656 12.1939V43.8062C0.497604 46.9119 1.75546 49.8891 3.99054 52.0852C6.22562 54.2813 9.25564 55.5172 12.4165 55.5221H44.5897C47.7506 55.5172 50.7806 54.2813 53.0157 52.0852C55.2508 49.8891 56.5086 46.9119 56.5136 43.8062V12.1939C56.5086 9.08814 55.2508 6.11097 53.0157 3.91486C50.7806 1.71875 47.7506 0.482831 44.5897 0.477969H12.4165Z" fill="url(#paint0_linear_97_5)"/>
<path d="M25.8818 28.8562C25.1908 28.2337 24.5185 27.7233 23.8774 27.1444C22.6698 26.0936 21.6362 24.8582 20.8148 23.4842C20.2371 22.4888 19.9422 21.3545 19.962 20.2038C19.962 19.102 19.962 18.0002 19.962 16.9047V16.4814H19.0781C18.9068 16.49 18.7356 16.4632 18.5751 16.4025C18.4147 16.3419 18.2685 16.2487 18.1458 16.1288C18.0231 16.009 17.9264 15.8651 17.8619 15.7062C17.7974 15.5473 17.7664 15.3768 17.7709 15.2053C17.7709 14.5828 17.7709 13.9604 17.7709 13.2944C17.7707 13.1255 17.8049 12.9584 17.8713 12.8031C17.9377 12.6479 18.035 12.5077 18.1573 12.3913C18.2796 12.2748 18.4243 12.1845 18.5826 12.1257C18.7409 12.0669 18.9095 12.041 19.0781 12.0494H38.9973C39.1649 12.0427 39.3322 12.0699 39.489 12.1295C39.6458 12.1891 39.789 12.2796 39.91 12.3959C40.0309 12.5122 40.1271 12.6518 40.1927 12.8061C40.2584 12.9605 40.2921 13.1266 40.292 13.2944C40.292 13.9417 40.292 14.5891 40.292 15.2365C40.2921 15.4031 40.2587 15.5681 40.1938 15.7216C40.1289 15.8752 40.0339 16.0141 39.9143 16.1302C39.7947 16.2463 39.653 16.3372 39.4976 16.3975C39.3422 16.4578 39.1763 16.4864 39.0097 16.4814H38.1383C38.1383 16.6308 38.1383 16.7553 38.1383 16.8736C38.1383 17.8695 38.0947 18.8717 38.1383 19.8614C38.2029 21.5906 37.634 23.2839 36.5385 24.6233C35.434 26.0546 34.147 27.3354 32.7103 28.4329L32.2061 28.8375L32.5298 29.0989C34.2047 30.3445 35.6749 31.8441 36.8871 33.5434C37.7338 34.7312 38.1708 36.1624 38.132 37.6206C38.0885 38.6726 38.132 39.7245 38.132 40.7765V41.1998C38.4557 41.1998 38.7545 41.1998 39.0284 41.1998C39.197 41.1914 39.3657 41.2173 39.524 41.2761C39.6823 41.3349 39.8269 41.4252 39.9492 41.5417C40.0715 41.6581 40.1688 41.7983 40.2352 41.9535C40.3017 42.1088 40.3358 42.2759 40.3356 42.4447C40.3356 43.0797 40.3356 43.7146 40.3356 44.3495C40.3358 44.5183 40.3017 44.6855 40.2352 44.8408C40.1688 44.996 40.0715 45.1361 39.9492 45.2526C39.8269 45.369 39.6823 45.4594 39.524 45.5182C39.3657 45.577 39.197 45.6029 39.0284 45.5944H19.1093C18.9384 45.6013 18.768 45.573 18.6086 45.5112C18.4492 45.4494 18.3043 45.3554 18.1828 45.2351C18.0613 45.1148 17.9659 44.9708 17.9026 44.812C17.8392 44.6532 17.8092 44.483 17.8145 44.3122C17.8145 43.6897 17.8145 43.0673 17.8145 42.4012C17.8144 42.2345 17.8478 42.0695 17.9127 41.916C17.9776 41.7624 18.0727 41.6235 18.1923 41.5074C18.3118 41.3913 18.4535 41.3004 18.6089 41.2401C18.7643 41.1798 18.9302 41.1513 19.0968 41.1563C19.3831 41.1563 19.6695 41.1563 19.9869 41.1563C19.9869 41.0006 19.9869 40.8761 19.9869 40.7516C19.9869 39.7681 20.0367 38.7846 19.9869 37.8011C19.9209 36.0486 20.4988 34.3325 21.6116 32.977C22.7638 31.5082 24.1007 30.1943 25.5892 29.0678L25.8818 28.8562ZM37.1236 41.1686C37.128 41.0982 37.128 41.0275 37.1236 40.957C37.1236 39.6747 37.1548 38.3862 37.1236 37.104C37.1019 36.5834 37.0011 36.0691 36.8249 35.5788C36.3627 34.412 35.6656 33.3526 34.7769 32.4665C33.6815 31.3003 32.479 30.2395 31.1852 29.2981C30.8678 29.0616 30.7931 28.7815 30.9923 28.5387C31.088 28.4382 31.1944 28.3484 31.3097 28.271C32.9769 27.0755 34.4669 25.6505 35.7355 24.0382C36.5178 23.1269 37.0003 21.9966 37.1174 20.8013C37.1672 19.4008 37.1174 18.0002 37.1174 16.5934C37.1174 16.5934 37.0863 16.5374 37.0738 16.5063H20.8895V16.9047C20.8895 18.0562 20.8895 19.2016 20.8895 20.3469C20.885 21.0664 21.0379 21.7782 21.3377 22.4322C21.8969 23.6317 22.6882 24.7085 23.6658 25.6006C24.6866 26.5592 25.7697 27.468 26.8404 28.3457C27.2574 28.7005 27.2699 28.9682 26.8404 29.323L26.5914 29.5097C24.9671 30.6862 23.5169 32.0861 22.2839 33.6679C21.3342 34.8239 20.8404 36.2874 20.8957 37.7824C20.9455 38.7722 20.8957 39.7743 20.8957 40.7703V41.1563H21.7734C21.7821 41.0631 21.7821 40.9693 21.7734 40.8761C21.7034 39.6747 22.0484 38.4858 22.7507 37.5085C24.3551 35.3441 26.3949 33.5396 28.7389 32.2112C28.8242 32.1695 28.9179 32.1478 29.0128 32.1478C29.1077 32.1478 29.2014 32.1695 29.2867 32.2112C31.4129 33.4459 33.2982 35.0549 34.8516 36.9607C35.5547 37.7865 36.01 38.7943 36.165 39.8677C36.2086 40.2848 36.2024 40.708 36.2273 41.1126L37.1236 41.1686ZM35.2562 41.1686C35.4096 40.1232 35.1628 39.0585 34.5653 38.1871C34.2429 37.7079 33.8894 37.2504 33.5071 36.8176C32.2415 35.4785 30.8133 34.3033 29.2556 33.3193C29.1919 33.2632 29.11 33.2323 29.0252 33.2323C28.9405 33.2323 28.8586 33.2632 28.7949 33.3193C27.8425 34.0351 26.859 34.7137 25.944 35.4668C24.8846 36.3015 23.9915 37.3277 23.3109 38.4921C22.8636 39.2992 22.691 40.2299 22.8192 41.1438L35.2562 41.1686ZM29.0751 12.9893H19.3271C18.7544 12.9893 18.7046 12.9893 18.7046 13.6118V15.0372C18.7046 15.473 18.7731 15.5352 19.2151 15.5352H24.1949H38.7358C39.2836 15.5352 39.321 15.4979 39.321 14.9128V13.5247C39.321 13.0205 39.2712 12.9707 38.7607 12.9707L29.0751 12.9893ZM29.0751 42.1708H19.2898C18.7669 42.1708 18.7233 42.2144 18.7233 42.7498V44.1752C18.7233 44.6608 18.7793 44.7106 19.2649 44.7106H38.7607C39.3521 44.7106 39.3832 44.7106 39.3832 44.0881V42.7C39.3832 42.1958 39.3334 42.146 38.823 42.146L29.0751 42.1708Z" fill="url(#paint1_linear_97_5)"/>
<path d="M29.0506 20.7741H34.0304C34.5782 20.7741 34.7151 20.9298 34.7089 21.4838C34.6673 22.3681 34.3494 23.2172 33.8001 23.9114C32.8223 25.1947 31.6329 26.302 30.2831 27.1856C30.0001 27.4051 29.698 27.5989 29.3805 27.7646C29.2831 27.8101 29.1768 27.8337 29.0693 27.8337C28.9617 27.8337 28.8555 27.8101 28.758 27.7646C27.0844 26.8036 25.6063 25.5367 24.4007 24.0297C23.7799 23.3005 23.4206 22.3846 23.3799 21.4278C23.3799 20.8924 23.5168 20.7368 24.0459 20.7368L29.0506 20.7741ZM24.3758 21.7577C24.4567 22.3381 24.6957 22.8851 25.0668 23.3387C26.1177 24.6937 27.4091 25.8437 28.8763 26.7312C28.9391 26.7557 29.0067 26.7651 29.0737 26.7586C29.1408 26.7521 29.2053 26.7299 29.2622 26.6939C30.1213 26.0714 30.9865 25.3991 31.8019 24.702C32.4704 24.1425 33.017 23.4518 33.4079 22.6727C33.5449 22.3988 33.6258 22.0876 33.7503 21.7577H24.3758Z" fill="url(#paint2_linear_97_5)"/>
<defs>
<linearGradient id="paint0_linear_97_5" x1="4.97659" y1="0.0245099" x2="48.0328" y2="53.055" gradientUnits="userSpaceOnUse">
<stop offset="0.05" stop-color="#6079FF"/>
<stop offset="0.23" stop-color="#5498E8"/>
<stop offset="0.62" stop-color="#37E7AE"/>
<stop offset="0.64" stop-color="#35EBAB"/>
<stop offset="0.71" stop-color="#44C5BC"/>
<stop offset="0.87" stop-color="#6A64E8"/>
<stop offset="0.94" stop-color="#7C38FC"/>
</linearGradient>
<linearGradient id="paint1_linear_97_5" x1="17.7647" y1="28.8375" x2="40.3107" y2="28.8375" gradientUnits="userSpaceOnUse">
<stop offset="0.05" stop-color="#6079FF"/>
<stop offset="0.23" stop-color="#5498E8"/>
<stop offset="0.62" stop-color="#37E7AE"/>
<stop offset="0.64" stop-color="#35EBAB"/>
<stop offset="0.71" stop-color="#44C5BC"/>
<stop offset="0.87" stop-color="#6A64E8"/>
<stop offset="0.94" stop-color="#7C38FC"/>
</linearGradient>
<linearGradient id="paint2_linear_97_5" x1="23.3861" y1="24.3098" x2="34.6902" y2="24.3098" gradientUnits="userSpaceOnUse">
<stop offset="0.05" stop-color="#6079FF"/>
<stop offset="0.23" stop-color="#5498E8"/>
<stop offset="0.62" stop-color="#37E7AE"/>
<stop offset="0.64" stop-color="#35EBAB"/>
<stop offset="0.71" stop-color="#44C5BC"/>
<stop offset="0.87" stop-color="#6A64E8"/>
<stop offset="0.94" stop-color="#7C38FC"/>
</linearGradient>
</defs>
</svg>
