<svg width="57" height="56" viewBox="0 0 57 56" fill="none" xmlns="http://www.w3.org/2000/svg">
<path d="M44.5897 56H12.4165C9.12557 55.9968 5.97022 54.7112 3.64256 52.4253C1.31491 50.1394 0.00495215 47.0398 0 43.8062V12.1939C0.00330428 8.95982 1.31272 5.85922 3.64073 3.57295C5.96875 1.28668 9.12506 0.00162191 12.4165 0H44.5897C47.8801 0.00324438 51.0348 1.28903 53.3615 3.57512C55.6881 5.86122 56.9967 8.96088 57 12.1939V43.8062C56.995 47.0387 55.686 50.1374 53.3596 52.4232C51.0333 54.7089 47.8796 55.9951 44.5897 56ZM12.4165 0.477969C9.25566 0.482831 6.22566 1.71875 3.99058 3.91486C1.75549 6.11097 0.497642 9.08814 0.492694 12.1939V43.8062C0.497642 46.9119 1.75549 49.8891 3.99058 52.0852C6.22566 54.2813 9.25566 55.5172 12.4165 55.5221H44.5897C47.7506 55.5172 50.7806 54.2813 53.0157 52.0852C55.2507 49.8891 56.5086 46.9119 56.5135 43.8062V12.1939C56.5086 9.08814 55.2507 6.11097 53.0157 3.91486C50.7806 1.71875 47.7506 0.482831 44.5897 0.477969H12.4165Z" fill="url(#paint0_linear_97_6)"/>
<path d="M32.6628 24.6048L28.0814 29.1862L26.3198 27.4122L25.5417 28.1902L28.0938 30.7361L33.3288 25.5572C33.8585 26.453 34.1217 27.4813 34.0876 28.5215C34.0535 29.5616 33.7234 30.5704 33.1361 31.4296C32.5489 32.2888 31.7288 32.9626 30.7721 33.3722C29.8153 33.7817 28.7616 33.9099 27.7346 33.7417C26.7076 33.5735 25.7499 33.1158 24.9737 32.4225C24.1976 31.7292 23.6353 30.8288 23.3529 29.8272C23.0704 28.8256 23.0794 27.7642 23.3789 26.7675C23.6784 25.7708 24.2559 24.8802 25.0437 24.2002C26.1197 23.2697 27.5142 22.7922 28.9347 22.8676C30.3552 22.943 31.6913 23.5656 32.6628 24.6048Z" fill="url(#paint1_linear_97_6)"/>
<path d="M12.5198 16.0636C13.1049 15.4038 14.051 15.4412 14.8603 15.3789C24.0355 15.3789 33.2107 15.3789 42.386 15.3789C43.1952 15.4163 44.1414 15.3789 44.7265 16.0636C45.4922 16.767 45.3801 17.8937 45.4237 18.8336C45.3863 25.0583 45.4237 31.2831 45.4237 37.5078H47.7144V39.4935C47.5337 39.8273 47.2628 40.1035 46.9326 40.2907C46.6024 40.4778 46.2261 40.5682 45.847 40.5517C34.5179 40.5517 23.1889 40.5517 11.8599 40.5517C11.4291 40.606 10.9916 40.5448 10.5923 40.3741C10.193 40.2035 9.84634 39.9296 9.58789 39.5807V37.5389H11.8786C11.8786 31.1773 11.8786 24.8218 11.8786 18.4601C11.8661 17.6198 11.8475 16.6612 12.5198 16.0636ZM13.3725 18.0431C13.3725 24.5293 13.3725 31.0216 13.3725 37.514C16.8086 37.514 20.2197 37.514 23.6682 37.514C24.7576 37.3895 25.629 38.2299 26.6872 38.2735C27.9758 38.3295 29.2767 38.3295 30.5715 38.2735C31.6235 38.2361 32.4825 37.402 33.5593 37.514C37.0016 37.514 40.4439 37.514 43.8862 37.514C43.8862 31.1565 43.8862 24.801 43.8862 18.4477C43.8862 17.8874 43.9546 16.9102 43.133 16.9538C39.0931 16.8604 35.0408 16.9537 31.0072 16.9102C30.8952 17.0969 30.6586 17.4642 30.5404 17.6447C29.2581 17.6904 27.9799 17.6904 26.7059 17.6447C26.5939 17.458 26.3573 17.0907 26.239 16.9039C22.1992 16.9413 18.1469 16.8542 14.1319 16.9413C13.5219 16.8853 13.3103 17.5514 13.3725 18.0431Z" fill="url(#paint2_linear_97_6)"/>
<defs>
<linearGradient id="paint0_linear_97_6" x1="4.97659" y1="0.0245099" x2="48.0328" y2="53.055" gradientUnits="userSpaceOnUse">
<stop offset="0.05" stop-color="#6079FF"/>
<stop offset="0.23" stop-color="#5498E8"/>
<stop offset="0.62" stop-color="#37E7AE"/>
<stop offset="0.64" stop-color="#35EBAB"/>
<stop offset="0.71" stop-color="#44C5BC"/>
<stop offset="0.87" stop-color="#6A64E8"/>
<stop offset="0.94" stop-color="#7C38FC"/>
</linearGradient>
<linearGradient id="paint1_linear_97_6" x1="28.6229" y1="18.044" x2="28.6229" y2="37.3593" gradientUnits="userSpaceOnUse">
<stop offset="0.05" stop-color="#6079FF"/>
<stop offset="0.23" stop-color="#5498E8"/>
<stop offset="0.62" stop-color="#37E7AE"/>
<stop offset="0.64" stop-color="#35EBAB"/>
<stop offset="0.71" stop-color="#44C5BC"/>
<stop offset="0.87" stop-color="#6A64E8"/>
<stop offset="0.94" stop-color="#7C38FC"/>
</linearGradient>
<linearGradient id="paint2_linear_97_6" x1="28.6231" y1="14.7813" x2="28.6231" y2="40.2156" gradientUnits="userSpaceOnUse">
<stop offset="0.05" stop-color="#6079FF"/>
<stop offset="0.23" stop-color="#5498E8"/>
<stop offset="0.62" stop-color="#37E7AE"/>
<stop offset="0.64" stop-color="#35EBAB"/>
<stop offset="0.71" stop-color="#44C5BC"/>
<stop offset="0.87" stop-color="#6A64E8"/>
<stop offset="0.94" stop-color="#7C38FC"/>
</linearGradient>
</defs>
</svg>
