<svg width="56" height="56" viewBox="0 0 56 56" fill="none" xmlns="http://www.w3.org/2000/svg">
<path d="M43.8074 56H12.1987C8.96547 55.9968 5.86551 54.7112 3.57869 52.4253C1.29188 50.1394 0.00486527 47.0398 0 43.8062V12.1939C0.00324631 8.95982 1.28973 5.85922 3.5769 3.57295C5.86407 1.28668 8.96497 0.00162191 12.1987 0H43.8074C47.0401 0.00324438 50.1394 1.28903 52.4253 3.57512C54.7111 5.86122 55.9968 8.96088 56 12.1939V43.8062C55.9951 47.0387 54.709 50.1374 52.4235 52.4232C50.138 54.7089 47.0396 55.9951 43.8074 56ZM12.1987 0.477969C9.09328 0.482831 6.11644 1.71875 3.92057 3.91486C1.72469 6.11097 0.488911 9.08814 0.48405 12.1939V43.8062C0.488911 46.9119 1.72469 49.8891 3.92057 52.0852C6.11644 54.2813 9.09328 55.5172 12.1987 55.5221H43.8074C46.9129 55.5172 49.8897 54.2813 52.0856 52.0852C54.2814 49.8891 55.5172 46.9119 55.5221 43.8062V12.1939C55.5172 9.08814 54.2814 6.11097 52.0856 3.91486C49.8897 1.71875 46.9129 0.482831 43.8074 0.477969H12.1987Z" fill="url(#paint0_linear_97_7)"/>
<path d="M23.0462 24.7087C23.1529 25.1782 23.3892 25.6085 23.7281 25.9507C24.0669 26.2929 24.4949 26.5332 24.9634 26.6445C25.4225 26.7422 25.8998 26.7081 26.3404 26.5462C26.7809 26.3843 27.1667 26.1012 27.4533 25.7295C27.4616 25.7177 27.4733 25.7089 27.4869 25.7041C27.5005 25.6994 27.5152 25.6991 27.529 25.7032C27.5428 25.7074 27.5549 25.7157 27.5636 25.7272C27.5724 25.7386 27.5774 25.7524 27.5778 25.7668V29.9934H21.353C21.297 29.9934 21.297 30.0494 21.353 30.0494C21.7856 30.3065 22.1301 30.6885 22.3412 31.1452C22.5524 31.6019 22.6202 32.1118 22.5358 32.6078C22.4523 33.1509 22.1915 33.6512 21.7941 34.0306C21.3966 34.4101 20.8848 34.6473 20.3384 34.7055C19.7676 34.773 19.1909 34.6439 18.7034 34.3395C18.2158 34.0351 17.8467 33.5737 17.6567 33.0313C17.4667 32.4888 17.4672 31.8978 17.6583 31.3557C17.8493 30.8136 18.2194 30.3529 18.7075 30.0494C18.7636 30.0494 18.7075 29.9934 18.7075 29.9934H12.682C11.9752 27.9941 11.6131 25.8893 11.6113 23.7687C11.6113 14.0581 23.3263 11.9417 27.4906 19.567V22.5985C27.4902 22.6128 27.4852 22.6267 27.4765 22.6381C27.4677 22.6495 27.4556 22.6579 27.4418 22.6621C27.4281 22.6662 27.4133 22.6659 27.3997 22.6611C27.3862 22.6564 27.3744 22.6476 27.3662 22.6358C27.0118 22.2061 26.5235 21.9076 25.9794 21.7881C25.4354 21.6686 24.867 21.7349 24.3651 21.9765C23.8632 22.2181 23.4568 22.621 23.211 23.1209C22.9651 23.6207 22.8939 24.1885 23.0088 24.7336L23.0462 24.7087Z" stroke="url(#paint1_linear_97_7)"/>
<path d="M32.1093 37.8315C32.0058 38.3059 31.7678 38.7404 31.4239 39.0831C31.0799 39.4258 30.6446 39.6622 30.1699 39.7639C29.6952 39.8657 29.2011 39.8286 28.7469 39.657C28.2927 39.4854 27.8977 39.1867 27.6088 38.7964C27.6088 38.7404 27.5527 38.7964 27.5527 38.7964V44.8157C27.5536 44.8235 27.5529 44.8315 27.5504 44.8391C27.548 44.8466 27.544 44.8536 27.5387 44.8594C27.5335 44.8653 27.5269 44.87 27.5197 44.8732C27.5124 44.8764 27.5046 44.878 27.4967 44.878C24.6831 43.4587 15.788 38.6532 12.7441 29.9946H18.7136C18.7697 29.9946 18.7697 30.0506 18.7136 30.0506C18.2811 30.3076 17.9366 30.6896 17.7254 31.1463C17.5143 31.603 17.4465 32.113 17.5309 32.609C17.6144 33.1521 17.8752 33.6524 18.2726 34.0318C18.6701 34.4113 19.1819 34.6485 19.7283 34.7067C20.299 34.7742 20.8758 34.6451 21.3633 34.3407C21.8509 34.0363 22.22 33.5749 22.41 33.0325C22.6 32.49 22.5995 31.899 22.4084 31.3569C22.2174 30.8148 21.8473 30.3541 21.3591 30.0506C21.3031 30.0506 21.3591 29.9946 21.3591 29.9946H27.5527V35.7898C27.5527 35.8458 27.6088 35.8458 27.6088 35.7898C27.8405 35.4706 28.1448 35.211 28.4965 35.0325C28.8483 34.8539 29.2374 34.7615 29.6318 34.7628C30.0105 34.7615 30.3845 34.8452 30.7264 35.0078C31.0683 35.1705 31.3693 35.4079 31.6072 35.7025C31.845 35.9971 32.0135 36.3414 32.1005 36.7099C32.1874 37.0784 32.1904 37.4617 32.1093 37.8315Z" stroke="url(#paint2_linear_97_7)"/>
<path d="M43.4823 23.7445C43.495 25.8663 43.1325 27.9737 42.4116 29.9693H37.0646C37.2897 29.6726 37.4508 29.3325 37.5376 28.9703C37.6244 28.6081 37.635 28.2318 37.5688 27.8653C37.4821 27.3885 37.2531 26.949 36.9121 26.6046C36.571 26.2603 36.1338 26.027 35.6578 25.9357C35.2883 25.8522 34.9047 25.8542 34.5361 25.9414C34.1676 26.0285 33.8238 26.1987 33.5309 26.4388C33.2379 26.6789 33.0037 26.9826 32.8458 27.3269C32.688 27.6712 32.6108 28.0469 32.6201 28.4256C32.6343 29.0025 32.8304 29.5602 33.1803 30.0191H27.5781V25.7116C27.5781 25.6493 27.5221 25.6493 27.5221 25.7116C27.2333 26.1038 26.8373 26.4042 26.3818 26.5767C25.9263 26.7491 25.4307 26.7863 24.9546 26.6837C24.4785 26.5811 24.0421 26.3431 23.6981 25.9984C23.3541 25.6536 23.117 25.2168 23.0154 24.7405C22.9351 24.3701 22.9391 23.9864 23.0272 23.6177C23.1153 23.2491 23.2851 22.9049 23.5242 22.6108C23.7633 22.3167 24.0656 22.0803 24.4085 21.9188C24.7514 21.7573 25.1262 21.675 25.5053 21.678C25.9002 21.675 26.2902 21.766 26.6431 21.9435C26.9959 22.121 27.3015 22.3799 27.5345 22.6988C27.5345 22.7549 27.5905 22.6988 27.5905 22.6988V19.518C31.7736 11.9301 43.4823 14.034 43.4823 23.7445Z" stroke="url(#paint3_linear_97_7)"/>
<path d="M42.324 29.9954C42.334 29.9943 42.3442 29.996 42.3533 30.0002C42.3625 30.0044 42.3704 30.0109 42.3761 30.0192C42.3819 30.0275 42.3852 30.0372 42.3859 30.0472C42.3866 30.0573 42.3846 30.0673 42.3801 30.0763C39.2677 38.6602 30.4722 43.4595 27.6648 44.8787C27.6569 44.8788 27.649 44.8772 27.6418 44.874C27.6345 44.8708 27.6281 44.8661 27.6228 44.8602C27.6175 44.8543 27.6135 44.8474 27.6111 44.8398C27.6087 44.8323 27.6079 44.8243 27.6088 44.8164V38.7847C27.6088 38.7287 27.6648 38.7287 27.6648 38.7847C27.922 39.1312 28.2637 39.4061 28.6573 39.5832C29.0509 39.7602 29.4833 39.8334 29.9132 39.796C30.3432 39.7586 30.7564 39.6117 31.1135 39.3693C31.4705 39.1269 31.7596 38.7971 31.953 38.4113C32.1465 38.0255 32.238 37.5967 32.2188 37.1655C32.1995 36.7344 32.0701 36.3154 31.843 35.9484C31.6159 35.5814 31.2986 35.2787 30.9213 35.0691C30.544 34.8595 30.1194 34.75 29.6878 34.7511C29.2934 34.7498 28.9043 34.8423 28.5525 35.0208C28.2008 35.1994 27.8965 35.459 27.6648 35.7782C27.6648 35.8342 27.6088 35.7782 27.6088 35.7782V30.0701C27.6078 30.0617 27.6087 30.0532 27.6115 30.0452C27.6142 30.0372 27.6188 30.0299 27.6248 30.0239C27.6307 30.0179 27.638 30.0133 27.646 30.0105C27.654 30.0077 27.6626 30.0068 27.671 30.0079H33.0678C33.0827 30.0079 33.097 30.0019 33.1075 29.9914C33.118 29.9809 33.1239 29.9667 33.1239 29.9518C32.7151 29.3529 32.5543 28.6188 32.6757 27.9039C32.7624 27.427 32.9914 26.9875 33.3324 26.6431C33.6735 26.2988 34.1107 26.0656 34.5867 25.9742C34.9566 25.8897 35.3408 25.8908 35.7102 25.9774C36.0796 26.0641 36.4243 26.2341 36.7179 26.4743C37.0116 26.7145 37.2465 27.0186 37.4047 27.3635C37.5629 27.7083 37.6401 28.0848 37.6306 28.4641C37.6422 29.0011 37.4611 29.5244 37.1201 29.9394C37.1201 29.9542 37.126 29.9685 37.1365 29.979C37.147 29.9895 37.1613 29.9954 37.1762 29.9954H42.324Z" fill="url(#paint4_linear_97_7)" stroke="url(#paint5_linear_97_7)" stroke-miterlimit="10"/>
<path d="M42.324 29.9954C42.334 29.9943 42.3442 29.996 42.3533 30.0002C42.3625 30.0044 42.3704 30.0109 42.3761 30.0192C42.3819 30.0275 42.3852 30.0372 42.3859 30.0472C42.3866 30.0573 42.3846 30.0673 42.3801 30.0763C39.2677 38.6602 30.4722 43.4595 27.6648 44.8787C27.6569 44.8788 27.649 44.8772 27.6418 44.874C27.6345 44.8708 27.6281 44.8661 27.6228 44.8602C27.6175 44.8543 27.6135 44.8474 27.6111 44.8398C27.6087 44.8323 27.6079 44.8243 27.6088 44.8164V38.7847C27.6088 38.7287 27.6648 38.7287 27.6648 38.7847C27.922 39.1312 28.2637 39.4061 28.6573 39.5832C29.0509 39.7602 29.4833 39.8334 29.9132 39.796C30.3432 39.7586 30.7564 39.6117 31.1135 39.3693C31.4705 39.1269 31.7596 38.7971 31.953 38.4113C32.1465 38.0255 32.238 37.5967 32.2188 37.1655C32.1995 36.7344 32.0701 36.3154 31.843 35.9484C31.6159 35.5814 31.2986 35.2787 30.9213 35.0691C30.544 34.8595 30.1194 34.75 29.6878 34.7511C29.2934 34.7498 28.9043 34.8423 28.5525 35.0208C28.2008 35.1994 27.8965 35.459 27.6648 35.7782C27.6648 35.8342 27.6088 35.7782 27.6088 35.7782V30.0701C27.6078 30.0617 27.6087 30.0532 27.6115 30.0452C27.6142 30.0372 27.6188 30.0299 27.6248 30.0239C27.6307 30.0179 27.638 30.0133 27.646 30.0105C27.654 30.0077 27.6626 30.0068 27.671 30.0079H33.0678C33.0827 30.0079 33.097 30.0019 33.1075 29.9914C33.118 29.9809 33.1239 29.9667 33.1239 29.9518C32.7151 29.3529 32.5543 28.6188 32.6757 27.9039C32.7624 27.427 32.9914 26.9875 33.3324 26.6431C33.6735 26.2988 34.1107 26.0656 34.5867 25.9742C34.9566 25.8897 35.3408 25.8908 35.7102 25.9774C36.0796 26.0641 36.4243 26.2341 36.7179 26.4743C37.0116 26.7145 37.2465 27.0186 37.4047 27.3635C37.5629 27.7083 37.6401 28.0848 37.6306 28.4641C37.6422 29.0011 37.4611 29.5244 37.1201 29.9394C37.1201 29.9542 37.126 29.9685 37.1365 29.979C37.147 29.9895 37.1613 29.9954 37.1762 29.9954H42.324Z" fill="url(#paint6_linear_97_7)" stroke="url(#paint7_linear_97_7)"/>
<defs>
<linearGradient id="paint0_linear_97_7" x1="4.88928" y1="0.0245099" x2="48.0958" y2="52.3065" gradientUnits="userSpaceOnUse">
<stop offset="0.05" stop-color="#6079FF"/>
<stop offset="0.23" stop-color="#5498E8"/>
<stop offset="0.62" stop-color="#37E7AE"/>
<stop offset="0.64" stop-color="#35EBAB"/>
<stop offset="0.71" stop-color="#44C5BC"/>
<stop offset="0.87" stop-color="#6A64E8"/>
<stop offset="0.94" stop-color="#7C38FC"/>
</linearGradient>
<linearGradient id="paint1_linear_97_7" x1="11.6697" y1="35.3286" x2="18.3599" y2="35.3286" gradientUnits="userSpaceOnUse">
<stop offset="0.05" stop-color="#6079FF"/>
<stop offset="0.23" stop-color="#5498E8"/>
<stop offset="0.62" stop-color="#37E7AE"/>
<stop offset="0.64" stop-color="#35EBAB"/>
<stop offset="0.71" stop-color="#44C5BC"/>
<stop offset="0.87" stop-color="#6A64E8"/>
<stop offset="0.94" stop-color="#7C38FC"/>
</linearGradient>
<linearGradient id="paint2_linear_97_7" x1="16.0507" y1="24.2088" x2="37.0255" y2="24.2088" gradientUnits="userSpaceOnUse">
<stop offset="0.05" stop-color="#6079FF"/>
<stop offset="0.23" stop-color="#5498E8"/>
<stop offset="0.62" stop-color="#37E7AE"/>
<stop offset="0.64" stop-color="#35EBAB"/>
<stop offset="0.71" stop-color="#44C5BC"/>
<stop offset="0.87" stop-color="#6A64E8"/>
<stop offset="0.94" stop-color="#7C38FC"/>
</linearGradient>
<linearGradient id="paint3_linear_97_7" x1="20.082" y1="36.6619" x2="35.0411" y2="36.6619" gradientUnits="userSpaceOnUse">
<stop offset="0.05" stop-color="#6079FF"/>
<stop offset="0.23" stop-color="#5498E8"/>
<stop offset="0.62" stop-color="#37E7AE"/>
<stop offset="0.64" stop-color="#35EBAB"/>
<stop offset="0.71" stop-color="#44C5BC"/>
<stop offset="0.87" stop-color="#6A64E8"/>
<stop offset="0.94" stop-color="#7C38FC"/>
</linearGradient>
<linearGradient id="paint4_linear_97_7" x1="29.2722" y1="19.998" x2="52.0295" y2="19.998" gradientUnits="userSpaceOnUse">
<stop offset="0.05" stop-color="#6079FF"/>
<stop offset="0.23" stop-color="#5498E8"/>
<stop offset="0.62" stop-color="#37E7AE"/>
<stop offset="0.64" stop-color="#35EBAB"/>
<stop offset="0.71" stop-color="#44C5BC"/>
<stop offset="0.87" stop-color="#6A64E8"/>
<stop offset="0.94" stop-color="#7C38FC"/>
</linearGradient>
<linearGradient id="paint5_linear_97_7" x1="27.2976" y1="35.3922" x2="42.6975" y2="35.3922" gradientUnits="userSpaceOnUse">
<stop offset="0.05" stop-color="#6079FF"/>
<stop offset="0.23" stop-color="#5498E8"/>
<stop offset="0.62" stop-color="#37E7AE"/>
<stop offset="0.64" stop-color="#35EBAB"/>
<stop offset="0.71" stop-color="#44C5BC"/>
<stop offset="0.87" stop-color="#6A64E8"/>
<stop offset="0.94" stop-color="#7C38FC"/>
</linearGradient>
<linearGradient id="paint6_linear_97_7" x1="27.6088" y1="35.3922" x2="42.3863" y2="35.3922" gradientUnits="userSpaceOnUse">
<stop offset="0.05" stop-color="#6079FF"/>
<stop offset="0.23" stop-color="#5498E8"/>
<stop offset="0.62" stop-color="#37E7AE"/>
<stop offset="0.64" stop-color="#35EBAB"/>
<stop offset="0.71" stop-color="#44C5BC"/>
<stop offset="0.87" stop-color="#6A64E8"/>
<stop offset="0.94" stop-color="#7C38FC"/>
</linearGradient>
<linearGradient id="paint7_linear_97_7" x1="16.4157" y1="19.998" x2="41.0942" y2="19.998" gradientUnits="userSpaceOnUse">
<stop offset="0.05" stop-color="#6079FF"/>
<stop offset="0.23" stop-color="#5498E8"/>
<stop offset="0.62" stop-color="#37E7AE"/>
<stop offset="0.64" stop-color="#35EBAB"/>
<stop offset="0.71" stop-color="#44C5BC"/>
<stop offset="0.87" stop-color="#6A64E8"/>
<stop offset="0.94" stop-color="#7C38FC"/>
</linearGradient>
</defs>
</svg>
