<svg width="399" height="288" viewBox="0 0 399 288" fill="none" xmlns="http://www.w3.org/2000/svg">
<path opacity="0.4" d="M291.479 76.7441H29.1191C13.0371 76.7441 0 87.9444 0 101.761V262.262C0 276.078 13.0371 287.279 29.1191 287.279H291.479C307.561 287.279 320.598 276.078 320.598 262.262V101.761C320.598 87.9444 307.561 76.7441 291.479 76.7441Z" fill="url(#paint0_linear_0_1240)"/>
<path opacity="0.4" d="M329.941 76.1887L71.0221 39.8026C55.151 37.5723 40.1801 46.8175 37.5839 60.4525L7.42474 218.849C4.8286 232.484 15.5903 245.345 31.4614 247.576L290.38 283.962C306.251 286.192 321.221 276.947 323.818 263.312L353.977 104.915C356.573 91.2804 345.812 78.419 329.941 76.1887Z" fill="url(#paint1_linear_0_1240)"/>
<path opacity="0.4" d="M370.453 80.4925L122.016 8.04136C106.788 3.60028 90.2518 10.6059 85.0824 23.6888L25.03 175.673C19.8606 188.756 28.0154 202.962 43.2439 207.403L291.681 279.854C306.909 284.295 323.445 277.29 328.615 264.207L388.667 112.223C393.836 99.1397 385.682 84.9336 370.453 80.4925Z" fill="url(#paint2_linear_0_1240)"/>
<defs>
<linearGradient id="paint0_linear_0_1240" x1="0" y1="182.011" x2="320.598" y2="182.011" gradientUnits="userSpaceOnUse">
<stop offset="0.05" stop-color="#6079FF"/>
<stop offset="0.23" stop-color="#5498E8"/>
<stop offset="0.62" stop-color="#37E7AE"/>
<stop offset="0.64" stop-color="#35EBAB"/>
<stop offset="0.71" stop-color="#44C5BC"/>
<stop offset="0.87" stop-color="#6A64E8"/>
<stop offset="0.94" stop-color="#7C38FC"/>
</linearGradient>
<linearGradient id="paint1_linear_0_1240" x1="7.29648" y1="161.579" x2="354.707" y2="161.579" gradientUnits="userSpaceOnUse">
<stop offset="0.05" stop-color="#6079FF"/>
<stop offset="0.23" stop-color="#5498E8"/>
<stop offset="0.62" stop-color="#37E7AE"/>
<stop offset="0.64" stop-color="#35EBAB"/>
<stop offset="0.71" stop-color="#44C5BC"/>
<stop offset="0.87" stop-color="#6A64E8"/>
<stop offset="0.94" stop-color="#7C38FC"/>
</linearGradient>
<linearGradient id="paint2_linear_0_1240" x1="23.4279" y1="144.421" x2="390.156" y2="144.421" gradientUnits="userSpaceOnUse">
<stop offset="0.05" stop-color="#6079FF"/>
<stop offset="0.23" stop-color="#5498E8"/>
<stop offset="0.62" stop-color="#37E7AE"/>
<stop offset="0.64" stop-color="#35EBAB"/>
<stop offset="0.71" stop-color="#44C5BC"/>
<stop offset="0.87" stop-color="#6A64E8"/>
<stop offset="0.94" stop-color="#7C38FC"/>
</linearGradient>
</defs>
</svg>
