<svg width="66" height="65" viewBox="0 0 66 65" fill="none" xmlns="http://www.w3.org/2000/svg">
<path d="M54.12 0H11.88C5.31886 0 0 5.23827 0 11.7V53.3C0 59.7617 5.31886 65 11.88 65H54.12C60.6811 65 66 59.7617 66 53.3V11.7C66 5.23827 60.6811 0 54.12 0Z" fill="#141414"/>
<path d="M54.1201 0.324951H11.8801C5.50119 0.324951 0.330078 5.41771 0.330078 11.7V53.2999C0.330078 59.5822 5.50119 64.6749 11.8801 64.6749H54.1201C60.499 64.6749 65.6701 59.5822 65.6701 53.2999V11.7C65.6701 5.41771 60.499 0.324951 54.1201 0.324951Z" stroke="url(#paint0_linear_110_5)"/>
<path d="M33.5478 32.1424L33.495 32.0124L33.363 31.9604L24.9348 28.5999C24.7522 28.527 24.5958 28.402 24.4858 28.2411C24.3757 28.0801 24.3169 27.8905 24.3169 27.6964C24.3169 27.5024 24.3757 27.3127 24.4858 27.1518C24.5958 26.9908 24.7522 26.8659 24.9348 26.7929L46.0548 18.3429C46.2361 18.2583 46.4394 18.2304 46.6374 18.263C46.8353 18.2955 47.0184 18.3868 47.1621 18.5248C47.3058 18.6628 47.4032 18.8407 47.4412 19.0348C47.4792 19.2288 47.456 19.4297 47.3748 19.6104L38.7948 40.4104C38.7207 40.5902 38.5938 40.7442 38.4304 40.8526C38.267 40.961 38.0744 41.0189 37.8774 41.0189C37.6803 41.0189 37.4878 40.961 37.3243 40.8526C37.1609 40.7442 37.034 40.5902 36.96 40.4104L33.5478 32.1424Z" stroke="url(#paint1_linear_110_5)"/>
<path d="M21.7802 31.525L17.5958 28.6455C17.4115 28.5177 17.2634 28.3455 17.1658 28.1454C17.0682 27.9453 17.0243 27.7239 17.0382 27.5023C17.0521 27.2807 17.1233 27.0664 17.2452 26.8796C17.3671 26.6928 17.5355 26.5399 17.7344 26.4354L24.0902 23.075" stroke="url(#paint2_linear_110_5)" stroke-linecap="round"/>
<path d="M34.1221 43.2186L36.7159 47.5476C36.8308 47.7378 36.9932 47.896 37.1877 48.0071C37.3821 48.1182 37.6021 48.1786 37.8268 48.1825C38.0516 48.1864 38.2736 48.1337 38.4719 48.0294C38.6702 47.9251 38.8382 47.7727 38.9599 47.5866L42.8539 41.6001" stroke="url(#paint3_linear_110_5)" stroke-linecap="round"/>
<path d="M19.3448 38.8634C21.437 36.8029 28.1426 35.0934 29.0996 36.0359C30.0566 36.9784 28.3142 43.5824 26.222 45.6429C24.1298 47.7034 20.8958 47.8594 18.995 45.9874C17.0942 44.1154 17.2526 40.9499 19.3448 38.8634Z" fill="url(#paint4_linear_110_5)"/>
<path d="M19.4568 38.9998C20.1183 38.4142 20.8716 37.9379 21.6876 37.5893C22.6565 37.1465 23.6609 36.7834 24.6906 36.5038C25.5996 36.239 26.5323 36.0605 27.4758 35.9708C27.805 35.9371 28.1367 35.9371 28.4658 35.9708C28.6533 35.9787 28.8335 36.0447 28.9806 36.1593C29.0941 36.3059 29.1607 36.4824 29.172 36.6663C29.2062 36.9883 29.2062 37.3129 29.172 37.6348C29.0784 38.5659 28.8972 39.4863 28.6308 40.3843C28.3448 41.3978 27.9762 42.3868 27.5286 43.3418C27.1749 44.1308 26.6959 44.8592 26.1096 45.4998C24.0702 47.5083 20.9352 47.6448 19.1136 45.8443C17.292 44.0438 17.4174 40.9888 19.4568 38.9998Z" fill="url(#paint5_linear_110_5)"/>
<defs>
<linearGradient id="paint0_linear_110_5" x1="4.78508" y1="1.68345" x2="75.4593" y2="80.6211" gradientUnits="userSpaceOnUse">
<stop stop-color="#595959"/>
<stop offset="1" stop-color="#595959" stop-opacity="0"/>
</linearGradient>
<linearGradient id="paint1_linear_110_5" x1="36.7587" y1="16.7645" x2="30.6963" y2="45.9468" gradientUnits="userSpaceOnUse">
<stop stop-color="#5B87F4"/>
<stop offset="0.53" stop-color="#41CEB8"/>
<stop offset="1" stop-color="#819CFF" stop-opacity="0"/>
</linearGradient>
<linearGradient id="paint2_linear_110_5" x1="21.6536" y1="15.73" x2="17.2827" y2="32.899" gradientUnits="userSpaceOnUse">
<stop stop-color="#FBEBFC"/>
<stop offset="0.26" stop-color="#37E5AF"/>
<stop offset="0.91" stop-color="#819CFF" stop-opacity="0"/>
</linearGradient>
<linearGradient id="paint3_linear_110_5" x1="52.1281" y1="38.6631" x2="33.0145" y2="40.737" gradientUnits="userSpaceOnUse">
<stop stop-color="#FBEBFC"/>
<stop offset="0.26" stop-color="#36EAAC"/>
<stop offset="0.91" stop-color="#819CFF" stop-opacity="0"/>
</linearGradient>
<linearGradient id="paint4_linear_110_5" x1="20.5648" y1="46.8355" x2="30.6906" y2="42.1083" gradientUnits="userSpaceOnUse">
<stop offset="0.05" stop-color="#6079FF"/>
<stop offset="0.23" stop-color="#5498E8"/>
<stop offset="0.62" stop-color="#37E7AE"/>
<stop offset="0.64" stop-color="#35EBAB"/>
<stop offset="0.71" stop-color="#44C5BC"/>
<stop offset="0.87" stop-color="#6A64E8"/>
<stop offset="0.94" stop-color="#7C38FC"/>
</linearGradient>
<linearGradient id="paint5_linear_110_5" x1="17.8266" y1="41.5348" x2="29.205" y2="41.5348" gradientUnits="userSpaceOnUse">
<stop offset="0.05" stop-color="#6079FF"/>
<stop offset="0.23" stop-color="#5498E8"/>
<stop offset="0.62" stop-color="#37E7AE"/>
<stop offset="0.64" stop-color="#35EBAB"/>
<stop offset="0.71" stop-color="#44C5BC"/>
<stop offset="0.87" stop-color="#6A64E8"/>
<stop offset="0.94" stop-color="#7C38FC"/>
</linearGradient>
</defs>
</svg>
