<svg width="67" height="67" viewBox="0 0 67 67" fill="none" xmlns="http://www.w3.org/2000/svg">
<path d="M54.7981 1H12.8093C6.28722 1 1 6.23827 1 12.7V54.3C1 60.7617 6.28722 66 12.8093 66H54.7981C61.3203 66 66.6075 60.7617 66.6075 54.3V12.7C66.6075 6.23827 61.3203 1 54.7981 1Z" fill="#141414"/>
<path d="M54.7977 1.32495H12.8089C6.46799 1.32495 1.32764 6.41771 1.32764 12.7V54.3C1.32764 60.5822 6.46799 65.675 12.8089 65.675H54.7977C61.1387 65.675 66.279 60.5822 66.279 54.3V12.7C66.279 6.41771 61.1387 1.32495 54.7977 1.32495Z" stroke="url(#paint0_linear_110_6)"/>
<path d="M33.1473 49.7502C42.5681 49.7502 50.2052 42.1838 50.2052 32.8502C50.2052 23.5166 42.5681 15.9502 33.1473 15.9502C23.7265 15.9502 16.0894 23.5166 16.0894 32.8502C16.0894 42.1838 23.7265 49.7502 33.1473 49.7502Z" stroke="url(#paint1_linear_110_6)"/>
<path d="M33.1475 45.5248C40.2131 45.5248 45.9409 39.85 45.9409 32.8498C45.9409 25.8496 40.2131 20.1748 33.1475 20.1748C26.0818 20.1748 20.354 25.8496 20.354 32.8498C20.354 39.85 26.0818 45.5248 33.1475 45.5248Z" stroke="url(#paint2_linear_110_6)"/>
<path fill-rule="evenodd" clip-rule="evenodd" d="M36.8999 30.5102C36.8 30.6166 36.7342 30.75 36.7109 30.8935C36.6875 31.037 36.7077 31.1841 36.7687 31.3162C37.128 32.1494 37.1833 33.0804 36.9252 33.9496C36.667 34.8187 36.1115 35.5717 35.354 36.0792C34.5964 36.5867 33.6842 36.8171 32.7739 36.7308C31.8636 36.6445 31.012 36.2469 30.3654 35.6063C29.7187 34.9656 29.3174 34.1219 29.2303 33.2201C29.1432 32.3182 29.3757 31.4144 29.888 30.6639C30.4003 29.9134 31.1603 29.363 32.0376 29.1072C32.9148 28.8514 33.8546 28.9062 34.6955 29.2622C34.8285 29.3245 34.9774 29.3454 35.1226 29.3222C35.2679 29.299 35.4026 29.2327 35.5091 29.1322L38.1334 26.4997C38.3199 26.3275 38.5667 26.2337 38.8216 26.2382C39.0766 26.2426 39.3198 26.345 39.5001 26.5236C39.6804 26.7022 39.7837 26.9432 39.7882 27.1958C39.7927 27.4484 39.6981 27.6929 39.5242 27.8777L36.8999 30.5102Z" fill="url(#paint3_linear_110_6)"/>
<path d="M36.467 31.4463C36.6576 31.8903 36.7557 32.3679 36.7557 32.8503H37.4118C37.4156 32.2816 37.3041 31.718 37.0837 31.1928L36.467 31.4463ZM36.7557 32.8503C36.7557 33.7985 36.3755 34.7078 35.6988 35.3782C35.0221 36.0487 34.1043 36.4253 33.1473 36.4253V37.0753C34.2783 37.0753 35.363 36.6302 36.1627 35.8379C36.9625 35.0455 37.4118 33.9709 37.4118 32.8503H36.7557ZM33.1473 36.4253C32.1903 36.4253 31.2725 36.0487 30.5958 35.3782C29.9191 34.7078 29.5389 33.7985 29.5389 32.8503H28.8828C28.8828 33.9709 29.3321 35.0455 30.1319 35.8379C30.9316 36.6302 32.0163 37.0753 33.1473 37.0753V36.4253ZM29.5389 32.8503C29.5389 31.9022 29.9191 30.9929 30.5958 30.3224C31.2725 29.652 32.1903 29.2753 33.1473 29.2753V28.6253C32.0163 28.6253 30.9316 29.0705 30.1319 29.8628C29.3321 30.6551 28.8828 31.7298 28.8828 32.8503H29.5389ZM33.1473 29.2753C33.6343 29.2753 34.1163 29.3726 34.5644 29.5613L34.8203 28.9633C34.2912 28.7406 33.7222 28.6256 33.1473 28.6253V29.2753ZM35.7716 29.3663L38.3959 26.7273L37.9301 26.2658L35.2664 28.9048L35.7716 29.3663ZM38.3959 26.7273C38.5217 26.6229 38.6824 26.569 38.8464 26.5762C39.0104 26.5834 39.1656 26.6512 39.2816 26.7663L39.7408 26.3113C39.5028 26.0746 39.1818 25.9378 38.8447 25.9294C38.5075 25.9209 38.18 26.0414 37.9301 26.2658L38.3959 26.7273ZM39.2816 26.7663C39.4005 26.8807 39.4714 27.0354 39.4799 27.1994C39.4884 27.3634 39.434 27.5245 39.3275 27.6503L39.7933 28.1118C40.0199 27.8643 40.1415 27.5398 40.1329 27.2057C40.1244 26.8717 39.9863 26.5537 39.7474 26.3178L39.2816 26.7663ZM39.3275 27.6503L36.6639 30.2893L37.1297 30.7508L39.7933 28.1118L39.3275 27.6503ZM34.5644 29.5678C34.7574 29.6552 34.9725 29.6833 35.1818 29.6486C35.3911 29.6138 35.5851 29.5178 35.7388 29.3728L35.273 28.9113C35.2121 28.9648 35.1364 28.999 35.0557 29.0094C34.975 29.0199 34.893 29.0061 34.8203 28.9698L34.5644 29.5678ZM37.0837 31.1928C37.0472 31.1208 37.0332 31.0396 37.0438 30.9596C37.0543 30.8796 37.0888 30.8047 37.1428 30.7443L36.677 30.2828C36.5307 30.4351 36.4337 30.6273 36.3987 30.8347C36.3636 31.0421 36.392 31.2551 36.4802 31.4463L37.0837 31.1928Z" fill="url(#paint4_linear_110_6)"/>
<defs>
<linearGradient id="paint0_linear_110_6" x1="5.75614" y1="2.68345" x2="76.4756" y2="81.2019" gradientUnits="userSpaceOnUse">
<stop stop-color="#595959"/>
<stop offset="1" stop-color="#595959" stop-opacity="0"/>
</linearGradient>
<linearGradient id="paint1_linear_110_6" x1="11.628" y1="-5.08381" x2="40.5549" y2="46.8601" gradientUnits="userSpaceOnUse">
<stop stop-color="#35EBAB"/>
<stop offset="1" stop-color="#819CFF" stop-opacity="0"/>
</linearGradient>
<linearGradient id="paint2_linear_110_6" x1="21.1807" y1="18.7448" x2="47.2494" y2="49.9109" gradientUnits="userSpaceOnUse">
<stop stop-color="#F8B6D0"/>
<stop offset="0.28" stop-color="#36E9AC"/>
<stop offset="1" stop-color="#DBB6F8" stop-opacity="0"/>
</linearGradient>
<linearGradient id="paint3_linear_110_6" x1="33.2613" y1="25.7219" x2="37.437" y2="36.3641" gradientUnits="userSpaceOnUse">
<stop offset="0.05" stop-color="#6079FF"/>
<stop offset="0.23" stop-color="#5498E8"/>
<stop offset="0.62" stop-color="#37E7AE"/>
<stop offset="0.64" stop-color="#35EBAB"/>
<stop offset="0.71" stop-color="#44C5BC"/>
<stop offset="0.87" stop-color="#6A64E8"/>
<stop offset="0.94" stop-color="#7C38FC"/>
</linearGradient>
<linearGradient id="paint4_linear_110_6" x1="29.5521" y1="23.5685" x2="34.91" y2="28.8637" gradientUnits="userSpaceOnUse">
<stop offset="0.05" stop-color="#6079FF"/>
<stop offset="0.23" stop-color="#5498E8"/>
<stop offset="0.62" stop-color="#37E7AE"/>
<stop offset="0.64" stop-color="#35EBAB"/>
<stop offset="0.71" stop-color="#44C5BC"/>
<stop offset="0.87" stop-color="#6A64E8"/>
<stop offset="0.94" stop-color="#7C38FC"/>
</linearGradient>
</defs>
</svg>
