<svg width="67" height="64" viewBox="0 0 67 64" fill="none" xmlns="http://www.w3.org/2000/svg">
<g clip-path="url(#clip0_110_8)">
<path d="M54.94 0H12.06C5.39945 0 0 5.15768 0 11.52V52.48C0 58.8423 5.39945 64 12.06 64H54.94C61.6006 64 67 58.8423 67 52.48V11.52C67 5.15768 61.6006 0 54.94 0Z" fill="#141414"/>
<path d="M54.94 0.320068H12.06C5.58442 0.320068 0.334961 5.33448 0.334961 11.5201V52.4801C0.334961 58.6657 5.58442 63.6801 12.06 63.6801H54.94C61.4155 63.6801 66.665 58.6657 66.665 52.4801V11.5201C66.665 5.33448 61.4155 0.320068 54.94 0.320068Z" stroke="url(#paint0_linear_110_8)"/>
<path d="M33.5001 48C43.1209 48 50.9201 40.55 50.9201 31.36C50.9201 22.17 43.1209 14.72 33.5001 14.72C23.8793 14.72 16.0801 22.17 16.0801 31.36C16.0801 40.55 23.8793 48 33.5001 48Z" stroke="url(#paint1_linear_110_8)"/>
<path d="M33.5001 31.0399C36.2753 31.0399 38.5251 28.8909 38.5251 26.2399C38.5251 23.589 36.2753 21.4399 33.5001 21.4399C30.7249 21.4399 28.4751 23.589 28.4751 26.2399C28.4751 28.8909 30.7249 31.0399 33.5001 31.0399Z" stroke="url(#paint2_linear_110_8)"/>
<path d="M33.2722 34.8799C36.2528 34.8979 39.1639 35.7413 41.6529 37.3077C44.1418 38.8742 46.1018 41.0965 47.2953 43.7055C47.2596 43.7303 47.2215 43.7518 47.1814 43.7695C43.0338 46.3207 38.2053 47.6782 33.2722 47.6799C31.0744 47.7164 28.8918 47.325 26.8576 46.5295C24.8233 45.7339 22.98 44.551 21.44 43.0527C21.0938 42.7369 20.8818 42.3101 20.8447 41.8542C20.8076 41.3983 20.948 40.9454 21.239 40.5823C22.6555 38.817 24.4766 37.3851 26.5625 36.3966C28.6484 35.4081 30.9437 34.8893 33.2722 34.8799Z" stroke="url(#paint3_linear_110_8)" stroke-linecap="round"/>
<path d="M36.8498 39.04C36.8684 38.8723 36.9556 38.7184 37.0923 38.6117C37.2291 38.5051 37.4044 38.4543 37.5801 38.4704C40.3874 38.7584 41.446 38.24 43.4225 36.7808C43.5429 36.685 43.6946 36.6326 43.8513 36.6326C44.008 36.6326 44.1597 36.685 44.2801 36.7808C46.0355 38.1888 47.0472 38.7008 50.1225 38.2912C50.2106 38.2805 50.3 38.2866 50.3856 38.3092C50.4712 38.3318 50.5513 38.3704 50.6211 38.4228C50.6909 38.4752 50.7491 38.5404 50.7924 38.6145C50.8356 38.6886 50.863 38.7701 50.8729 38.8544C50.9907 40.9697 50.7186 43.0883 50.0689 45.1136C49.0371 48.2432 45.7273 51.2 43.8848 51.2C42.0423 51.2 38.699 48.2304 37.6404 45.152C36.9984 43.1758 36.7307 41.106 36.8498 39.04Z" fill="url(#paint4_linear_110_8)"/>
<path d="M37.587 38.6561C38.6834 38.8189 39.8038 38.7512 40.87 38.4577C41.8481 38.0975 42.7545 37.5802 43.55 36.9281C43.6434 36.8519 43.7622 36.8101 43.885 36.8101C44.0078 36.8101 44.1266 36.8519 44.22 36.9281C44.9236 37.5767 45.7611 38.078 46.6789 38.4001C47.8214 38.6771 49.0149 38.7034 50.1696 38.4769C50.236 38.466 50.3042 38.4685 50.3696 38.4844C50.4349 38.5002 50.4961 38.5289 50.5492 38.5687C50.6022 38.6085 50.6459 38.6585 50.6775 38.7155C50.709 38.7724 50.7277 38.835 50.7324 38.8993C50.8458 40.9925 50.5783 43.0886 49.9418 45.0945C49.355 46.6509 48.4066 48.06 47.168 49.2161C46.6379 49.7313 46.0439 50.1826 45.3992 50.5601C44.945 50.8408 44.4244 51.008 43.885 51.0465C43.3435 51.0078 42.8208 50.8406 42.3641 50.5601C41.7164 50.1889 41.1199 49.7417 40.5886 49.2289C39.3439 48.0775 38.3907 46.6701 37.8014 45.1137C37.1761 43.163 36.9197 41.1215 37.0443 39.0849C37.0473 39.0216 37.0642 38.9596 37.0938 38.903C37.1235 38.8463 37.1652 38.7961 37.2163 38.7558C37.2674 38.7154 37.3267 38.6856 37.3906 38.6685C37.4544 38.6513 37.5213 38.6471 37.587 38.6561Z" stroke="url(#paint5_linear_110_8)" stroke-linecap="round"/>
</g>
<defs>
<linearGradient id="paint0_linear_110_8" x1="4.85746" y1="1.65767" x2="74.1789" y2="81.4856" gradientUnits="userSpaceOnUse">
<stop stop-color="#595959"/>
<stop offset="1" stop-color="#595959" stop-opacity="0"/>
</linearGradient>
<linearGradient id="paint1_linear_110_8" x1="15.7451" y1="31.36" x2="51.2551" y2="31.36" gradientUnits="userSpaceOnUse">
<stop offset="0.05" stop-color="#6079FF"/>
<stop offset="0.23" stop-color="#5498E8"/>
<stop offset="0.62" stop-color="#37E7AE"/>
<stop offset="0.64" stop-color="#35EBAB"/>
<stop offset="0.71" stop-color="#44C5BC"/>
<stop offset="0.87" stop-color="#6A64E8"/>
<stop offset="0.94" stop-color="#7C38FC"/>
</linearGradient>
<linearGradient id="paint2_linear_110_8" x1="28.1401" y1="26.2399" x2="38.8601" y2="26.2399" gradientUnits="userSpaceOnUse">
<stop offset="0.05" stop-color="#6079FF"/>
<stop offset="0.23" stop-color="#5498E8"/>
<stop offset="0.62" stop-color="#37E7AE"/>
<stop offset="0.64" stop-color="#35EBAB"/>
<stop offset="0.71" stop-color="#44C5BC"/>
<stop offset="0.87" stop-color="#6A64E8"/>
<stop offset="0.94" stop-color="#7C38FC"/>
</linearGradient>
<linearGradient id="paint3_linear_110_8" x1="20.4819" y1="41.2799" x2="47.7241" y2="41.2799" gradientUnits="userSpaceOnUse">
<stop offset="0.05" stop-color="#6079FF"/>
<stop offset="0.23" stop-color="#5498E8"/>
<stop offset="0.62" stop-color="#37E7AE"/>
<stop offset="0.64" stop-color="#35EBAB"/>
<stop offset="0.71" stop-color="#44C5BC"/>
<stop offset="0.87" stop-color="#6A64E8"/>
<stop offset="0.94" stop-color="#7C38FC"/>
</linearGradient>
<linearGradient id="paint4_linear_110_8" x1="41.6805" y1="27.2894" x2="49.3026" y2="37.0802" gradientUnits="userSpaceOnUse">
<stop offset="0.05" stop-color="#6079FF"/>
<stop offset="0.23" stop-color="#5498E8"/>
<stop offset="0.62" stop-color="#37E7AE"/>
<stop offset="0.64" stop-color="#35EBAB"/>
<stop offset="0.71" stop-color="#44C5BC"/>
<stop offset="0.87" stop-color="#6A64E8"/>
<stop offset="0.94" stop-color="#7C38FC"/>
</linearGradient>
<linearGradient id="paint5_linear_110_8" x1="41.138" y1="24.4041" x2="49.2697" y2="40.9609" gradientUnits="userSpaceOnUse">
<stop offset="0.05" stop-color="#6079FF"/>
<stop offset="0.23" stop-color="#5498E8"/>
<stop offset="0.62" stop-color="#37E7AE"/>
<stop offset="0.64" stop-color="#35EBAB"/>
<stop offset="0.71" stop-color="#44C5BC"/>
<stop offset="0.87" stop-color="#6A64E8"/>
<stop offset="0.94" stop-color="#7C38FC"/>
</linearGradient>
<clipPath id="clip0_110_8">
<rect width="67" height="64" fill="white"/>
</clipPath>
</defs>
</svg>
